<svg width="336" height="308" viewBox="0 0 336 308" fill="none" xmlns="http://www.w3.org/2000/svg">
<path d="M259.402 79.5755C257.227 75.7107 254.947 71.9045 252.352 68.2775C222.409 26.4215 142.217 3.63566 102.481 46.8992C93.01 57.2104 89.7091 69.6709 83.3345 81.4962C68.8361 108.392 41.7485 124.472 24.7637 149.378C11.5979 168.684 13.3531 193.427 20.6974 214.297C28.6781 236.976 42.7242 252.815 65.1905 264.855C90.3771 278.353 117.316 274.605 144.54 269.908C156.784 267.796 169.407 265.64 181.926 266.447C197.6 267.456 213.075 271.522 228.625 273.498C244.797 275.554 261.577 276.04 277.155 271.561C327.045 257.215 338.864 189.99 318.348 151.481C311.085 137.85 298.778 127.333 287.349 116.663C275.013 105.146 267.451 93.8741 259.402 79.5755Z" fill="#92E3A9"/>
<path opacity="0.8" d="M259.402 79.5755C257.227 75.7107 254.947 71.9045 252.352 68.2775C222.409 26.4215 142.217 3.63566 102.481 46.8992C93.01 57.2104 89.7091 69.6709 83.3345 81.4962C68.8361 108.392 41.7485 124.472 24.7637 149.378C11.5979 168.684 13.3531 193.427 20.6974 214.297C28.6781 236.976 42.7242 252.815 65.1905 264.855C90.3771 278.353 117.316 274.605 144.54 269.908C156.784 267.796 169.407 265.64 181.926 266.447C197.6 267.456 213.075 271.522 228.625 273.498C244.797 275.554 261.577 276.04 277.155 271.561C327.045 257.215 338.864 189.99 318.348 151.481C311.085 137.85 298.778 127.333 287.349 116.663C275.013 105.146 267.451 93.8741 259.402 79.5755Z" fill="#E5F9F1"/>
<path d="M314.229 158.783C311.579 158.372 306.613 155.246 306.609 155.244C306.558 155.211 309.851 152.868 310.077 152.743C312.695 151.285 318.692 149.88 321.286 151.938C323.155 153.422 322.953 155.986 321.228 157.478C319.466 159.002 316.485 159.132 314.229 158.783Z" fill="#92E3A9"/>
<path d="M302.94 171.124C300.598 170.128 296.953 166.235 296.664 165.924C294.306 167.806 291.721 169.563 288.998 171.209C287.443 172.151 285.844 173.055 284.228 173.944C285.031 173.639 285.752 173.373 285.858 173.344C288.805 172.572 294.992 172.669 296.9 175.282C298.277 177.165 297.343 179.589 295.249 180.611C293.112 181.654 290.198 181.058 288.123 180.174C286.016 179.279 282.836 176.017 282.006 175.144C281.382 175.479 280.764 175.819 280.139 176.152C277.139 177.749 274.14 179.331 271.249 180.964C270.229 181.54 269.25 182.14 268.265 182.738C268.979 182.468 269.583 182.246 269.679 182.221C272.625 181.449 278.813 181.545 280.721 184.159C282.097 186.042 281.163 188.466 279.07 189.487C276.931 190.53 274.019 189.934 271.944 189.051C269.933 188.196 266.968 185.21 265.978 184.177C264.99 184.817 264.001 185.457 263.076 186.118C262.456 186.582 261.823 186.989 261.229 187.488C260.628 187.971 260.034 188.448 259.446 188.92C258.349 189.868 257.211 190.841 256.166 191.79C255.435 192.446 254.75 193.083 254.058 193.723C255.066 193.139 257.063 192.035 257.242 191.96C260.026 190.788 266.158 190.024 268.477 192.342C270.148 194.012 269.627 196.538 267.725 197.838C265.784 199.166 262.807 198.981 260.609 198.396C258.189 197.752 254.093 194.559 253.584 194.157C252.444 195.22 251.346 196.263 250.327 197.263C249.412 198.157 248.557 199.012 247.746 199.835L245.947 198.757C246.856 197.871 247.821 196.945 248.86 195.974C250.012 194.89 251.267 193.754 252.569 192.599C252.321 192.275 250.92 190.427 249.85 188.551C247.339 189.129 242.354 188.579 241.712 188.504C241.4 189.967 241.112 191.392 240.864 192.742C240.691 193.67 240.533 194.563 240.387 195.424L238.481 194.282C238.603 193.671 238.728 193.051 238.863 192.409C239.173 190.922 239.536 189.339 239.925 187.717C239.311 187.497 234.304 185.67 232.548 184.009C230.957 182.502 229.385 180.176 229.756 177.982C230.12 175.834 232.311 174.229 234.703 174.801C238.023 175.595 240.157 180.92 240.329 183.724C240.34 183.89 240.232 185.696 240.143 186.834C240.306 186.172 240.457 185.528 240.634 184.848C240.973 183.502 241.356 182.168 241.762 180.731C241.984 180.044 242.21 179.35 242.436 178.648C242.646 177.948 242.964 177.233 243.226 176.518C243.872 174.871 244.615 173.231 245.402 171.594C244.117 171.318 239.569 170.278 237.738 169.004C235.915 167.736 233.978 165.656 233.983 163.435C233.987 161.261 235.888 159.37 238.347 159.603C241.76 159.927 244.748 164.895 245.383 167.643C245.424 167.814 245.637 169.832 245.73 170.943C246.212 169.962 246.688 168.982 247.211 168.005C248.719 165.183 250.343 162.37 251.948 159.556C252.44 158.695 252.919 157.831 253.402 156.968C252.944 156.874 247.51 155.746 245.458 154.319C243.635 153.051 241.698 150.97 241.702 148.749C241.706 146.575 243.607 144.684 246.066 144.918C249.479 145.241 252.468 150.209 253.103 152.956C253.15 153.163 253.453 156.068 253.49 156.81C254.554 154.909 255.595 153.006 256.538 151.091C257.843 148.451 258.964 145.794 259.843 143.147C259.629 143.104 253.951 141.949 251.851 140.487C250.028 139.219 248.09 137.138 248.095 134.918C248.1 132.744 249.999 130.854 252.459 131.087C255.872 131.41 258.86 136.378 259.495 139.125C259.545 139.341 259.869 142.467 259.883 143.037C259.935 142.879 260.008 142.722 260.057 142.564C260.956 139.727 261.438 136.875 261.746 134.185C261.929 132.622 262.007 131.118 262.049 129.654C260.967 129.538 256.031 128.96 253.982 127.836C252.018 126.759 249.843 124.886 249.581 122.679C249.325 120.517 250.988 118.447 253.46 118.431C256.891 118.409 260.456 123.045 261.417 125.713C261.468 125.857 261.821 127.386 262.06 128.503C262.069 127.842 262.09 127.16 262.083 126.526C262.064 124.148 261.888 121.971 261.715 120.044C261.607 118.949 261.486 117.961 261.361 117.037C260.364 116.417 256.381 113.867 255.15 112.038C253.95 110.252 252.96 107.671 253.838 105.602C254.698 103.575 257.215 102.44 259.415 103.47C262.472 104.899 263.306 110.521 262.817 113.294C262.774 113.533 261.645 117.211 261.592 117.179C261.592 117.179 261.544 117.149 261.532 117.142C261.671 118.029 261.808 118.98 261.937 120.023C262.157 121.951 262.386 124.13 262.46 126.517C262.541 128.903 262.556 131.497 262.303 134.231C262.054 136.971 261.638 139.842 260.792 142.749C260.783 142.782 260.768 142.815 260.759 142.849C261.294 142.068 262.87 139.933 263.012 139.782C265.004 137.649 270.223 134.599 273.389 135.814C275.669 136.689 276.35 139.183 275.218 141.094C274.062 143.044 271.275 144.02 269.012 144.334C266.459 144.687 261.077 143.283 260.649 143.171C259.816 145.934 258.717 148.706 257.436 151.455C256.705 153.028 255.916 154.591 255.103 156.149C255.589 155.488 256.029 154.9 256.101 154.824C258.094 152.69 263.312 149.642 266.478 150.857C268.759 151.731 269.439 154.225 268.307 156.136C267.152 158.087 264.364 159.062 262.101 159.376C259.805 159.693 255.189 158.582 253.972 158.273C253.654 158.868 253.343 159.465 253.021 160.058C251.481 162.907 249.93 165.743 248.502 168.567C247.998 169.563 247.542 170.559 247.082 171.555C247.515 170.969 247.885 170.478 247.949 170.409C249.942 168.275 255.16 165.227 258.325 166.44C260.606 167.316 261.287 169.81 260.155 171.721C259 173.671 256.211 174.647 253.949 174.96C251.758 175.264 247.487 174.273 246.039 173.911C245.6 174.944 245.16 175.978 244.787 176.997C244.549 177.699 244.267 178.358 244.07 179.075C243.86 179.78 243.651 180.479 243.445 181.171C243.101 182.517 242.736 183.903 242.437 185.223C242.22 186.14 242.034 187.017 241.842 187.9C242.331 186.905 243.333 184.973 243.436 184.82C244.511 183.235 246.927 181.06 249.404 179.997C249.561 179.762 249.739 179.541 249.942 179.336C251.539 177.728 254.332 177.498 255.984 179.185C258.275 181.525 256.85 187.046 255.306 189.472C255.215 189.615 254.038 191.067 253.279 191.972C253.814 191.502 254.326 191.041 254.883 190.563C255.977 189.613 257.098 188.694 258.301 187.7C258.901 187.239 259.506 186.774 260.118 186.304C260.713 185.827 261.408 185.391 262.058 184.927C263.588 183.881 265.195 182.888 266.836 181.921C265.93 181.041 262.763 177.874 262.003 175.885C261.245 173.905 260.882 171.191 262.222 169.341C263.534 167.53 266.257 166.913 268.168 168.352C270.82 170.347 270.323 176.002 269.199 178.615C269.129 178.777 268.092 180.569 267.502 181.543C268.494 180.969 269.481 180.391 270.506 179.841C273.463 178.25 276.509 176.724 279.542 175.189C280.471 174.719 281.39 174.242 282.313 173.766C281.987 173.456 278.133 169.766 277.281 167.538C276.524 165.559 276.16 162.844 277.5 160.994C278.813 159.184 281.536 158.567 283.446 160.005C286.098 162.001 285.601 167.656 284.477 170.269C284.392 170.465 282.897 173.041 282.481 173.679C284.512 172.632 286.526 171.571 288.465 170.45C291.142 168.908 293.676 167.259 296.002 165.496C295.849 165.351 291.809 161.517 290.936 159.235C290.179 157.256 289.815 154.541 291.156 152.691C292.468 150.88 295.191 150.264 297.102 151.702C299.754 153.698 299.257 159.352 298.133 161.965C298.045 162.17 296.433 164.941 296.103 165.423C296.24 165.318 296.396 165.224 296.533 165.118C298.99 163.205 301.108 161.07 302.985 158.982C304.077 157.771 305.048 156.557 305.963 155.357C305.131 154.713 301.361 151.734 300.329 149.761C299.339 147.868 298.652 145.207 299.762 143.234C300.85 141.302 303.483 140.415 305.554 141.652C308.429 143.369 308.613 149.039 307.808 151.749C307.765 151.897 307.139 153.35 306.666 154.402C307.07 153.855 307.499 153.297 307.875 152.765C309.291 150.772 310.455 148.867 311.469 147.172C312.038 146.204 312.531 145.318 312.983 144.485C312.526 143.463 310.737 139.323 310.812 137.175C310.885 135.078 311.612 132.425 313.59 131.143C315.527 129.888 318.309 130.213 319.525 132.186C321.214 134.924 318.527 140.033 316.45 142.1C316.271 142.278 313.114 144.774 313.089 144.721C313.089 144.721 313.067 144.671 313.062 144.659C312.645 145.468 312.186 146.333 311.665 147.267C310.689 148.985 309.568 150.919 308.193 152.947C306.825 154.978 305.277 157.15 303.42 159.301C301.563 161.46 299.488 163.645 297.033 165.642C297.006 165.665 296.974 165.686 296.945 165.708C297.861 165.328 300.461 164.345 300.67 164.29C303.616 163.518 309.803 163.614 311.713 166.228C313.088 168.111 312.155 170.535 310.061 171.557C307.927 172.603 305.015 172.006 302.94 171.124Z" fill="#92E3A9"/>
<path d="M262.518 129.234C262.455 129.233 263.792 125.613 263.905 125.394C265.212 122.854 269.367 118.65 272.77 119.055C275.222 119.346 276.596 121.587 276.055 123.705C275.502 125.866 273.095 127.482 271.002 128.332C268.546 129.33 262.522 129.233 262.518 129.234Z" fill="#92E3A9"/>
<path d="M288.653 235.963C287.945 234.959 287.536 232.307 287.536 232.304C287.532 232.276 289.525 232.588 289.649 232.621C291.076 233.002 293.59 234.508 293.637 236.033C293.671 237.132 292.604 237.906 291.457 237.83C290.285 237.751 289.256 236.817 288.653 235.963Z" fill="#92E3A9"/>
<path d="M280.137 236.307C279.758 235.213 280.082 232.741 280.109 232.545C278.602 232.389 277.069 232.117 275.534 231.764C274.656 231.563 273.779 231.335 272.903 231.097C273.285 231.26 273.626 231.409 273.671 231.434C274.938 232.148 276.929 234.208 276.535 235.69C276.251 236.758 274.999 237.247 273.914 236.896C272.806 236.537 272.084 235.387 271.749 234.416C271.407 233.432 271.638 231.32 271.706 230.762C271.371 230.667 271.036 230.576 270.701 230.481C269.095 230.021 267.494 229.556 265.909 229.143C265.35 228.998 264.795 228.874 264.239 228.747C264.578 228.892 264.863 229.017 264.904 229.04C266.171 229.753 268.162 231.814 267.768 233.296C267.485 234.365 266.233 234.854 265.148 234.502C264.04 234.143 263.318 232.993 262.982 232.023C262.656 231.083 262.85 229.132 262.929 228.468C262.355 228.354 261.781 228.24 261.22 228.153C260.835 228.102 260.468 228.028 260.079 227.996C259.694 227.958 259.313 227.919 258.936 227.881C258.207 227.833 257.454 227.778 256.741 227.747C256.245 227.722 255.773 227.706 255.297 227.689C255.854 227.828 256.94 228.121 257.028 228.155C258.399 228.683 260.706 230.443 260.562 231.963C260.458 233.059 259.302 233.715 258.171 233.518C257.017 233.317 256.113 232.281 255.621 231.368C255.079 230.364 254.981 227.974 254.971 227.675C254.183 227.65 253.416 227.632 252.692 227.626C252.043 227.619 251.429 227.619 250.842 227.622L250.673 226.679C251.317 226.687 251.994 226.7 252.713 226.722C253.514 226.745 254.369 226.783 255.246 226.832C255.291 226.644 255.553 225.579 255.934 224.613C254.885 223.979 253.466 222.165 253.285 221.93C252.612 222.307 251.961 222.68 251.353 223.041C250.934 223.289 250.534 223.53 250.15 223.764L249.972 222.765C250.25 222.605 250.532 222.443 250.828 222.277C251.509 221.891 252.246 221.491 253.006 221.087C252.891 220.814 251.963 218.573 252.035 217.453C252.101 216.437 252.493 215.16 253.471 214.562C254.428 213.977 255.772 214.17 256.334 215.141C257.112 216.489 255.734 218.935 254.697 219.911C254.635 219.969 253.895 220.525 253.422 220.869C253.734 220.705 254.035 220.544 254.358 220.379C254.994 220.049 255.64 219.737 256.334 219.399C256.675 219.247 257.02 219.093 257.367 218.937C257.708 218.777 258.092 218.647 258.457 218.498C259.312 218.17 260.195 217.876 261.092 217.598C260.779 217.086 259.694 215.254 259.59 214.236C259.487 213.223 259.664 211.906 260.532 211.18C261.381 210.468 262.742 210.472 263.457 211.355C264.45 212.58 263.492 215.188 262.627 216.297C262.574 216.366 261.856 217.097 261.453 217.492C261.994 217.329 262.533 217.163 263.085 217.014C264.68 216.584 266.311 216.194 267.934 215.798C268.432 215.677 268.926 215.551 269.421 215.426C269.307 215.245 267.966 213.093 267.85 211.953C267.747 210.94 267.924 209.623 268.792 208.897C269.641 208.186 271.002 208.189 271.717 209.072C272.709 210.297 271.751 212.905 270.887 214.014C270.822 214.097 269.788 215.149 269.51 215.405C270.601 215.13 271.685 214.847 272.74 214.529C274.198 214.091 275.602 213.588 276.924 213.008C276.87 212.924 275.459 210.684 275.341 209.516C275.238 208.502 275.415 207.185 276.283 206.459C277.133 205.748 278.493 205.751 279.209 206.633C280.202 207.859 279.243 210.467 278.379 211.576C278.311 211.663 277.198 212.793 276.98 212.985C277.059 212.95 277.144 212.922 277.222 212.887C278.624 212.251 279.894 211.475 281.045 210.694C281.715 210.242 282.327 209.774 282.912 209.308C282.602 208.916 281.21 207.107 280.976 206.067C280.753 205.071 280.771 203.743 281.546 202.934C282.306 202.142 283.658 202.008 284.475 202.813C285.609 203.931 284.968 206.62 284.242 207.809C284.203 207.873 283.722 208.49 283.365 208.934C283.625 208.72 283.898 208.504 284.144 208.294C285.066 207.508 285.857 206.736 286.553 206.048C286.944 205.653 287.29 205.289 287.61 204.946C287.525 204.415 287.214 202.274 287.524 201.271C287.827 200.292 288.51 199.121 289.605 198.73C290.677 198.348 291.945 198.8 292.265 199.86C292.71 201.33 290.79 203.447 289.548 204.195C289.44 204.26 287.635 205.095 287.63 205.068C287.63 205.068 287.626 205.042 287.625 205.036C287.324 205.372 286.998 205.729 286.633 206.113C285.953 206.817 285.178 207.606 284.271 208.413C283.367 209.222 282.359 210.078 281.21 210.891C280.058 211.707 278.802 212.512 277.391 213.188C277.375 213.196 277.357 213.201 277.341 213.209C277.821 213.129 279.171 212.946 279.276 212.943C280.761 212.896 283.662 213.608 284.226 215.044C284.631 216.078 283.881 217.119 282.765 217.374C281.625 217.635 280.331 217.041 279.466 216.401C278.492 215.681 277.275 213.456 277.178 213.278C275.828 213.911 274.385 214.459 272.893 214.94C272.039 215.216 271.171 215.47 270.296 215.714C270.714 215.657 271.087 215.609 271.14 215.607C272.626 215.561 275.526 216.273 276.09 217.709C276.497 218.743 275.746 219.784 274.63 220.039C273.49 220.299 272.195 219.706 271.331 219.066C270.455 218.418 269.375 216.54 269.097 216.039C268.76 216.13 268.425 216.223 268.088 216.313C266.472 216.741 264.857 217.163 263.287 217.62C262.733 217.781 262.195 217.959 261.656 218.134C262.026 218.084 262.339 218.044 262.387 218.043C263.873 217.997 266.773 218.708 267.337 220.144C267.743 221.178 266.993 222.219 265.877 222.475C264.737 222.735 263.442 222.141 262.578 221.502C261.741 220.883 260.728 219.158 260.394 218.565C259.847 218.76 259.3 218.954 258.78 219.166C258.428 219.318 258.078 219.442 257.734 219.613C257.39 219.775 257.049 219.935 256.711 220.094C256.073 220.423 255.413 220.758 254.8 221.092C254.371 221.322 253.967 221.549 253.56 221.775C254.109 221.609 255.191 221.304 255.285 221.288C256.255 221.121 257.896 221.199 259.123 221.663C259.266 221.637 259.411 221.624 259.557 221.623C260.708 221.62 261.714 222.46 261.597 223.554C261.435 225.073 258.813 226.415 257.361 226.705C257.275 226.722 256.323 226.812 255.721 226.86C256.08 226.881 256.428 226.898 256.797 226.924C257.526 226.971 258.252 227.038 259.034 227.106C259.411 227.152 259.79 227.198 260.175 227.244C260.556 227.283 260.954 227.368 261.348 227.429C262.258 227.588 263.172 227.789 264.087 228.011C264.133 227.425 264.331 225.348 264.858 224.447C265.382 223.549 266.322 222.54 267.483 222.374C268.62 222.21 269.753 222.901 269.818 223.999C269.909 225.523 267.54 227.213 266.151 227.701C266.065 227.731 265.026 227.979 264.453 228.105C265.002 228.242 265.551 228.376 266.102 228.532C267.692 228.98 269.286 229.478 270.878 229.969C271.366 230.12 271.854 230.265 272.342 230.412C272.356 230.203 272.533 227.73 273.122 226.721C273.646 225.824 274.586 224.814 275.748 224.647C276.884 224.484 278.017 225.174 278.082 226.272C278.173 227.796 275.804 229.486 274.416 229.975C274.311 230.011 272.816 230.365 272.431 230.439C273.505 230.761 274.58 231.073 275.652 231.342C277.132 231.714 278.606 232.004 280.056 232.189C280.063 232.092 280.235 229.51 280.838 228.476C281.362 227.579 282.302 226.57 283.464 226.403C284.601 226.239 285.733 226.93 285.798 228.028C285.889 229.552 283.52 231.242 282.132 231.73C282.023 231.768 280.413 232.148 280.116 232.198C280.202 232.209 280.29 232.229 280.376 232.239C281.928 232.417 283.455 232.412 284.885 232.343C285.716 232.304 286.508 232.225 287.276 232.131C287.255 231.647 287.181 229.435 287.613 228.449C288.027 227.504 288.84 226.406 289.974 226.124C291.084 225.847 292.293 226.419 292.49 227.504C292.763 229.01 290.61 230.929 289.289 231.553C289.217 231.587 288.445 231.859 287.88 232.048C288.226 232.002 288.584 231.959 288.915 231.908C290.157 231.719 291.281 231.476 292.275 231.253C292.84 231.122 293.347 230.993 293.82 230.869C294.069 230.384 295.098 228.441 295.961 227.76C296.803 227.097 298.076 226.466 299.225 226.694C300.35 226.918 301.134 227.937 300.763 228.982C300.249 230.433 297.374 231.227 295.887 231.224C295.759 231.223 293.75 231.006 293.763 230.981C293.763 230.981 293.775 230.957 293.778 230.952C293.326 231.081 292.838 231.214 292.303 231.349C291.312 231.593 290.191 231.859 288.948 232.073C287.707 232.291 286.352 232.494 284.904 232.591C283.453 232.69 281.921 232.726 280.337 232.576C280.319 232.574 280.3 232.57 280.282 232.568C280.73 232.744 281.966 233.274 282.056 233.325C283.323 234.037 285.314 236.097 284.92 237.58C284.636 238.648 283.385 239.137 282.3 238.786C281.195 238.427 280.473 237.277 280.137 236.307Z" fill="#92E3A9"/>
<path d="M283.231 209.323C283.21 209.302 285.061 208.554 285.183 208.519C286.603 208.115 289.606 208.1 290.563 209.348C291.252 210.247 290.829 211.432 289.825 211.948C288.801 212.476 287.381 212.216 286.363 211.808C285.169 211.33 283.232 209.324 283.231 209.323Z" fill="#92E3A9"/>
<path d="M18.458 158.783C21.1077 158.372 26.0737 155.246 26.0778 155.244C26.1289 155.211 22.8361 152.868 22.6103 152.743C19.9915 151.285 13.9952 149.88 11.4006 151.938C9.5318 153.422 9.7334 155.986 11.4584 157.478C13.2211 159.002 16.2007 159.132 18.458 158.783Z" fill="#92E3A9"/>
<path d="M29.7463 171.124C32.0875 170.128 35.7331 166.235 36.0221 165.924C38.3794 167.806 40.9646 169.563 43.6876 171.209C45.2433 172.151 46.8419 173.055 48.4574 173.944C47.6544 173.639 46.9333 173.373 46.8278 173.344C43.8811 172.572 37.694 172.669 35.7855 175.282C34.4093 177.165 35.3427 179.589 37.4366 180.611C39.5743 181.654 42.4874 181.058 44.5632 180.174C46.6699 179.279 49.8498 176.017 50.6797 175.144C51.3033 175.479 51.9223 175.819 52.5472 176.152C55.5464 177.749 58.5462 179.331 61.4371 180.964C62.4565 181.54 63.4363 182.14 64.4201 182.738C63.7058 182.468 63.1023 182.246 63.0062 182.221C60.0602 181.449 53.8724 181.545 51.9639 184.159C50.5883 186.042 51.5217 188.466 53.615 189.487C55.754 190.53 58.6658 189.934 60.7416 189.051C62.7522 188.196 65.7171 185.21 66.7076 184.177C67.6948 184.817 68.6846 185.457 69.6093 186.118C70.2296 186.582 70.8626 186.989 71.4566 187.488C72.0574 187.971 72.6508 188.448 73.2394 188.92C74.3362 189.868 75.4745 190.841 76.5188 191.79C77.2506 192.446 77.9354 193.083 78.6269 193.723C77.6195 193.139 75.6217 192.035 75.4429 191.96C72.6588 190.788 66.5268 190.024 64.2078 192.342C62.5372 194.012 63.0586 196.538 64.9604 197.838C66.9011 199.166 69.8781 198.981 72.0762 198.396C74.4961 197.752 78.5926 194.559 79.1013 194.157C80.241 195.22 81.3391 196.263 82.3578 197.263C83.2731 198.157 84.1285 199.012 84.939 199.835L86.7379 198.757C85.8294 197.871 84.8644 196.945 83.8255 195.974C82.673 194.89 81.4177 193.754 80.116 192.599C80.3647 192.275 81.7651 190.427 82.8356 188.551C85.3462 189.129 90.3311 188.579 90.9735 188.504C91.2853 189.967 91.573 191.392 91.8209 192.742C91.9943 193.67 92.1522 194.563 92.298 195.424L94.2038 194.282C94.0822 193.671 93.9572 193.051 93.8221 192.409C93.5123 190.922 93.1495 189.339 92.7597 187.717C93.3739 187.497 98.381 185.67 100.136 184.009C101.728 182.502 103.299 180.176 102.928 177.982C102.565 175.834 100.373 174.229 97.9805 174.801C94.6608 175.595 92.5272 180.92 92.3545 183.724C92.3437 183.89 92.4519 185.696 92.5406 186.834C92.3773 186.172 92.2268 185.528 92.0501 184.848C91.7107 183.502 91.3277 182.168 90.9218 180.731C90.6994 180.044 90.4742 179.35 90.2478 178.648C90.0381 177.948 89.7202 177.233 89.4582 176.518C88.8117 174.871 88.0691 173.231 87.2816 171.594C88.5664 171.318 93.1145 170.278 94.9457 169.004C96.7689 167.736 98.7062 165.656 98.7009 163.435C98.6968 161.261 96.7957 159.37 94.3369 159.603C90.9238 159.927 87.9354 164.895 87.3004 167.643C87.2601 167.814 87.047 169.832 86.9536 170.943C86.4718 169.962 85.996 168.982 85.4725 168.005C83.9639 165.183 82.3403 162.37 80.7356 159.556C80.243 158.695 79.7639 157.831 79.2807 156.968C79.739 156.874 85.1735 155.746 87.2251 154.319C89.0482 153.051 90.9856 150.97 90.9809 148.749C90.9769 146.575 89.0758 144.684 86.617 144.918C83.2039 145.241 80.2155 150.209 79.5804 152.956C79.5327 153.163 79.2303 156.068 79.1927 156.81C78.1289 154.909 77.088 153.006 76.1452 151.091C74.8402 148.451 73.7193 145.794 72.8403 143.147C73.0533 143.104 78.7317 141.949 80.8324 140.487C82.6548 139.219 84.5929 137.138 84.5882 134.918C84.5835 132.744 82.6837 130.854 80.2242 131.087C76.8111 131.41 73.8227 136.378 73.1877 139.125C73.138 139.341 72.8141 142.467 72.8 143.037C72.7482 142.879 72.6756 142.722 72.6259 142.564C71.7274 139.727 71.2449 136.875 70.9372 134.185C70.7544 132.622 70.6751 131.118 70.6341 129.654C71.716 129.538 76.6525 128.96 78.7015 127.836C80.665 126.759 82.8403 124.886 83.1017 122.679C83.3578 120.517 81.6952 118.447 79.2236 118.431C75.7917 118.409 72.2267 123.045 71.2665 125.713C71.2147 125.857 70.8619 127.386 70.6227 128.503C70.6146 127.842 70.5931 127.16 70.6005 126.526C70.6186 124.148 70.7947 121.971 70.9681 120.044C71.0763 118.949 71.1972 117.961 71.3222 117.037C72.3188 116.417 76.3018 113.867 77.5329 112.038C78.733 110.252 79.7236 107.671 78.8453 105.602C77.9851 103.575 75.4685 102.44 73.2677 103.47C70.2114 104.899 69.3768 110.521 69.866 113.294C69.909 113.533 71.0393 117.211 71.0911 117.179C71.0911 117.179 71.1394 117.149 71.1515 117.142C71.0118 118.029 70.8747 118.98 70.7463 120.023C70.5266 121.951 70.2974 124.13 70.2235 126.517C70.1422 128.903 70.1267 131.497 70.3801 134.231C70.6301 136.971 71.0454 139.842 71.8907 142.749C71.9002 142.782 71.9149 142.815 71.9243 142.849C71.3888 142.068 69.8129 139.933 69.6711 139.782C67.6786 137.649 62.4599 134.599 59.2941 135.814C57.014 136.689 56.3333 139.183 57.4649 141.094C58.6214 143.044 61.4082 144.02 63.6715 144.334C66.2238 144.687 71.6065 143.283 72.0346 143.171C72.8672 145.934 73.9666 148.706 75.2474 151.455C75.9785 153.028 76.7674 154.591 77.5806 156.149C77.094 155.488 76.6539 154.9 76.582 154.824C74.5888 152.69 69.3707 149.642 66.205 150.857C63.9242 151.731 63.2441 154.225 64.3758 156.136C65.5316 158.087 68.3191 159.062 70.5817 159.376C72.8779 159.693 77.4939 158.582 78.7109 158.273C79.0294 158.868 79.3405 159.465 79.6618 160.058C81.202 162.907 82.753 165.743 84.181 168.567C84.685 169.563 85.1412 170.559 85.6009 171.555C85.1681 170.969 84.7979 170.478 84.734 170.409C82.7409 168.275 77.5228 165.227 74.3577 166.44C72.0769 167.316 71.3962 169.81 72.5278 171.721C73.683 173.671 76.4718 174.647 78.7344 174.96C80.9251 175.264 85.1964 174.273 86.6438 173.911C87.082 174.944 87.5221 175.978 87.8958 176.997C88.1337 177.699 88.4152 178.358 88.6121 179.075C88.8225 179.78 89.0308 180.479 89.2378 181.171C89.5812 182.517 89.946 183.903 90.2458 185.223C90.4621 186.14 90.649 187.017 90.8405 187.9C90.3513 186.905 89.35 184.973 89.2465 184.82C88.172 183.235 85.7555 181.06 83.2785 179.997C83.1212 179.762 82.9431 179.541 82.7402 179.336C81.1435 177.728 78.35 177.498 76.6989 179.185C74.4074 181.525 75.8327 187.046 77.3763 189.472C77.467 189.615 78.6443 191.067 79.4037 191.972C78.8688 191.502 78.3561 191.041 77.7996 190.563C76.7056 189.613 75.5841 188.694 74.3805 187.7C73.7811 187.239 73.1756 186.774 72.5641 186.304C71.9687 185.827 71.2738 185.391 70.624 184.927C69.0939 183.881 67.4871 182.888 65.8454 181.921C66.7513 181.041 69.9191 177.874 70.6791 175.885C71.4365 173.905 71.8 171.191 70.4601 169.341C69.1476 167.53 66.4247 166.913 64.5142 168.352C61.8618 170.347 62.3584 176.002 63.4827 178.615C63.5532 178.777 64.5895 180.569 65.1795 181.543C64.1876 180.969 63.2004 180.391 62.1756 179.841C59.2188 178.25 56.1727 176.724 53.1399 175.189C52.2112 174.719 51.2919 174.242 50.3693 173.766C50.6952 173.456 54.5491 169.766 55.4012 167.538C56.1586 165.559 56.5221 162.844 55.1821 160.994C53.8697 159.184 51.1468 158.567 49.2363 160.005C46.5839 162.001 47.0805 167.656 48.2048 170.269C48.2901 170.465 49.7853 173.041 50.2006 173.679C48.1698 172.632 46.1558 171.571 44.2171 170.45C41.5399 168.908 39.0057 167.259 36.68 165.496C36.8325 165.351 40.8726 161.517 41.7455 159.235C42.5028 157.256 42.8664 154.541 41.5264 152.691C40.2147 150.88 37.4917 150.264 35.5806 151.702C32.9282 153.698 33.4255 159.352 34.5497 161.965C34.6377 162.17 36.2492 164.941 36.5798 165.423C36.4421 165.318 36.2862 165.224 36.1497 165.118C33.6929 163.205 31.5741 161.07 29.6979 158.982C28.6052 157.771 27.6348 156.557 26.7196 155.357C27.5515 154.713 31.3214 151.734 32.3536 149.761C33.3435 147.868 34.0303 145.207 32.9201 143.234C31.8328 141.302 29.1999 140.415 27.1288 141.652C24.2533 143.369 24.0699 149.039 24.8743 151.749C24.9179 151.897 25.5436 153.35 26.016 154.402C25.6121 153.855 25.1834 153.297 24.8077 152.765C23.3918 150.772 22.2279 148.867 21.2132 147.172C20.644 146.204 20.1514 145.318 19.6999 144.485C20.1568 143.463 21.945 139.323 21.8704 137.175C21.7978 135.078 21.0701 132.425 19.0924 131.143C17.1557 129.888 14.3736 130.213 13.1573 132.186C11.4685 134.924 14.1559 140.033 16.2323 142.1C16.4118 142.278 19.5688 144.774 19.593 144.721C19.593 144.721 19.6152 144.671 19.6206 144.659C20.0379 145.468 20.4962 146.333 21.017 147.267C21.9934 148.985 23.1143 150.919 24.4892 152.947C25.8574 154.978 27.4057 157.15 29.2624 159.301C31.1198 161.46 33.1943 163.645 35.6491 165.642C35.6767 165.665 35.7089 165.686 35.7371 165.708C34.8212 165.328 32.2212 164.345 32.0116 164.29C29.0655 163.518 22.8784 163.614 20.9686 166.228C19.5937 168.111 20.5264 170.535 22.6204 171.557C24.7593 172.603 27.6711 172.006 29.7463 171.124Z" fill="#92E3A9"/>
<path d="M70.1678 129.234C70.2303 129.233 68.8937 125.613 68.7808 125.394C67.473 122.854 63.3174 118.65 59.9151 119.055C57.4636 119.346 56.0894 121.587 56.631 123.705C57.1834 125.866 59.5905 127.482 61.6831 128.332C64.1399 129.33 70.1631 129.233 70.1678 129.234Z" fill="#92E3A9"/>
<path d="M44.0329 235.963C44.7412 234.959 45.1497 232.307 45.1497 232.304C45.1538 232.276 43.1606 232.588 43.037 232.621C41.6096 233.002 39.0957 234.508 39.0487 236.033C39.0144 237.132 40.0815 237.906 41.2293 237.83C42.4019 237.751 43.4294 236.817 44.0329 235.963Z" fill="#92E3A9"/>
<path d="M52.5481 236.307C52.9272 235.213 52.6033 232.741 52.5764 232.545C54.0837 232.389 55.6165 232.117 57.1513 231.764C58.029 231.563 58.9059 231.335 59.7822 231.097C59.3999 231.26 59.0592 231.409 59.0141 231.434C57.7467 232.148 55.7563 234.208 56.1507 235.69C56.4343 236.758 57.6863 237.247 58.7709 236.896C59.879 236.537 60.6014 235.387 60.9367 234.416C61.2781 233.432 61.0476 231.32 60.9791 230.762C61.3144 230.667 61.6497 230.576 61.9844 230.481C63.5905 230.021 65.1912 229.556 66.7764 229.143C67.3348 228.998 67.8906 228.874 68.4463 228.747C68.107 228.892 67.822 229.017 67.781 229.04C66.5143 229.753 64.5232 231.814 64.9176 233.296C65.2012 234.365 66.4532 234.854 67.5378 234.502C68.6459 234.143 69.3683 232.993 69.7036 232.023C70.0296 231.083 69.836 229.132 69.7574 228.468C70.3306 228.354 70.9045 228.24 71.4656 228.153C71.8507 228.102 72.2169 228.028 72.606 227.996C72.9911 227.958 73.3721 227.919 73.7491 227.881C74.4782 227.833 75.2308 227.778 75.9438 227.747C76.4398 227.722 76.9129 227.706 77.3886 227.689C76.8309 227.828 75.7449 228.121 75.6576 228.155C74.2873 228.683 71.9797 230.443 72.1235 231.963C72.2277 233.059 73.3842 233.715 74.5145 233.518C75.669 233.317 76.5728 232.281 77.0654 231.368C77.607 230.364 77.7045 227.974 77.7146 227.675C78.5028 227.65 79.2696 227.632 79.994 227.626C80.6431 227.619 81.2573 227.619 81.844 227.622L82.0127 226.679C81.3689 226.687 80.6922 226.7 79.9725 226.722C79.1721 226.745 78.3173 226.783 77.4397 226.832C77.3954 226.644 77.1333 225.579 76.7522 224.613C77.8006 223.979 79.2198 222.165 79.4013 221.93C80.0746 222.307 80.7244 222.68 81.3326 223.041C81.7519 223.289 82.1518 223.53 82.5355 223.764L82.7142 222.765C82.436 222.605 82.1538 222.443 81.8581 222.277C81.1767 221.891 80.4402 221.491 79.6795 221.087C79.7951 220.814 80.7231 218.573 80.6512 217.453C80.5847 216.437 80.1929 215.16 79.2145 214.562C78.2575 213.977 76.9129 214.17 76.3517 215.141C75.5729 216.489 76.9512 218.935 77.9887 219.911C78.0499 219.969 78.7897 220.525 79.2628 220.869C78.951 220.705 78.6506 220.544 78.3274 220.379C77.691 220.049 77.0452 219.737 76.3517 219.399C76.0104 219.247 75.6656 219.093 75.3182 218.937C74.9768 218.777 74.5931 218.647 74.2282 218.498C73.3734 218.17 72.4904 217.876 71.5933 217.598C71.9065 217.086 72.9917 215.254 73.0952 214.236C73.198 213.223 73.0213 211.906 72.1538 211.18C71.3043 210.468 69.9429 210.472 69.2279 211.355C68.2353 212.58 69.1936 215.188 70.0578 216.297C70.1115 216.366 70.8292 217.097 71.2318 217.492C70.6915 217.329 70.1525 217.163 69.6001 217.014C68.0048 216.584 66.3745 216.194 64.751 215.798C64.2537 215.677 63.7591 215.551 63.2639 215.426C63.3774 215.245 64.7187 213.093 64.8343 211.953C64.9371 210.94 64.7604 209.623 63.8929 208.897C63.0434 208.186 61.6826 208.189 60.9676 209.072C59.9751 210.297 60.9334 212.905 61.7976 214.014C61.8627 214.097 62.8969 215.149 63.1745 215.405C62.0838 215.13 60.9999 214.847 59.9442 214.529C58.4866 214.091 57.0821 213.588 55.761 213.008C55.8141 212.924 57.2246 210.684 57.3435 209.516C57.4464 208.502 57.2696 207.185 56.4014 206.459C55.552 205.748 54.1912 205.751 53.4755 206.633C52.483 207.859 53.4412 210.467 54.3054 211.576C54.3733 211.663 55.4868 212.793 55.7045 212.985C55.6259 212.95 55.5406 212.922 55.4626 212.887C54.0608 212.251 52.7901 211.475 51.6396 210.694C50.9696 210.242 50.3574 209.774 49.7728 209.308C50.0826 208.916 51.475 207.107 51.7081 206.067C51.9312 205.071 51.9138 203.743 51.1383 202.934C50.3789 202.142 49.0262 202.008 48.2097 202.813C47.076 203.931 47.7165 206.62 48.4422 207.809C48.4819 207.873 48.9624 208.49 49.3199 208.934C49.0591 208.72 48.7863 208.504 48.541 208.294C47.619 207.508 46.8274 206.736 46.1326 206.048C45.7408 205.653 45.3947 205.289 45.0755 204.946C45.1602 204.415 45.4713 202.274 45.1609 201.271C44.8578 200.292 44.175 199.121 43.0803 198.73C42.0078 198.348 40.7398 198.8 40.4199 199.86C39.9757 201.33 41.8956 203.447 43.1375 204.195C43.245 204.26 45.0506 205.095 45.0553 205.068C45.0553 205.068 45.0594 205.042 45.0607 205.036C45.3611 205.372 45.687 205.729 46.0519 206.113C46.732 206.817 47.5075 207.606 48.4147 208.413C49.3185 209.222 50.3258 210.078 51.4756 210.891C52.6268 211.707 53.8827 212.512 55.2946 213.188C55.3101 213.196 55.3282 213.201 55.3443 213.209C54.8645 213.129 53.5145 212.946 53.4096 212.943C51.9239 212.896 49.0235 213.608 48.4597 215.044C48.0538 216.078 48.8038 217.119 49.92 217.374C51.0603 217.635 52.3546 217.041 53.2188 216.401C54.1932 215.681 55.4102 213.456 55.507 213.278C56.8577 213.911 58.2998 214.459 59.7923 214.94C60.6457 215.216 61.514 215.47 62.3889 215.714C61.9716 215.657 61.598 215.609 61.5449 215.607C60.0591 215.561 57.1587 216.273 56.5949 217.709C56.1884 218.743 56.939 219.784 58.0552 220.039C59.1956 220.299 60.4898 219.706 61.354 219.066C62.2303 218.418 63.3102 216.54 63.5884 216.039C63.9251 216.13 64.2598 216.223 64.5964 216.313C66.2126 216.741 67.8274 217.163 69.3979 217.62C69.9516 217.781 70.4899 217.959 71.0295 218.134C70.6592 218.084 70.3461 218.044 70.2984 218.043C68.8126 217.997 65.9122 218.708 65.3484 220.144C64.9425 221.178 65.6918 222.219 66.8087 222.475C67.9484 222.735 69.2433 222.141 70.1075 221.502C70.9441 220.883 71.9575 219.158 72.2908 218.565C72.8378 218.76 73.3855 218.954 73.9057 219.166C74.2571 219.318 74.6072 219.442 74.9513 219.613C75.2953 219.775 75.6367 219.935 75.9741 220.094C76.6118 220.423 77.2724 220.758 77.8852 221.092C78.314 221.322 78.7178 221.549 79.1251 221.775C78.5761 221.609 77.4941 221.304 77.4007 221.288C76.4304 221.121 74.7893 221.199 73.5623 221.663C73.4191 221.637 73.2746 221.624 73.1281 221.623C71.9777 221.62 70.9717 222.46 71.0886 223.554C71.2506 225.073 73.8721 226.415 75.3242 226.705C75.4103 226.722 76.3625 226.812 76.9639 226.86C76.6051 226.881 76.2577 226.898 75.8887 226.924C75.1596 226.971 74.4332 227.038 73.651 227.106C73.2746 227.152 72.895 227.198 72.5106 227.244C72.1289 227.283 71.7311 227.368 71.3373 227.429C70.4274 227.588 69.5135 227.789 68.5982 228.011C68.5518 227.425 68.3543 225.348 67.8274 224.447C67.3032 223.549 66.3631 222.54 65.2026 222.374C64.0656 222.21 62.9326 222.901 62.8674 223.999C62.7767 225.523 65.1455 227.213 66.5338 227.701C66.6205 227.731 67.6594 227.979 68.2326 228.105C67.6836 228.242 67.1346 228.376 66.5835 228.532C64.9936 228.98 63.3996 229.478 61.807 229.969C61.3191 230.12 60.8312 230.265 60.3433 230.412C60.3292 230.203 60.1525 227.73 59.5632 226.721C59.039 225.824 58.0989 224.814 56.9376 224.647C55.8013 224.484 54.6683 225.174 54.6031 226.272C54.5124 227.796 56.8812 229.486 58.2696 229.975C58.3744 230.011 59.8696 230.365 60.2546 230.439C59.1801 230.761 58.1063 231.073 57.0331 231.342C55.554 231.714 54.0796 232.004 52.6295 232.189C52.6227 232.092 52.4514 229.51 51.8472 228.476C51.3231 227.579 50.383 226.57 49.2217 226.403C48.0847 226.239 46.9524 226.93 46.8872 228.028C46.7965 229.552 49.1653 231.242 50.5536 231.73C50.6625 231.768 52.272 232.148 52.5683 232.198C52.4823 232.209 52.3943 232.229 52.3082 232.239C50.7566 232.417 49.2291 232.412 47.7991 232.343C46.9685 232.304 46.1769 232.225 45.4081 232.131C45.4296 231.647 45.5036 229.435 45.0715 228.449C44.6575 227.504 43.8444 226.406 42.7107 226.124C41.6006 225.847 40.3917 226.419 40.1948 227.504C39.9219 229.01 42.0744 230.929 43.3955 231.553C43.4674 231.587 44.2395 231.859 44.8047 232.048C44.4586 232.002 44.1004 231.959 43.7698 231.908C42.528 231.719 41.4037 231.476 40.4091 231.253C39.8447 231.122 39.3373 230.993 38.8649 230.869C38.6156 230.384 37.5867 228.441 36.7239 227.76C35.8819 227.097 34.6084 226.466 33.46 226.694C32.3351 226.918 31.5502 227.937 31.9211 228.982C32.4359 230.433 35.3107 231.227 36.7971 231.224C36.9255 231.223 38.9341 231.006 38.9213 230.981C38.9213 230.981 38.9092 230.957 38.9065 230.952C39.3588 231.081 39.8467 231.214 40.3816 231.349C41.3721 231.593 42.4944 231.859 43.7362 232.073C44.9774 232.291 46.3321 232.494 47.7803 232.591C49.2318 232.69 50.764 232.726 52.3479 232.576C52.366 232.574 52.3842 232.57 52.4023 232.568C51.9541 232.744 50.7176 233.274 50.6282 233.325C49.3615 234.037 47.3704 236.097 47.7642 237.58C48.0484 238.648 49.2997 239.137 50.385 238.786C51.4904 238.427 52.2121 237.277 52.5481 236.307Z" fill="#92E3A9"/>
<path d="M49.4547 209.323C49.4748 209.302 47.6241 208.554 47.5018 208.519C46.0819 208.115 43.0801 208.1 42.1225 209.348C41.433 210.247 41.8564 211.432 42.8597 211.948C43.8838 212.476 45.3037 212.216 46.3211 211.808C47.516 211.33 49.4527 209.324 49.4547 209.323Z" fill="#92E3A9"/>
<path d="M170.553 181.064C215.42 179.263 250.21 144.462 248.258 103.333C246.305 62.2035 208.349 30.3209 163.482 32.1211C118.614 33.9213 83.8241 68.7225 85.7767 109.852C87.7293 150.981 125.685 182.864 170.553 181.064Z" stroke="#263238" stroke-miterlimit="10" stroke-linecap="round" stroke-linejoin="round"/>
<path d="M150.708 175.573C155.031 176.437 159.464 176.961 163.964 177.123" stroke="#263238" stroke-miterlimit="10" stroke-linecap="round" stroke-linejoin="round"/>
<path d="M140.739 172.926C142.943 173.663 145.188 174.308 147.467 174.859" stroke="#263238" stroke-miterlimit="10" stroke-linecap="round" stroke-linejoin="round"/>
<path d="M92.9883 87.2946C89.5894 98.2119 89.0222 110.039 91.8957 121.901C97.5794 145.363 115.396 163.48 137.954 171.938" stroke="#263238" stroke-miterlimit="10" stroke-linecap="round" stroke-linejoin="round"/>
<path d="M103.338 66.9943C100.561 70.7482 98.178 74.7442 96.2285 78.9249" stroke="#263238" stroke-miterlimit="10" stroke-linecap="round" stroke-linejoin="round"/>
<path d="M156.02 73.4956L164.31 75.0701L167.136 77.7571L170.82 78.2758L171.992 81.4808L171.134 83.6491L168.621 84.7043L162.467 83.7822L162.299 83.0917L165.209 81.2301L163.2 77.8335L157.694 77.1417L154.764 74.8385L156.02 73.4956Z" stroke="#263238" stroke-miterlimit="10" stroke-linecap="round" stroke-linejoin="round"/>
<path d="M222.832 143.624L216.258 142.606L208.324 141.684L202.483 142.873L196.768 142.948L191.032 145.385L187.683 146.248L185.61 146.67L182.155 149.547L178.722 151.696L172.923 149.796L173.07 144.692L169.574 144.135L165.806 144.902L164.864 143.462L164.488 140.276L162.751 138.817L160.197 139.7L159.861 141.581L156.7 142.406L153.121 139.872L150.986 135.957L152.641 130.545L158.188 129.778L159.988 130.681L162.249 130.22L164.699 128.091L167.316 128.283L172.004 132.947L173.281 132.506L171.942 128.61L170.309 126.768L169.891 123.409L176.193 119.227L175.587 112.645L178.057 109.786L179.544 105.315L181.344 104.586L185.05 101.113L184.903 99.6934L181.93 100.48L181.031 99.2135L178.958 99.6355L175.923 100.978L176.886 98.4263L183.062 95.3567L184.192 93.4952L187.751 96.7581L189.823 97.9673L192.293 96.7397L190.619 94.7247L186.034 92.9396L180.383 89.1967L174.961 87.2194L170.272 87.4492L167.509 85.8371L164.327 85.7601L164.117 86.5276L164.954 91.6133L166.126 93.1872L165.769 99.0595L161.331 97.0631L161.31 94.5301L156.935 93.6085L154.779 92.0538L154.675 87.544L159.26 82.8045L158.632 78.5825L156.601 79.1769L154.906 77.8907L153.713 75.415L152.352 75.5105L152.268 78.4272L150.279 79.1948L147.873 73.3415L146.156 72.7847L143.268 72.2851L140.588 74.2809L145.151 76.7954L146.616 79.5785L138.703 76.2959L132.863 72.5912L131.356 68.0045L126.123 67.6201L122.899 70.6324C122.899 70.6324 121.266 72.0522 120.407 72.5894C119.549 73.1265 116.052 74.2008 116.052 74.2008L116.01 77.2907L111.718 78.3453L112.555 80.1686L119.778 79.7855L124.236 82.6838L125.701 88.7286L124.925 94.5048L126.683 100.128L123.458 109.665L125.382 122.503L128.834 129.412L132.622 134.44L135.532 134.21L133.921 131.639L131.911 129.872L130.049 126.265L131.661 125.574L135.804 131.255L139.028 136.398L140.116 140.888L144.659 144.132L152.11 147.146L162.493 147.57L166.136 149.547L169.066 151.85L172.918 153.059L177.314 153.251L181.418 152.235C181.418 152.235 181.648 154.001 181.857 154.864C182.066 155.728 180.139 159.201 180.139 159.201L178.904 163.077L181.332 166.569L185.853 167.28L193.033 171.618L195.922 172.116L196.55 174.707L197.171 175.847C211.627 170.578 223.746 161.749 232.557 150.749L232.352 149.477L235.389 139.979L232.563 138.923L222.832 143.624Z" stroke="#263238" stroke-miterlimit="10" stroke-linecap="round" stroke-linejoin="round"/>
<path d="M225.899 71.4129L223.032 68.5534L219.474 65.2904L217.465 60.2627L220.982 60.0902L220.752 58.3247L218.26 58.6506L220.123 57.365L222.091 55.6956L221.672 53.9684L218.742 51.6651L217.358 48.0461C198.847 34.6956 174.193 28.7851 149.406 33.8313C138.137 36.1253 127.943 40.4632 119.174 46.3195L124.202 48.2562L122.318 51.9017L118.905 53.3216L119.658 58.0617L118.276 58.8865L116.853 61.17L117.794 64.2408L121.081 63.934L120.473 67.1384L123.677 66.4861L127.592 58.9832L127.488 56.1047L132.68 54.6854L133.497 52.344L138.836 50.7134L138.69 47.6624L142.605 46.6842C142.605 46.6842 145.097 44.7271 145.662 44.6119C146.227 44.4968 149.074 44.8232 149.074 44.8232L152.403 46.3207L156.359 45.515L159.291 42.9247L163.708 42.3882C163.708 42.3882 165.006 42.849 165.948 42.6574C166.89 42.4658 169.423 40.6812 169.423 40.6812L175.64 42.6777L178.278 43.7717L178.906 46.362L181.815 46.1322L182.381 44.3865L185.081 44.9243L185.227 46.3441L179.91 48.8765L184.033 52.0243L191.653 54.0977L195.316 56.9769L199.545 56.4786L200.068 54.5597L201.492 53.9074L195.757 51.4502L192.658 51.7181L194.94 50.5286L191.968 48.0529L195.129 47.2281L199.777 48.457L201.723 52.4105L204.34 54.2339L207.249 58.8976L212.064 60.8171L213.444 66.5169L218.406 68.2257L218.678 70.1636L218.656 72.5241L220.54 75.4027L221.293 76.8805L224.622 76.7468L225.417 73.5036L225.899 71.4129Z" stroke="#263238" stroke-miterlimit="10" stroke-linecap="round" stroke-linejoin="round"/>
<path d="M224.133 53.515L224.373 54.5068L224.101 57.4617L225.252 59.765L227.492 60.0341L228.286 63.3156L225.816 62.9121L227.51 72.3535L226.17 76.6138L228.848 81.1426L231.8 82.7165L234.059 92.0434L238.266 98.7984L242.243 103.789L246.827 103.943L247.498 100.181L248.005 99.6158C247.688 96.5697 247.166 93.5076 246.423 90.4436C242.894 75.874 234.934 63.2577 224.133 53.515Z" stroke="#263238" stroke-miterlimit="10" stroke-linecap="round" stroke-linejoin="round"/>
<path d="M180.347 61.2938L166.698 58.8169L161.276 60.1019L160.753 63.6519L157.947 61.8667L154.012 63.5743L155.016 69.3505L158.951 70.9053L160.605 67.1249L164.059 69.1404L171.029 72.6147L173.373 77.3936L179.653 82.0955L187.274 79.2761L186.458 76.7234L184.051 74.1325L182 67.3004L183.173 63.9808L180.347 61.2938Z" stroke="#263238" stroke-miterlimit="10" stroke-linecap="round" stroke-linejoin="round"/>
<path d="M191.443 63.0223L188.449 62.9071L186.46 65.3058L188.993 70.0459L191.442 69.547L191.443 63.0223Z" stroke="#263238" stroke-miterlimit="10" stroke-linecap="round" stroke-linejoin="round"/>
<path d="M209.76 62.7371L202.601 60.9322L200.78 59.1285L199.397 59.9534L201.554 63.1387L203.772 67.3996L206.849 67.8603L207.247 67.0546L204.924 64.8087L210.241 65.5386L209.76 62.7371Z" stroke="#263238" stroke-miterlimit="10" stroke-linecap="round" stroke-linejoin="round"/>
<path d="M169.848 136.287L169.262 137.131L175.291 137.534L178.138 139.492L181.801 139.109L182.659 136.94L178.158 137.132L169.848 136.287Z" stroke="#263238" stroke-miterlimit="10" stroke-linecap="round" stroke-linejoin="round"/>
<path d="M187.411 136.154L183.706 137.996L184.606 139.263L189.505 138.265L190.112 136.692L188.458 137.21L187.411 136.154Z" stroke="#263238" stroke-miterlimit="10" stroke-linecap="round" stroke-linejoin="round"/>
<path d="M196.168 268.999L194.531 276.689C194.531 276.689 194.326 278.94 195.35 279.69C196.373 280.441 214.175 280.441 214.175 279.69C214.175 278.94 214.584 276.314 213.97 274.814C213.356 273.313 211.924 268.249 211.924 268.249L196.168 268.999Z" fill="#61BA7A" stroke="#263238" stroke-miterlimit="10"/>
<path d="M194.682 278.565C194.803 279.015 195.006 279.438 195.35 279.69C196.373 280.441 214.175 280.441 214.175 279.69C214.175 279.462 214.213 279.057 214.248 278.565H194.682Z" fill="#61BA7A" stroke="#263238" stroke-miterlimit="10"/>
<path d="M201.489 268.812C201.489 268.812 199.648 272.375 201.284 273.126C202.921 273.876 207.423 274.251 208.241 272.938C209.06 271.625 207.219 268.812 207.219 268.812H201.489Z" fill="#61BA7A" stroke="#263238" stroke-miterlimit="10"/>
<path d="M165.476 267.311L161.18 271.625C161.18 271.625 153.813 277.815 154.222 278.565C154.632 279.315 155.041 280.441 155.041 280.441H178.981C178.981 280.441 180.413 279.315 180.413 278.753C180.413 278.19 180.004 270.875 180.004 270.875L165.476 267.311Z" fill="#61BA7A" stroke="#263238" stroke-miterlimit="10"/>
<path d="M154.327 278.768C154.699 279.503 155.041 280.441 155.041 280.441H178.981C178.981 280.441 180.173 279.499 180.373 278.908L154.327 278.768Z" fill="#61BA7A" stroke="#263238" stroke-miterlimit="10"/>
<path d="M166.295 268.812C166.295 268.812 164.453 270.5 163.021 271.813C161.589 273.126 162.611 274.626 165.476 274.064C168.341 273.501 171.206 269.75 171.206 269.75L166.295 268.812Z" stroke="#263238" stroke-miterlimit="10"/>
<path d="M170.512 189.025C170.512 189.025 166.089 217.961 166.089 221.278C166.089 224.595 169.708 263.668 169.708 263.668L166.491 265.696L166.692 269.382C166.692 269.382 179.962 271.409 180.967 271.409C181.972 271.409 182.575 271.041 182.575 271.041L182.173 265.696C182.173 265.696 183.58 259.613 183.58 258.139C183.58 256.665 181.972 222.568 181.972 222.568L187.4 202.11L189.21 201.004L189.411 222.937L197.252 262.931L196.046 267.539L197.856 270.303C197.856 270.303 202.48 269.935 207.104 269.935C211.728 269.935 213.941 268.46 213.941 268.46L213.136 259.982L206.099 220.909C206.099 220.909 210.522 188.656 210.522 187.735C210.522 186.813 209.517 185.523 209.517 185.523L170.512 189.025Z" fill="#263238" stroke="#263238" stroke-miterlimit="10"/>
<path d="M168.05 130.321L168.711 133.045C168.711 133.045 158.145 139.552 157.155 141.368C156.164 143.184 164.253 162.402 167.059 170.119C169.866 177.836 170.361 181.771 170.361 181.771L169.536 190.85C169.536 190.85 175.974 193.271 185.549 193.422C195.124 193.574 202.057 191.455 204.698 190.85C207.34 190.244 211.137 187.823 211.137 187.823C211.137 187.823 210.807 185.705 208.33 176.323C205.854 166.94 204.863 159.677 204.863 159.677C204.863 159.677 200.571 139.703 198.26 136.827C195.949 133.952 194.629 130.471 191.987 129.866C189.346 129.261 179.772 129.564 179.772 129.564L176.14 124.419L168.05 130.321Z" fill="#69994D" stroke="#263238" stroke-miterlimit="10"/>
<path d="M176.634 141.216C181.577 139.922 181.905 133.247 181.686 129.519C180.533 129.54 179.771 129.564 179.771 129.564L176.14 124.419L168.051 130.32L168.711 133.044C168.711 133.044 167.671 133.685 166.213 134.62C167.451 136.968 171.092 142.668 176.634 141.216Z" fill="#FFBF9F" stroke="#263238" stroke-miterlimit="10"/>
<path d="M168.711 133.045C168.711 133.045 170.256 134.829 172.592 134.186C174.929 133.544 178.55 123.956 178.55 123.956L168.711 133.045Z" fill="#263238" stroke="#263238" stroke-miterlimit="10"/>
<path d="M158.239 140.223C158.239 140.223 156.385 140.532 155.543 145.783C154.701 151.033 152.511 167.711 153.353 170.182C154.195 172.652 158.576 173.116 160.26 171.417C161.945 169.718 162.619 156.129 162.619 156.129L161.945 152.732" fill="#69994D"/>
<path d="M158.239 140.223C158.239 140.223 156.385 140.532 155.543 145.783C154.701 151.033 152.511 167.711 153.353 170.182C154.195 172.652 158.576 173.116 160.26 171.417C161.945 169.718 162.619 156.129 162.619 156.129L161.945 152.732" stroke="#263238" stroke-miterlimit="10"/>
<path d="M154.031 157.089C153.366 162.907 152.88 168.792 153.353 170.182C154.195 172.652 158.576 173.116 160.26 171.417C161.303 170.366 161.958 164.758 162.307 160.638L154.031 157.089Z" fill="#FFBF9F" stroke="#263238" stroke-miterlimit="10"/>
<path d="M196.144 145.01C196.144 145.01 206.42 157.673 209.115 159.217C211.811 160.762 218.381 157.982 217.37 154.121C216.359 150.261 197.996 132.965 195.806 130.803C193.616 128.64 186.372 129.567 186.372 129.567" fill="#69994D"/>
<path d="M196.144 145.01C196.144 145.01 206.42 157.673 209.115 159.217C211.811 160.762 218.381 157.982 217.37 154.121C216.359 150.261 197.996 132.965 195.806 130.803C193.616 128.64 186.372 129.567 186.372 129.567" stroke="#263238" stroke-miterlimit="10"/>
<path d="M208.157 142.978L200.981 150.794C204.036 154.354 207.669 158.388 209.116 159.218C211.811 160.762 218.382 157.982 217.371 154.121C216.903 152.337 212.728 147.682 208.157 142.978Z" fill="#FFBF9F" stroke="#263238" stroke-miterlimit="10"/>
<path d="M182.793 153.54L177.418 156.115L179.525 159.811L184.9 157.236L182.793 153.54Z" fill="#61BA7A" stroke="#263238" stroke-miterlimit="10"/>
<path d="M194.797 158.909C194.797 158.909 191.091 155.82 187.384 156.13C183.678 156.438 177.108 158.909 176.266 161.689C175.424 164.468 178.961 180.683 184.184 182.228C189.406 183.772 199.009 179.448 200.525 174.969C202.041 170.491 199.513 163.387 194.797 158.909ZM198.671 172.499C197.829 174.661 188.732 163.85 188.9 160.762C189.069 157.673 191.427 159.835 191.427 159.835C195.807 164.004 199.513 170.336 198.671 172.499Z" fill="#92E3A9" stroke="#263238" stroke-miterlimit="10"/>
<path d="M189.336 168.202C190.727 172.316 189.584 176.295 186.785 177.091C183.985 177.885 180.589 175.195 179.198 171.081C177.808 166.967 178.95 162.987 181.75 162.192C184.549 161.397 187.946 164.088 189.336 168.202Z" fill="#61BA7A" stroke="#263238" stroke-miterlimit="10"/>
<path d="M211.98 152.732C211.98 152.732 207.6 155.511 207.094 156.283C206.589 157.055 204.568 157.828 204.568 157.828C204.568 157.828 201.872 157.21 199.682 156.283C197.492 155.357 196.987 154.585 196.313 155.048C195.639 155.511 190.922 160.453 190.922 161.225C190.922 161.998 195.302 166.167 195.807 166.476C196.313 166.785 199.682 165.549 200.693 165.086C201.703 164.623 203.051 164.16 203.051 164.16C203.051 164.16 209.453 164.468 212.991 163.696C216.528 162.924 220.067 160.916 220.067 157.828C220.067 154.74 214.844 151.033 214.844 151.033" fill="#FFBF9F"/>
<path d="M211.98 152.732C211.98 152.732 207.6 155.511 207.094 156.283C206.589 157.055 204.568 157.828 204.568 157.828C204.568 157.828 201.872 157.21 199.682 156.283C197.492 155.357 196.987 154.585 196.313 155.048C195.639 155.511 190.922 160.453 190.922 161.225C190.922 161.998 195.302 166.167 195.807 166.476C196.313 166.785 199.682 165.549 200.693 165.086C201.703 164.623 203.051 164.16 203.051 164.16C203.051 164.16 209.453 164.468 212.991 163.696C216.528 162.924 220.067 160.916 220.067 157.828C220.067 154.74 214.844 151.033 214.844 151.033" stroke="#263238" stroke-miterlimit="10"/>
<path d="M192.27 162.615L197.155 157.519" stroke="#263238" stroke-miterlimit="10"/>
<path d="M193.786 164.468L198.503 159.526" stroke="#263238" stroke-miterlimit="10"/>
<path d="M195.302 165.549L200.019 161.688" stroke="#263238" stroke-miterlimit="10"/>
<path d="M154.616 192.627L154.467 187.902C154.436 186.948 155.256 186.151 156.297 186.124L172.82 185.683C173.814 185.656 174.643 186.373 174.672 187.284L174.828 192.167C174.856 193.078 174.074 193.838 173.08 193.864L156.557 194.305C155.515 194.332 154.647 193.582 154.616 192.627Z" fill="#61BA7A" stroke="#263238" stroke-miterlimit="10"/>
<path d="M177.483 191.047L177.395 188.268L174.7 188.34L174.788 191.119L177.483 191.047Z" fill="#61BA7A" stroke="#263238" stroke-miterlimit="10"/>
<path d="M160.955 169.255C160.955 169.255 162.471 171.082 162.081 177.258C162.025 178.156 162.286 180.035 162.286 180.035C162.286 180.035 164.463 181.618 166.599 182.645C168.735 183.671 169.711 183.569 169.721 184.34C169.731 185.112 168.331 191.553 167.664 192.023C166.996 192.494 160.72 191.851 160.145 191.673C159.569 191.493 158.585 188.292 158.369 187.275C158.154 186.258 158.119 182.861 158.119 182.861C158.119 182.861 155.286 179.819 153.798 176.777C152.309 173.735 151.074 169.965 153.745 168.082C154.577 167.496 155.64 167.401 156.71 167.548" fill="#FFBF9F"/>
<path d="M160.955 169.255C160.955 169.255 162.471 171.082 162.081 177.258C162.025 178.156 162.286 180.035 162.286 180.035C162.286 180.035 164.463 181.618 166.599 182.645C168.735 183.671 169.711 183.569 169.721 184.34C169.731 185.112 168.331 191.553 167.664 192.023C166.996 192.494 160.72 191.851 160.145 191.673C159.569 191.493 158.585 188.292 158.369 187.275C158.154 186.258 158.119 182.861 158.119 182.861C158.119 182.861 155.286 179.819 153.798 176.777C152.309 173.735 151.074 169.965 153.745 168.082C154.577 167.496 155.64 167.401 156.71 167.548" stroke="#263238" stroke-miterlimit="10"/>
<path d="M165.641 191.89L167.071 185.234" stroke="#263238" stroke-miterlimit="10"/>
<path d="M163.113 191.918L164.512 185.478" stroke="#263238" stroke-miterlimit="10"/>
<path d="M161.254 191.475L161.719 185.694" stroke="#263238" stroke-miterlimit="10"/>
<path d="M181.049 108.123C181.049 108.123 182.867 107.082 183.095 110.415C183.322 113.748 179.686 117.498 179.686 117.498C179.686 117.498 179.459 120.831 178.549 123.956C177.64 127.081 173.437 132.693 170.255 132.901C167.074 133.109 159.915 127.914 158.551 125.206C157.188 122.498 157.869 117.707 155.369 114.582C152.869 111.457 158.096 107.082 162.187 104.79C166.277 102.499 173.095 101.249 174.913 101.874C176.731 102.499 181.049 108.123 181.049 108.123Z" fill="#FFBF9F" stroke="#432D29" stroke-miterlimit="10"/>
<path d="M163.877 120.907C163.877 120.907 163.322 121.67 163.877 122.816C164.432 123.961 166.374 123.579 166.791 122.689" stroke="#432D29" stroke-miterlimit="10"/>
<path d="M164.432 125.232C164.432 125.232 169.705 125.359 171.787 121.797" stroke="#432D29" stroke-miterlimit="10"/>
<path d="M169.525 117.254C169.841 118.045 169.806 118.785 169.446 118.906C169.086 119.027 168.538 118.483 168.222 117.691C167.905 116.9 167.941 116.16 168.301 116.039C168.661 115.918 169.209 116.462 169.525 117.254Z" fill="#432D29"/>
<path d="M162.028 118.932C162.329 119.729 162.281 120.468 161.919 120.583C161.557 120.698 161.018 120.147 160.717 119.35C160.415 118.554 160.463 117.815 160.825 117.699C161.188 117.584 161.726 118.136 162.028 118.932Z" fill="#432D29"/>
<path d="M158.743 116.709C158.743 116.709 158.743 115.183 161.519 115.31" stroke="#432D29" stroke-miterlimit="10"/>
<path d="M166.236 114.546C166.236 114.546 167.902 113.02 169.706 114.292" stroke="#432D29" stroke-miterlimit="10"/>
<path d="M152.415 104.374C152.415 104.374 145.142 102.707 144.688 105.832C144.234 108.957 149.688 110.207 149.688 110.207C149.688 110.207 142.87 109.998 146.961 113.332C151.051 116.665 162.869 113.748 167.187 111.665C171.504 109.582 174.004 105.832 174.004 105.832C174.004 105.832 172.186 108.54 174.685 110.416C177.185 112.291 177.185 112.291 177.185 112.291L177.412 114.999L179.458 114.79L178.777 110.833C178.777 110.833 180.367 108.125 181.049 108.125C181.731 108.125 184.231 107.291 180.367 100.208C176.504 93.1256 169.004 92.7086 162.187 95.2089C155.369 97.7074 152.415 104.374 152.415 104.374Z" fill="#432D29" stroke="#432D29" stroke-miterlimit="10"/>
<path d="M214.461 280.428C213.487 280.428 212.697 279.704 212.697 278.812V272.561C212.697 271.668 213.487 270.945 214.461 270.945C215.434 270.945 216.224 271.668 216.224 272.561V278.812C216.224 279.704 215.434 280.428 214.461 280.428Z" fill="#263238" stroke="#263238" stroke-miterlimit="10"/>
<path d="M257.371 280.428C256.397 280.428 255.607 279.704 255.607 278.812V272.561C255.607 271.668 256.397 270.945 257.371 270.945C258.344 270.945 259.134 271.668 259.134 272.561V278.812C259.134 279.704 258.344 280.428 257.371 280.428Z" fill="#263238" stroke="#263238" stroke-miterlimit="10"/>
<path d="M216.695 273.638V277.122C216.695 278.868 218.239 280.283 220.143 280.283H252.042C253.947 280.283 255.49 278.868 255.49 277.122V273.638C255.49 272.27 256.701 271.16 258.195 271.16H259.127C260.262 271.16 261.207 270.361 261.299 269.323L267.462 199.577H205.656L211.819 269.323C211.911 270.361 212.856 271.16 213.992 271.16C215.484 271.16 216.695 272.27 216.695 273.638Z" fill="#81888C" stroke="#263238" stroke-miterlimit="10"/>
<path d="M266.071 197.233H208.23V199.604H266.071V197.233Z" fill="#81888C" stroke="#263238" stroke-miterlimit="10"/>
<path d="M269.454 199.063H203.862V204.713H269.454V199.063Z" fill="#81888C" stroke="#263238" stroke-miterlimit="10"/>
<path d="M242.035 213.095C242.63 213.277 243.234 213.464 243.684 213.879C244.033 214.202 244.364 214.56 244.614 214.951C245.167 215.811 245.663 216.701 246.201 217.611C246.939 217.26 247.666 216.915 248.392 216.57C248.404 216.582 248.417 216.594 248.429 216.605C248.079 217.136 247.731 217.666 247.381 218.196C246.517 219.502 245.651 220.807 244.792 222.117C244.691 222.271 244.588 222.346 244.376 222.344C242.142 222.316 239.908 222.3 237.675 222.281C237.628 222.28 237.581 222.273 237.453 222.261C238.146 221.847 238.773 221.474 239.42 221.088C239.096 220.54 238.783 220.009 238.467 219.481C237.771 218.318 237.097 217.145 236.372 215.999C235.564 214.721 234.496 213.69 232.921 213.145C233.172 213.145 233.423 213.145 233.674 213.145C233.936 213.145 234.199 213.151 234.461 213.143C234.698 213.135 234.933 213.111 235.169 213.095C237.457 213.095 239.746 213.095 242.035 213.095Z" fill="white"/>
<path d="M220.87 228.223C221.613 226.859 222.357 225.495 223.115 224.105C222.46 223.635 221.786 223.151 221.054 222.624C221.202 222.61 221.286 222.595 221.37 222.595C223.648 222.579 225.924 222.568 228.202 222.547C228.421 222.545 228.532 222.61 228.636 222.788C229.754 224.703 230.884 226.612 232.01 228.522C232.043 228.579 232.068 228.64 232.126 228.761C231.398 228.402 230.732 228.074 230.034 227.73C229.638 228.322 229.251 228.901 228.864 229.481C228.372 230.219 227.874 230.954 227.389 231.696C227.286 231.853 227.175 231.931 226.964 231.914C226.006 231.833 225.027 231.847 224.09 231.671C222.508 231.374 221.423 230.485 220.918 229.049C220.908 229.023 220.887 228.999 220.871 228.974C220.87 228.724 220.87 228.473 220.87 228.223Z" fill="white"/>
<path d="M252.364 229.089C251.78 230.827 250.212 231.361 248.51 231.667C247.714 231.81 246.886 231.805 246.07 231.843C245.947 231.849 245.756 231.763 245.699 231.667C244.65 229.914 243.618 228.153 242.583 226.394C242.559 226.353 242.542 226.308 242.509 226.238C244.752 224.983 246.986 223.733 249.256 222.463C249.446 222.807 249.625 223.129 249.803 223.451C250.541 224.778 251.281 226.105 252.015 227.434C252.146 227.671 252.248 227.921 252.364 228.166C252.364 228.473 252.364 228.781 252.364 229.089Z" fill="white"/>
<path d="M240.992 230.253C241.025 230.846 241.07 231.439 241.087 232.032C241.094 232.269 241.151 232.368 241.44 232.366C243.235 232.355 245.029 232.373 246.822 232.356C247.949 232.345 249.072 232.247 250.102 231.787C250.652 231.542 251.155 231.209 251.662 230.925C251.527 231.163 251.372 231.444 251.209 231.723C250.023 233.756 248.839 235.79 247.646 237.82C246.951 239.003 245.836 239.569 244.392 239.594C243.303 239.612 242.213 239.597 241.038 239.597C241.038 240.364 241.038 241.115 241.038 241.867C240.999 241.872 240.96 241.877 240.92 241.883C240.645 241.425 240.369 240.967 240.096 240.509C239.246 239.085 238.394 237.662 237.554 236.233C237.493 236.128 237.471 235.946 237.529 235.849C238.625 234.012 239.736 232.181 240.844 230.349C240.868 230.309 240.899 230.272 240.927 230.234C240.948 230.24 240.97 230.247 240.992 230.253Z" fill="white"/>
<path d="M221.442 230.828C222.71 231.936 224.218 232.313 225.923 232.299C228.808 232.276 231.694 232.317 234.579 232.334C234.725 232.334 234.871 232.357 235.037 232.371C235.037 234.78 235.037 237.178 235.037 239.594C234.971 239.601 234.912 239.614 234.852 239.614C232.953 239.609 231.053 239.633 229.154 239.586C228.051 239.56 226.985 239.334 226.142 238.601C226 238.478 225.874 238.329 225.78 238.172C224.361 235.784 222.949 233.393 221.536 231.001C221.502 230.945 221.473 230.886 221.442 230.828Z" fill="white"/>
<path d="M233.034 222.917C230.762 221.684 228.517 220.465 226.238 219.228C226.451 218.924 226.651 218.634 226.854 218.347C227.808 217 228.759 215.652 229.718 214.309C230.256 213.555 231.383 213.213 232.426 213.472C233.165 213.655 233.776 214.04 234.328 214.506C235.283 215.31 235.998 216.278 236.573 217.336C236.619 217.421 236.629 217.568 236.578 217.644C235.44 219.36 234.29 221.071 233.142 222.782C233.116 222.822 233.082 222.858 233.034 222.917Z" fill="white"/>
<path d="M230.686 247.914V248.429H229.993V247.88C229.993 247.339 229.759 247.013 229.225 247.013C228.701 247.013 228.457 247.339 228.457 247.88V251.054C228.457 251.595 228.701 251.921 229.225 251.921C229.758 251.921 229.993 251.595 229.993 251.054V249.853H229.318V249.253H230.685V251.02C230.685 251.93 230.217 252.53 229.206 252.53C228.205 252.53 227.736 251.93 227.736 251.02V247.914C227.736 247.004 228.205 246.403 229.206 246.403C230.217 246.404 230.686 247.005 230.686 247.914Z" fill="white"/>
<path d="M231.379 252.471V246.465H232.109V251.861H233.982V252.471H231.379Z" fill="white"/>
<path d="M235.273 251.26L235.021 252.47H234.347L235.601 246.464H236.658L237.912 252.47H237.183L236.93 251.26H235.273ZM235.367 250.686H236.826L236.086 247.219L235.367 250.686Z" fill="white"/>
<path d="M241.321 247.906V248.069H240.628V247.872C240.628 247.331 240.404 247.014 239.88 247.014C239.356 247.014 239.13 247.331 239.13 247.864C239.13 249.211 241.331 249.34 241.331 251.029C241.331 251.939 240.853 252.531 239.851 252.531C238.85 252.531 238.382 251.939 238.382 251.029V250.687H239.065V251.064C239.065 251.605 239.309 251.922 239.833 251.922C240.357 251.922 240.6 251.605 240.6 251.064C240.6 249.726 238.41 249.596 238.41 247.907C238.41 246.98 238.878 246.405 239.861 246.405C240.853 246.404 241.321 246.996 241.321 247.906Z" fill="white"/>
<path d="M244.804 247.906V248.069H244.111V247.872C244.111 247.331 243.886 247.014 243.362 247.014C242.838 247.014 242.613 247.331 242.613 247.864C242.613 249.211 244.813 249.34 244.813 251.029C244.813 251.939 244.335 252.531 243.334 252.531C242.333 252.531 241.864 251.939 241.864 251.029V250.687H242.548V251.064C242.548 251.605 242.791 251.922 243.315 251.922C243.839 251.922 244.083 251.605 244.083 251.064C244.083 249.726 241.892 249.596 241.892 247.907C241.892 246.98 242.361 246.405 243.343 246.405C244.335 246.404 244.804 246.996 244.804 247.906Z" fill="white"/>
<path d="M144.907 280.428C143.933 280.428 143.144 279.704 143.144 278.812V272.561C143.144 271.668 143.933 270.945 144.907 270.945C145.881 270.945 146.67 271.668 146.67 272.561V278.812C146.67 279.704 145.881 280.428 144.907 280.428Z" fill="#263238" stroke="#263238" stroke-miterlimit="10"/>
<path d="M187.817 280.428C186.843 280.428 186.054 279.704 186.054 278.812V272.561C186.054 271.668 186.843 270.945 187.817 270.945C188.791 270.945 189.58 271.668 189.58 272.561V278.812C189.581 279.704 188.791 280.428 187.817 280.428Z" fill="#263238" stroke="#263238" stroke-miterlimit="10"/>
<path d="M147.14 273.638V277.122C147.14 278.868 148.684 280.283 150.588 280.283H182.487C184.391 280.283 185.935 278.868 185.935 277.122V273.638C185.935 272.27 187.145 271.16 188.639 271.16H189.571C190.707 271.16 191.651 270.361 191.744 269.323L197.906 199.577H136.101L142.263 269.323C142.355 270.361 143.3 271.16 144.436 271.16C145.93 271.16 147.14 272.27 147.14 273.638Z" fill="#164C3E" stroke="#263238" stroke-miterlimit="10"/>
<path d="M196.516 197.233H138.676V199.604H196.516V197.233Z" fill="#164C3E" stroke="#263238" stroke-miterlimit="10"/>
<path d="M199.901 199.063H134.309V204.713H199.901V199.063Z" fill="#164C3E" stroke="#263238" stroke-miterlimit="10"/>
<path d="M172.48 213.095C173.076 213.277 173.68 213.464 174.129 213.879C174.479 214.202 174.809 214.56 175.06 214.951C175.612 215.811 176.108 216.701 176.647 217.611C177.385 217.26 178.112 216.915 178.838 216.57C178.85 216.582 178.863 216.594 178.875 216.605C178.525 217.136 178.177 217.666 177.827 218.196C176.964 219.502 176.097 220.807 175.239 222.117C175.137 222.271 175.034 222.346 174.822 222.344C172.588 222.316 170.355 222.3 168.121 222.281C168.074 222.28 168.027 222.273 167.899 222.261C168.592 221.847 169.219 221.474 169.867 221.088C169.542 220.54 169.23 220.009 168.913 219.481C168.218 218.318 167.543 217.145 166.818 215.999C166.01 214.721 164.942 213.69 163.367 213.145C163.619 213.145 163.869 213.145 164.121 213.145C164.383 213.145 164.645 213.151 164.907 213.143C165.144 213.135 165.379 213.111 165.616 213.095C167.903 213.095 170.191 213.095 172.48 213.095Z" fill="white"/>
<path d="M151.315 228.223C152.059 226.859 152.803 225.495 153.561 224.105C152.905 223.635 152.232 223.151 151.499 222.624C151.647 222.61 151.731 222.595 151.815 222.595C154.093 222.579 156.37 222.568 158.647 222.547C158.866 222.545 158.977 222.61 159.081 222.788C160.199 224.703 161.33 226.612 162.455 228.522C162.488 228.579 162.513 228.64 162.571 228.761C161.844 228.402 161.177 228.074 160.479 227.73C160.084 228.322 159.697 228.901 159.31 229.481C158.817 230.219 158.32 230.954 157.835 231.696C157.732 231.853 157.62 231.931 157.41 231.914C156.451 231.833 155.472 231.847 154.536 231.671C152.954 231.374 151.868 230.485 151.363 229.049C151.354 229.023 151.332 228.999 151.317 228.974C151.315 228.724 151.315 228.473 151.315 228.223Z" fill="white"/>
<path d="M182.811 229.089C182.227 230.827 180.658 231.361 178.956 231.667C178.16 231.81 177.332 231.805 176.517 231.843C176.394 231.849 176.202 231.763 176.145 231.667C175.097 229.914 174.065 228.153 173.03 226.394C173.005 226.353 172.989 226.308 172.955 226.238C175.198 224.983 177.432 223.733 179.702 222.463C179.892 222.807 180.071 223.129 180.25 223.451C180.988 224.778 181.727 226.105 182.461 227.434C182.592 227.671 182.695 227.921 182.811 228.166C182.811 228.473 182.811 228.781 182.811 229.089Z" fill="white"/>
<path d="M171.437 230.253C171.47 230.846 171.515 231.439 171.532 232.032C171.539 232.269 171.596 232.368 171.886 232.366C173.68 232.355 175.474 232.373 177.268 232.356C178.394 232.345 179.518 232.247 180.547 231.787C181.097 231.542 181.6 231.209 182.107 230.925C181.972 231.163 181.817 231.444 181.655 231.723C180.469 233.756 179.284 235.79 178.092 237.82C177.396 239.003 176.281 239.569 174.837 239.594C173.748 239.612 172.658 239.597 171.483 239.597C171.483 240.364 171.483 241.115 171.483 241.867C171.444 241.872 171.405 241.877 171.366 241.883C171.091 241.425 170.815 240.967 170.541 240.509C169.691 239.085 168.839 237.662 168 236.233C167.938 236.128 167.916 235.946 167.974 235.849C169.07 234.012 170.181 232.181 171.289 230.349C171.313 230.309 171.344 230.272 171.372 230.234C171.392 230.24 171.415 230.247 171.437 230.253Z" fill="white"/>
<path d="M151.888 230.828C153.156 231.936 154.664 232.313 156.369 232.299C159.253 232.276 162.139 232.317 165.025 232.334C165.17 232.334 165.316 232.357 165.482 232.371C165.482 234.78 165.482 237.178 165.482 239.594C165.417 239.601 165.357 239.614 165.297 239.614C163.398 239.609 161.498 239.633 159.6 239.586C158.497 239.56 157.43 239.334 156.587 238.601C156.445 238.478 156.319 238.329 156.225 238.172C154.807 235.784 153.394 233.393 151.981 231.001C151.947 230.945 151.919 230.886 151.888 230.828Z" fill="white"/>
<path d="M163.479 222.917C161.207 221.684 158.962 220.465 156.684 219.228C156.896 218.924 157.096 218.634 157.3 218.347C158.253 217 159.204 215.652 160.163 214.309C160.701 213.555 161.828 213.213 162.871 213.472C163.61 213.655 164.221 214.04 164.774 214.506C165.729 215.31 166.444 216.278 167.018 217.336C167.064 217.421 167.074 217.568 167.024 217.644C165.885 219.36 164.736 221.071 163.588 222.782C163.562 222.822 163.527 222.858 163.479 222.917Z" fill="white"/>
<path d="M158.192 246.464C159.221 246.464 159.661 247.022 159.661 247.931V248.653C159.661 249.605 159.175 250.103 158.136 250.103H157.49V252.471H156.76V246.465H158.192V246.464ZM158.135 249.502C158.678 249.502 158.94 249.27 158.94 248.695V247.896C158.94 247.347 158.725 247.073 158.191 247.073H157.49V249.501H158.135V249.502Z" fill="white"/>
<path d="M160.232 252.471V246.465H160.963V251.861H162.835V252.471H160.232Z" fill="white"/>
<path d="M164.128 251.26L163.875 252.47H163.201L164.455 246.464H165.513L166.767 252.47H166.037L165.784 251.26H164.128ZM164.221 250.686H165.682L164.942 247.219L164.221 250.686Z" fill="white"/>
<path d="M170.176 247.906V248.069H169.483V247.872C169.483 247.331 169.258 247.014 168.734 247.014C168.21 247.014 167.985 247.331 167.985 247.864C167.985 249.211 170.185 249.34 170.185 251.029C170.185 251.939 169.708 252.531 168.706 252.531C167.704 252.531 167.236 251.939 167.236 251.029V250.687H167.92V251.064C167.92 251.605 168.163 251.922 168.687 251.922C169.211 251.922 169.455 251.605 169.455 251.064C169.455 249.726 167.265 249.596 167.265 247.907C167.265 246.98 167.733 246.405 168.715 246.405C169.707 246.404 170.176 246.996 170.176 247.906Z" fill="white"/>
<path d="M171.767 252.471V247.074H170.56V246.465H173.696V247.074H172.488V252.471H171.767Z" fill="white"/>
<path d="M174.923 246.464V252.47H174.192V246.464H174.923Z" fill="white"/>
<path d="M178.564 247.914V248.455H177.871V247.88C177.871 247.339 177.637 247.013 177.104 247.013C176.58 247.013 176.336 247.339 176.336 247.88V251.054C176.336 251.595 176.58 251.921 177.104 251.921C177.637 251.921 177.871 251.595 177.871 251.054V250.273H178.564V251.02C178.564 251.93 178.096 252.53 177.085 252.53C176.084 252.53 175.615 251.93 175.615 251.02V247.914C175.615 247.004 176.084 246.403 177.085 246.403C178.096 246.404 178.564 247.005 178.564 247.914Z" fill="white"/>
<path d="M74.0338 280.428C73.0601 280.428 72.2705 279.704 72.2705 278.812V272.561C72.2705 271.668 73.0601 270.945 74.0338 270.945C75.0076 270.945 75.7972 271.668 75.7972 272.561V278.812C75.7972 279.704 75.0076 280.428 74.0338 280.428Z" fill="#263238" stroke="#263238" stroke-miterlimit="10"/>
<path d="M116.943 280.428C115.969 280.428 115.18 279.704 115.18 278.812V272.561C115.18 271.668 115.969 270.945 116.943 270.945C117.917 270.945 118.706 271.668 118.706 272.561V278.812C118.706 279.704 117.917 280.428 116.943 280.428Z" fill="#263238" stroke="#263238" stroke-miterlimit="10"/>
<path d="M76.2672 273.638V277.122C76.2672 278.868 77.8107 280.283 79.7145 280.283H111.614C113.518 280.283 115.062 278.868 115.062 277.122V273.638C115.062 272.27 116.272 271.16 117.766 271.16H118.698C119.834 271.16 120.778 270.361 120.87 269.323L127.033 199.577H65.2275L71.3904 269.323C71.4818 270.361 72.4273 271.16 73.563 271.16C75.0562 271.16 76.2672 272.27 76.2672 273.638Z" fill="#263238" stroke="#263238" stroke-miterlimit="10"/>
<path d="M125.643 197.233H67.8027V199.604H125.643V197.233Z" fill="#263238" stroke="#263238" stroke-miterlimit="10"/>
<path d="M129.026 199.063H63.4346V204.713H129.026V199.063Z" fill="#263238" stroke="#263238" stroke-miterlimit="10"/>
<path d="M101.606 213.095C102.201 213.277 102.805 213.464 103.255 213.879C103.604 214.202 103.935 214.56 104.186 214.951C104.738 215.811 105.234 216.701 105.772 217.611C106.511 217.26 107.237 216.915 107.963 216.57C107.975 216.582 107.988 216.594 108 216.605C107.65 217.136 107.302 217.666 106.952 218.196C106.089 219.502 105.222 220.807 104.364 222.117C104.262 222.271 104.159 222.346 103.947 222.344C101.713 222.316 99.4796 222.3 97.2459 222.281C97.1989 222.28 97.1518 222.273 97.0242 222.261C97.717 221.847 98.344 221.474 98.9918 221.088C98.6672 220.54 98.3547 220.009 98.0382 219.481C97.3427 218.318 96.668 217.145 95.9429 215.999C95.1352 214.721 94.0674 213.69 92.4922 213.145C92.7435 213.145 92.9942 213.145 93.2455 213.145C93.5076 213.145 93.7703 213.151 94.0324 213.143C94.269 213.135 94.5042 213.111 94.7407 213.095C97.0289 213.095 99.3177 213.095 101.606 213.095Z" fill="white"/>
<path d="M80.4414 228.223C81.1846 226.859 81.9285 225.495 82.6866 224.105C82.0307 223.635 81.3573 223.151 80.6249 222.624C80.7734 222.61 80.8567 222.595 80.9407 222.595C83.2181 222.579 85.4955 222.568 87.7723 222.547C87.9913 222.545 88.1022 222.61 88.2064 222.788C89.3246 224.703 90.4549 226.612 91.5805 228.522C91.6134 228.579 91.6383 228.64 91.6967 228.761C90.969 228.402 90.3023 228.074 89.6041 227.73C89.209 228.322 88.8219 228.901 88.4348 229.481C87.9423 230.219 87.445 230.954 86.9598 231.696C86.857 231.853 86.7454 231.931 86.5351 231.914C85.5762 231.833 84.5977 231.847 83.661 231.671C82.0784 231.374 80.9931 230.485 80.4878 229.049C80.4784 229.023 80.4569 228.999 80.4414 228.974C80.4414 228.724 80.4414 228.473 80.4414 228.223Z" fill="white"/>
<path d="M111.937 229.089C111.353 230.827 109.784 231.361 108.082 231.667C107.286 231.81 106.458 231.805 105.643 231.843C105.52 231.849 105.328 231.763 105.271 231.667C104.223 229.914 103.191 228.153 102.156 226.394C102.131 226.353 102.115 226.308 102.081 226.238C104.324 224.983 106.559 223.733 108.828 222.463C109.018 222.807 109.197 223.129 109.376 223.451C110.113 224.778 110.853 226.105 111.587 227.434C111.718 227.671 111.821 227.921 111.937 228.166C111.937 228.473 111.937 228.781 111.937 229.089Z" fill="white"/>
<path d="M100.563 230.253C100.597 230.846 100.642 231.439 100.659 232.032C100.666 232.269 100.723 232.368 101.012 232.366C102.807 232.355 104.601 232.373 106.394 232.356C107.521 232.345 108.644 232.247 109.674 231.787C110.223 231.542 110.727 231.209 111.233 230.925C111.1 231.163 110.944 231.444 110.781 231.723C109.594 233.756 108.411 235.79 107.218 237.82C106.523 239.003 105.408 239.569 103.964 239.594C102.874 239.612 101.785 239.597 100.61 239.597C100.61 240.364 100.61 241.115 100.61 241.867C100.571 241.872 100.531 241.877 100.492 241.883C100.217 241.425 99.9412 240.967 99.667 240.509C98.817 239.085 97.9649 237.662 97.1255 236.233C97.0644 236.128 97.0422 235.946 97.1 235.849C98.196 234.012 99.3068 232.181 100.415 230.349C100.439 230.309 100.47 230.272 100.498 230.234C100.52 230.24 100.541 230.247 100.563 230.253Z" fill="white"/>
<path d="M81.0146 230.828C82.2827 231.936 83.7907 232.313 85.4955 232.299C88.3804 232.276 91.266 232.317 94.1516 232.334C94.2974 232.334 94.4426 232.357 94.6092 232.371C94.6092 234.78 94.6092 237.178 94.6092 239.594C94.5434 239.601 94.4842 239.614 94.4244 239.614C92.5253 239.609 90.6249 239.633 88.7265 239.586C87.6238 239.56 86.5573 239.334 85.7139 238.601C85.5722 238.478 85.4458 238.329 85.3524 238.172C83.9338 235.784 82.5213 233.393 81.1081 231.001C81.0738 230.945 81.0449 230.886 81.0146 230.828Z" fill="white"/>
<path d="M92.6048 222.917C90.3328 221.684 88.0883 220.465 85.8096 219.228C86.0219 218.924 86.2222 218.634 86.4258 218.347C87.3794 217 88.3302 215.652 89.2892 214.309C89.8275 213.555 90.9537 213.213 91.9973 213.472C92.7359 213.655 93.3474 214.04 93.8998 214.506C94.8547 215.31 95.5697 216.278 96.1443 217.336C96.19 217.421 96.1994 217.568 96.1496 217.644C95.0113 219.36 93.8621 221.071 92.7137 222.782C92.6868 222.822 92.6525 222.858 92.6048 222.917Z" fill="white"/>
<path d="M89.2904 246.464C90.3199 246.464 90.7601 247.022 90.7601 247.931V248.653C90.7601 249.605 90.2729 250.103 89.2347 250.103H88.5889V252.471H87.8584V246.465H89.2904V246.464ZM89.234 249.502C89.777 249.502 90.039 249.27 90.039 248.695V247.896C90.039 247.347 89.824 247.073 89.2898 247.073H88.5882V249.501H89.234V249.502Z" fill="white"/>
<path d="M91.9491 251.26L91.6965 252.47H91.0225L92.2764 246.464H93.3341L94.5888 252.47H93.8583L93.6056 251.26H91.9491ZM92.0426 250.686H93.5028L92.7629 247.219L92.0426 250.686Z" fill="white"/>
<path d="M96.5932 246.464C97.6227 246.464 98.0628 247.022 98.0628 247.931V248.653C98.0628 249.605 97.5756 250.103 96.5374 250.103H95.8916V252.471H95.1611V246.465H96.5932V246.464ZM96.5374 249.502C97.0804 249.502 97.3424 249.27 97.3424 248.695V247.896C97.3424 247.347 97.1274 247.073 96.5932 247.073H95.8909V249.501H96.5374V249.502Z" fill="white"/>
<path d="M100.965 249.124V249.725H99.3643V251.861H101.33V252.47H98.6338V246.464H101.33V247.073H99.3643V249.124H100.965Z" fill="white"/>
<path d="M103.465 246.464C104.495 246.464 104.925 246.945 104.925 247.837V248.326C104.925 248.987 104.673 249.399 104.111 249.561C104.71 249.725 104.935 250.171 104.935 250.814V251.749C104.935 252.015 104.944 252.264 105.066 252.47H104.327C104.243 252.299 104.205 252.144 104.205 251.741V250.797C104.205 250.119 103.858 249.905 103.25 249.905H102.735V252.471H102.005V246.465H103.465V246.464ZM103.278 249.296C103.858 249.296 104.204 249.125 104.204 248.472V247.897C104.204 247.357 103.989 247.073 103.446 247.073H102.735V249.295L103.278 249.296Z" fill="white"/>
<path d="M310.464 280.428H326.592" stroke="#263238" stroke-miterlimit="10" stroke-linecap="round" stroke-linejoin="round"/>
<path d="M18.1436 280.428H305.76" stroke="#263238" stroke-miterlimit="10" stroke-linecap="round" stroke-linejoin="round"/>
</svg>
