<svg width="375" height="272" viewBox="0 0 375 272" fill="none" xmlns="http://www.w3.org/2000/svg">
<path d="M340.97 193.829C338.572 189.893 334.896 186.838 333.122 182.547C329.329 173.37 335.518 162.257 332.157 152.892C330.135 147.256 324.882 143.425 319.337 142.02C313.791 140.615 307.963 141.309 302.372 142.496C288.398 145.464 273.459 151.359 260.511 145.062C245.663 137.841 240.421 117.874 228.179 106.428C223.933 102.457 218.093 100.458 212.45 101.041C198.928 102.441 189.79 117.061 176.649 120.71C162.586 124.616 147.683 115.064 133.45 118.216C123.401 120.441 115.444 128.72 109.957 137.893C104.47 147.065 100.886 157.361 95.8291 166.805C90.772 176.25 83.7587 185.189 74.1241 188.939C61.1622 193.984 44.7896 189.243 34.3774 198.837C29.5437 203.291 27.1175 210.164 26.8108 216.934C26.5041 223.704 28.1237 230.418 30.2992 236.794H337.94C340.481 230.68 342.883 219.737 343.936 213.153C344.989 206.569 344.391 199.444 340.97 193.829Z" fill="#D6EDDE"/>
<path d="M341.327 177.353C341.586 178.928 341.934 180.504 342.576 181.806C343.218 183.108 344.196 184.113 345.271 184.187C346.479 184.271 347.585 183.21 348.517 182.051C349.809 180.443 350.969 178.514 351.628 176.192C352.355 173.634 352.431 170.759 352.285 167.985C351.978 162.178 348.769 152.279 343.804 156.252C339.643 159.582 340.42 171.827 341.327 177.353Z" fill="#D6EDDE"/>
<path d="M341.922 143.148C340.539 144.236 337.769 142.776 335.735 139.888C333.7 136.999 333.172 133.776 334.555 132.688C335.937 131.6 338.707 133.06 340.742 135.948C342.776 138.837 343.305 142.06 341.922 143.148Z" fill="#D6EDDE"/>
<path d="M95.7944 153.758C94.4393 155.278 92.8181 156.663 90.8829 157.083C88.9478 157.503 86.6652 156.692 85.8351 154.797C85.5175 154.072 85.4316 153.257 85.4187 152.458C85.3235 146.415 89.2504 140.938 94.1274 137.782C96.0059 136.567 98.2272 135.597 100.371 136.13C101.933 136.518 103.551 140.852 102.081 143.778C100.283 147.354 98.4614 150.768 95.7944 153.758Z" fill="#D6EDDE"/>
<path d="M138.361 110.702C138.361 112.249 136.521 113.503 134.25 113.503C131.979 113.503 130.139 112.249 130.139 110.702C130.139 109.156 131.979 107.902 134.25 107.902C136.521 107.902 138.361 109.156 138.361 110.702Z" fill="#D6EDDE"/>
<path d="M151.597 112.052C151.597 113.011 150.294 113.788 148.688 113.788C147.081 113.788 145.779 113.011 145.779 112.052C145.779 111.092 147.082 110.315 148.688 110.315C150.294 110.315 151.597 111.092 151.597 112.052Z" fill="#D6EDDE"/>
<path d="M303.618 233.039C303.618 233.039 303.096 219.797 307.585 213.838C307.585 213.838 314.685 224.1 314.685 229.287C314.685 234.474 303.618 233.039 303.618 233.039Z" fill="#53A097"/>
<path d="M45.9379 232.752C45.9379 232.752 14.1191 215.816 14.1191 165.192C14.1191 165.192 42.7053 170.828 48.4567 195.785C54.2081 220.742 45.9379 232.752 45.9379 232.752Z" fill="#78D097"/>
<path d="M47.9302 222.895C45.047 217.055 41.4325 210.28 37.7105 203.532C38.044 202.499 39.8731 196.728 39.8731 194.353H39.1701C39.1701 196.292 37.8052 200.863 37.2385 202.678C34.9621 198.562 32.6564 194.473 30.4619 190.626C30.8103 189.689 32.2092 185.803 32.3981 183.306L31.6971 183.247C31.5432 185.28 30.5026 188.407 30.0008 189.82C26.6312 183.925 23.5535 178.65 21.29 174.804C21.3868 174.437 22.0368 171.946 22.3327 170.276L21.9874 170.208L21.6421 170.14C21.43 171.334 21.0203 173.007 20.7831 173.943C18.7682 170.525 17.5144 168.433 17.465 168.351L16.8711 168.748C16.9457 168.872 19.7589 173.567 23.7944 180.494C22.7172 179.837 21.0106 178.854 19.393 178.17L19.2628 178.515L19.1325 178.86C21.6909 179.941 24.4969 181.802 24.5247 181.819L24.5453 181.785C27.0316 186.063 29.9174 191.08 32.8855 196.347C31.2272 196.175 26.9879 195.687 25.0327 194.998L24.9215 195.35L24.8103 195.703C27.1279 196.519 32.2993 197.04 33.3312 197.138C35.5396 201.065 37.7841 205.115 39.9343 209.087C38.221 209.039 33.3234 208.818 30.4789 207.845L30.2627 208.552C33.5381 209.672 39.2071 209.822 40.3414 209.841C42.8808 214.548 45.2761 219.126 47.3064 223.24L47.9302 222.895Z" fill="#408797"/>
<path d="M45.9775 231.699C45.9775 231.699 47.6739 217.513 56.7485 206.873C65.8231 196.232 67.6918 194.899 68.9548 193.049C68.9548 193.049 66.7037 218.772 59.3383 225.622C51.9729 232.472 45.9775 231.699 45.9775 231.699Z" fill="#53A097"/>
<path d="M62.9676 205.142C64.5018 202.335 65.5435 200.615 65.5662 200.577L65.123 200.275C65.1071 200.301 64.6207 201.105 63.8307 202.495L63.6012 201.716L63.0978 201.882L63.4679 203.137C62.7617 204.393 61.8724 206.015 60.8853 207.908C60.6434 207.417 60.4215 206.915 60.243 206.397L59.7473 206.588C59.9743 207.245 60.2579 207.882 60.5806 208.494C59.9625 209.689 59.3119 210.981 58.6465 212.349L58.5574 212.394L58.5898 212.466C58.1997 213.269 57.806 214.098 57.4107 214.949C57.1354 214.397 56.9357 213.809 56.8261 213.191C56.7659 212.853 56.7319 212.511 56.6979 212.168C56.6578 211.764 56.6161 211.347 56.5327 210.936L56.017 211.053C56.0947 211.435 56.1328 211.819 56.174 212.226C56.2095 212.584 56.2455 212.941 56.3083 213.294C56.4514 214.098 56.7283 214.859 57.1287 215.558C56.5826 216.748 56.0376 217.974 55.5039 219.228L55.9846 219.457C56.9851 217.107 58.0253 214.853 59.0355 212.769L62.1462 211.192L61.9182 210.69L59.436 211.948C60.6001 209.579 61.7108 207.458 62.6593 205.708C62.6778 205.708 62.6959 205.708 62.7144 205.708C63.3454 205.708 63.9789 205.669 64.6006 205.591L64.5384 205.038C64.0196 205.105 63.4936 205.133 62.9676 205.142Z" fill="#40D097"/>
<path d="M218.884 199.739C220 213.864 224.289 231.725 224.289 231.725L233.055 231.645C228.154 214.748 218.884 199.739 218.884 199.739Z" fill="#61BB97"/>
<path d="M260.204 233.956L263.273 234.574C277.303 226.696 281.103 184.37 281.103 184.37C281.103 184.37 259.619 200.28 260.204 233.956Z" fill="#61BB97"/>
<path d="M261.527 234.223L263.273 234.574C277.237 226.733 281.066 184.771 281.102 184.379L261.527 234.223Z" fill="#78D097"/>
<path d="M263.909 209.924C265.998 203.923 268.71 199.005 271.362 195.145C271.64 192.031 271.682 188.134 270.647 185.397C270.647 185.397 262.934 204.764 263.908 209.92C263.909 209.921 263.909 209.923 263.909 209.924Z" fill="#53A097"/>
<path d="M145.98 213.961C145.573 213.981 145.136 214.049 144.839 214.344C144.591 214.591 144.479 214.981 144.558 215.331C144.658 215.777 145.024 216.1 145.404 216.319C146.23 216.797 147.207 216.941 148.141 216.818C148.794 216.733 151.461 216.005 150.102 214.965C149.017 214.136 147.274 213.898 145.98 213.961Z" fill="#78D097"/>
<path d="M157.972 219.101C157.972 219.101 160.867 209.781 163.271 211.663C165.676 213.546 159.441 219.054 157.972 219.101Z" fill="#78D097"/>
<path d="M151.817 206.895C151.817 206.895 156.4 204.883 155.625 200.933C154.848 196.983 151.676 203.84 151.817 206.895Z" fill="#78D097"/>
<path d="M145.636 207.812C145.636 207.812 141.03 205.703 139.69 207.715C138.35 209.727 143.591 208.855 145.636 207.812Z" fill="#78D097"/>
<path d="M147.214 205.348C147.214 205.348 142.12 195.528 139.251 195.452C136.381 195.377 138.453 199.594 139.251 200.419C142.48 203.755 147.214 205.348 147.214 205.348Z" fill="#78D097"/>
<path d="M160.323 216.254L159.984 215.827C158.405 217.224 156.896 220.785 156.342 222.19C155.784 220.617 155.153 218.98 154.435 217.319L154.482 217.28C154.472 217.267 154.427 217.21 154.35 217.127C153.36 214.856 152.209 212.552 150.887 210.328C151.119 209.357 152.14 205.41 153.796 203.62L153.419 203.231C151.866 204.909 150.881 208.217 150.5 209.689C148.247 206.021 145.511 202.609 142.202 199.992L141.887 200.438C144.414 202.437 146.606 204.907 148.499 207.604C147.333 207.491 144.734 207.349 142.914 207.718L143.013 208.265C145.207 207.821 148.482 208.144 148.907 208.207C149.398 208.931 149.873 209.667 150.324 210.416C150.323 210.418 150.322 210.423 150.322 210.424L150.329 210.426C151.498 212.37 152.527 214.38 153.436 216.378C152.454 215.738 150.724 215.016 147.982 215.15L148.008 215.708C151.683 215.516 153.439 216.976 153.922 217.467C157.893 226.612 159.304 235.167 159.327 235.311L159.847 235.218C159.829 235.104 158.945 229.741 156.615 222.963C156.645 222.883 158.488 217.879 160.323 216.254Z" fill="#408797"/>
<path d="M158.605 231.971C158.522 231.873 150.23 222.102 141.951 219.703L142.137 218.986C150.619 221.443 158.787 231.069 159.131 231.478L158.605 231.971Z" fill="#408797"/>
<path d="M152.104 229.165L151.997 228.43C152.945 228.276 153.853 227.954 154.697 227.476L155.029 228.131C154.115 228.649 153.131 228.997 152.104 229.165Z" fill="#408797"/>
<path d="M152.11 225.622C152.089 224.781 151.876 223.948 151.493 223.212L152.109 222.854C152.546 223.694 152.789 224.644 152.812 225.604L152.11 225.622Z" fill="#408797"/>
<path d="M147.295 225.234L147.131 224.512C147.377 224.449 147.653 224.386 147.942 224.318C148.8 224.119 149.773 223.892 150.447 223.604L150.71 224.293C149.982 224.604 148.979 224.838 148.093 225.043C147.808 225.109 147.537 225.172 147.295 225.234Z" fill="#408797"/>
<path d="M147.015 221.988C146.962 221.559 146.8 220.253 146.343 219.712L146.867 219.217C147.4 219.848 147.599 220.978 147.712 221.892L147.015 221.988Z" fill="#408797"/>
<path d="M144.972 220.396L142.659 221.626L142.975 222.29L145.288 221.059L144.972 220.396Z" fill="#408797"/>
<path d="M143.292 219.657L142.591 219.608L142.941 219.632L142.591 219.609C142.591 219.6 142.635 218.67 142.043 217.863L142.598 217.407C143.36 218.445 143.295 219.608 143.292 219.657Z" fill="#408797"/>
<path d="M312.209 234.508C312.705 238.148 320.074 239.281 331.467 228.948C342.86 218.615 352.347 178.411 352.347 178.411C338.487 184.272 328.377 195.783 321.879 205.451C316.145 213.979 312.85 224.068 312.209 234.508Z" fill="#78D097"/>
<path d="M339.455 197.255C339.594 197.253 342.877 197.207 344.353 196.275L343.992 195.637C343 196.264 340.929 196.443 339.964 196.493C344.26 190.32 347.459 186.133 347.537 186.031L346.99 185.564C346.938 185.632 345.464 187.563 343.196 190.698C342.652 189.804 342.019 188.56 342.077 188.025L341.378 187.941C341.275 188.889 342.33 190.67 342.743 191.325C340.916 193.864 338.644 197.091 336.197 200.731C335.989 199.371 335.509 196.173 335.407 195.022L334.707 195.091C334.84 196.586 335.57 201.283 335.601 201.482L335.708 201.463C332.944 205.599 329.997 210.211 327.256 214.9C326.695 213.197 325.529 209.297 325.588 206.424L324.885 206.408C324.814 209.832 326.348 214.469 326.784 215.715C324.111 220.336 321.663 225.001 319.823 229.319L320.465 229.623C323.235 223.121 327.391 215.822 331.62 209.08C331.976 209.016 336.27 208.219 339.662 206.983L339.433 206.28C336.778 207.249 333.55 207.944 332.162 208.221C334.68 204.24 337.199 200.485 339.454 197.228L339.455 197.255Z" fill="#408797"/>
<path d="M305.582 232.108L305.074 231.96C305.206 231.456 318.46 181.363 336.931 167.827L337.231 168.286C318.916 181.707 305.713 231.606 305.582 232.108Z" fill="#408797"/>
<path d="M318.292 195.546C318.292 195.546 318.128 188.095 316.16 188.268C314.193 188.442 318.292 195.546 318.292 195.546Z" fill="#53A097"/>
<path d="M313.864 205.943C313.614 206.39 322.8 203.777 322.963 201.005C323.127 198.232 315.176 203.604 313.864 205.943Z" fill="#78D097"/>
<path d="M311.158 213.324C311.158 213.324 311.07 208.21 309.456 207.935C307.842 207.66 311.158 213.324 311.158 213.324Z" fill="#78D097"/>
<path d="M309.627 218.333C309.627 218.333 317.734 217.791 317.785 215.134C317.837 212.476 312.603 214.808 309.627 218.333Z" fill="#53A097"/>
<path d="M321.014 189.991C321.014 189.991 329.169 189.766 328.956 186.993C328.743 184.22 321.014 189.991 321.014 189.991Z" fill="#78D097"/>
<path d="M325.106 182.651C325.106 182.462 325.046 174.857 322.966 175.36C320.884 175.863 325.106 182.651 325.106 182.651Z" fill="#53A097"/>
<path d="M329.744 175.737C329.744 175.737 335.036 177.434 335.81 175.611C336.583 173.788 331.052 174.731 329.744 175.737Z" fill="#53A097"/>
<path d="M333.431 171.023C333.431 171.023 333.847 164.612 331.41 165.303C328.972 165.995 333.431 171.023 333.431 171.023Z" fill="#78D097"/>
<path d="M336.583 168.32C336.583 168.32 342.173 164.926 342.47 167.44C342.767 169.954 337.772 169.137 336.583 168.32Z" fill="#78D097"/>
<path d="M336.879 167.943C336.879 167.943 339.139 162.601 337.058 162.475C334.976 162.349 336.879 167.943 336.879 167.943Z" fill="#53A097"/>
<path d="M92.4492 198.972C92.7138 212.629 94.5789 231.725 94.5789 231.725H102.838C101.807 224.918 92.4492 198.972 92.4492 198.972Z" fill="#408797"/>
<path d="M193.108 231.725L201.184 231.971C203.491 229.39 204.004 217.407 204.004 217.407C199.593 220.215 193.108 231.725 193.108 231.725Z" fill="#408797"/>
<path d="M233.056 231.645C228.154 214.748 218.884 199.739 218.884 199.739C218.947 200.532 219.021 201.339 219.102 202.152L229.492 231.677L233.056 231.645Z" fill="#78D097"/>
<path d="M57.9754 78.1902C57.9754 78.1902 63.1503 83.9952 65.735 86.4976C68.3197 89 70.9239 92.6291 69.8585 97.3836C68.7931 102.138 67.1987 120.031 67.4633 123.911C67.4633 123.911 56.8369 126.788 48.5503 123.035C48.5503 123.035 51.9455 115.152 51.2543 107.269C50.5631 99.3855 46.7747 85.2464 49.4978 78.9899L50.9208 76.2068C50.9208 76.2068 54.9728 78.324 57.9754 78.1902Z" fill="#61BA7A"/>
<path d="M50.9425 86.3491C50.9425 86.3491 49.7382 88.2896 51.2935 107.823C51.7855 115.517 48.5498 123.034 48.5498 123.034C48.5776 123.047 48.6054 123.058 48.6332 123.07L62.2425 110.503L50.9425 86.3491Z" fill="#649A63"/>
<path d="M67.0012 60.4797C66.7614 61.4148 66.52 62.3919 66.7048 63.3411C66.7814 63.7345 66.9292 64.1076 67.0604 64.4852C67.2467 65.0205 67.4001 65.5683 67.554 66.115C67.5977 66.2711 67.642 66.437 67.6044 66.5954C67.5576 66.7906 67.3975 66.9288 67.2446 67.0496C66.888 67.3314 66.519 67.5963 66.1397 67.8433C65.5812 69.4454 65.4335 71.413 64.4304 72.7513C64.2652 72.9716 64.0686 73.1761 63.8231 73.2838C63.5133 73.4198 63.1628 73.3872 62.8298 73.3431C61.4953 73.1663 60.1783 72.8399 58.9086 72.3715C58.9086 72.3715 58.0908 76.6082 57.9755 78.1907C57.9755 78.1907 52.2128 78.6983 50.8577 75.5289C50.1042 73.7674 53.414 63.7655 53.414 63.7655C53.414 63.7655 49.8165 61.3392 54.2143 53.8375C58.6127 46.3357 66.7696 54.5011 67.0928 57.0318C67.4155 59.5625 67.0012 60.4797 67.0012 60.4797Z" fill="#EE957C"/>
<path d="M65.6926 58.0861C65.1553 58.7732 64.5418 59.3928 63.8681 59.9286C63.2722 60.4025 62.601 60.8213 61.8589 60.8981C61.7806 60.3437 61.8455 59.7916 61.9999 59.2552C60.4801 60.1125 59.4744 61.8223 58.9526 63.5577C58.7745 62.4827 58.5568 61.4083 58.3787 60.3334C58.3092 59.9129 58.1908 59.4254 57.8172 59.2628C57.671 59.1991 57.5069 59.1991 57.3504 59.2214C56.9258 59.2829 56.5249 59.5114 56.2428 59.8519C55.7117 60.4939 55.6489 61.4426 55.8151 62.2771C55.9814 63.1116 56.3427 63.8879 56.5722 64.7055C56.8507 65.6978 56.5027 66.671 56.3051 67.6844C55.8759 67.0714 55.4436 66.4392 55.2763 65.6972C55.2763 65.6972 54.7189 74.6961 51.617 79.7808L50.7014 78.6156C50.7014 78.6156 49.6628 80.8008 47.8008 81.8845L47.7627 79.9865L46.582 80.3134C46.582 80.3134 48.9212 71.3472 49.0272 68.1523L47.8517 68.8818C47.8517 68.8818 49.3406 62.1955 48.0272 62.8216C48.0272 62.8216 47.6144 51.3052 53.6577 48.3599C58.1852 46.1535 65.9247 47.959 67.6921 55.8775C67.8594 56.6277 67.9103 57.4028 67.8795 58.1732C67.8455 59.0261 67.7847 60.1968 67.6937 60.8442C66.7281 60.2404 66.0277 59.2165 65.6926 58.0861Z" fill="#33232A"/>
<path d="M58.3962 75.2048C58.6453 73.7354 58.9083 72.3711 58.9083 72.3711C58.9083 72.3711 56.8722 71.5398 56.0117 70.9507C56.0117 70.9507 56.4996 73.5216 58.3962 75.2048Z" fill="#D87E7C"/>
<path d="M65.0725 63.2818C65.0133 63.8144 64.7611 64.2213 64.5089 64.1897C64.2568 64.1582 64.1008 63.7012 64.16 63.1686C64.2192 62.6361 64.4714 62.2297 64.7236 62.2607C64.9752 62.2922 65.1317 62.7492 65.0725 63.2818Z" fill="#5C364B"/>
<path d="M63.4346 61.7205C63.3831 61.7205 63.3322 61.6966 63.2972 61.6504C63.2364 61.5704 63.2493 61.4534 63.325 61.3898C63.6363 61.127 64.0126 61.0063 64.3389 60.9219C64.6168 60.8501 64.9837 60.7729 65.3502 60.8202C65.4464 60.8322 65.5159 60.9247 65.5041 61.0264C65.4927 61.1292 65.4022 61.2043 65.309 61.189C64.9992 61.1499 64.6873 61.2146 64.4222 61.2832C64.133 61.3577 63.8021 61.4632 63.5442 61.6803C63.5118 61.7069 63.4732 61.7205 63.4346 61.7205Z" fill="#5C364B"/>
<path d="M65.3057 70.8924C65.3612 70.7129 65.4148 70.5317 65.4637 70.3478C64.9969 70.0851 64.4987 69.7309 64.1302 69.2729C64.036 69.1559 63.8692 69.1418 63.7591 69.2408C63.6479 69.3403 63.6345 69.5161 63.7287 69.633C64.1729 70.1863 64.7673 70.5997 65.3057 70.8924Z" fill="#5C364B"/>
<path d="M57.4686 60.3024C57.0806 60.3165 56.7363 60.6152 56.5705 60.9867C56.4048 61.3577 56.3961 61.7886 56.4589 62.1933C56.4872 62.3734 56.5289 62.5518 56.5978 62.7194C56.7651 63.1263 57.0955 63.4548 57.4903 63.6061C57.4666 63.4576 57.5376 63.2987 57.6575 63.2171C57.7774 63.1355 57.9308 63.1208 58.0703 63.154C58.0744 62.9419 58.0621 62.727 58.0662 62.5148C58.0765 62.0116 58.0852 61.4992 57.9519 61.0161C57.8917 60.7963 57.6498 60.4264 57.4686 60.3024Z" fill="#D87E7C"/>
<path d="M77.3457 73.8383L75.6748 74.1505L77.2498 83.5661L78.9207 83.2538L77.3457 73.8383Z" fill="#40AD97"/>
<path d="M84.2528 74.7607L87.0042 70.4512L86.0166 69.7467L83.2652 74.0563C83.0984 74.3174 82.838 74.4953 82.5441 74.5486L81.8164 74.6802C81.2384 74.7847 80.7263 75.1345 80.3985 75.648L76.6543 81.5123L80.1849 84.0311L83.9291 78.1667C84.257 77.6532 84.3722 77.02 84.2477 76.4145L84.0912 75.6518C84.0274 75.3439 84.0861 75.0219 84.2528 74.7607Z" fill="#5AA9E0"/>
<path d="M86.1203 68.9139L85.7227 69.5366L87.2985 70.6608L87.6961 70.038L86.1203 68.9139Z" fill="#5AA9E0"/>
<path d="M80.0809 76.144L78.4229 78.7408L81.9535 81.2593L83.6115 78.6625L80.0809 76.144Z" fill="#5A8FE0"/>
<path d="M86.5343 76.7182L87.5827 71.6383L86.4185 71.3701L85.3701 76.45C85.3063 76.7579 85.1267 77.025 84.8724 77.1893L84.2425 77.5962C83.7422 77.9193 83.3886 78.4443 83.2636 79.0498L81.8369 85.9618L85.9985 86.9214L87.4252 80.0094C87.5502 79.4039 87.4355 78.7707 87.1081 78.2572L86.6959 77.6098C86.5291 77.3481 86.4705 77.0261 86.5343 76.7182Z" fill="#5A8FE0"/>
<path d="M107.114 83.2494L110.465 79.4436L109.594 78.5857L105.924 82.7522L104.069 82.7788C103.898 82.7816 103.736 82.8572 103.62 82.9894L98.6162 88.6714L101.734 91.7391L106.738 86.057C106.854 85.9248 106.914 85.7485 106.904 85.5685L106.824 84.1029C106.806 83.7885 106.911 83.4801 107.114 83.2494Z" fill="#5AA9E0"/>
<path d="M86.4187 71.3701L86.1953 72.4527L87.3672 72.6822L87.5829 71.6388L86.4187 71.3701Z" fill="#5AA9E0"/>
<path d="M75.6637 79.6483L64.2607 115.991L92.8246 126.004L104.228 89.6614L75.6637 79.6483Z" fill="#B76535"/>
<path d="M88.6222 109.861C87.0283 109.329 85.3103 109.083 83.6814 109.478C82.4889 109.766 80.9393 110.537 80.3278 111.735C79.545 113.269 81.4895 113.706 82.4848 114.199C85.1225 115.507 87.807 116.923 89.8409 119.185C90.8281 120.283 91.6649 121.582 92.9006 122.349C93.1955 122.533 93.509 122.672 93.8291 122.795L96.4076 114.578C93.9984 112.648 91.491 110.817 88.6222 109.861Z" fill="#9A5335"/>
<path d="M90.9852 87.7322L89.7832 91.5631L100.189 95.2109L101.391 91.38L90.9852 87.7322Z" fill="#C18B35"/>
<path d="M80.5914 81.376L69.1885 117.718L74.017 119.411L85.4199 83.0686L80.5914 81.376Z" fill="#C18B35"/>
<path d="M99.3032 87.943L101.681 82.8321L98.1822 81.1985L96.1514 86.8419L99.3032 87.943Z" fill="#A8A8C5"/>
<path d="M92.595 82.8321C92.716 82.7445 93.7659 81.5548 93.7659 81.5548L94.8945 82.6156L96.1488 81.5548L97.3196 83.4082L98.7828 83.5872L98.0721 84.2503L98.9501 85.6179L97.7108 87.3849L91.8086 85.3291L92.595 82.8321Z" fill="#C4C7E6"/>
<path d="M87.0801 83.6721L88.3642 81.1991L89.535 82.0385L90.4131 81.464L91.4583 82.0825V82.8779L92.4197 82.564L93.5906 83.2755C93.5906 83.2755 92.78 85.6697 92.6292 85.6169C92.4784 85.5642 87.0801 83.6721 87.0801 83.6721Z" fill="#E13A51"/>
<path d="M98.9159 113.796C99.1846 113.877 99.4918 113.715 99.5299 113.147C99.5685 112.579 97.7646 110.834 97.112 110.347C96.4594 109.86 95.3848 109.333 95.3848 109.333C95.3848 109.333 95.2695 108.603 94.3102 108.156C93.3508 107.71 89.1182 108.149 87.7904 108.365C86.463 108.581 82.4805 107.987 77.426 106.584C72.3715 105.181 63.9793 103.892 63.9793 103.892C63.5779 100.581 61.8095 95.6641 61.8095 95.6641H61.8084C60.8043 96.5628 58.1533 98.5995 55.0303 98.4385C55.4595 100.77 56.6849 106.431 58.8187 108.829C62.0225 112.429 84.5608 112.943 85.3668 113.024C86.1728 113.105 86.7487 113.308 88.1305 114.282C89.5124 115.256 91.9689 114.972 93.005 114.85C94.0415 114.728 95.4615 115.743 95.8835 115.868C96.3055 115.994 96.3822 115.052 96.3822 115.052L97.1501 115.579C97.1501 115.579 97.6107 115.944 98.0327 115.853C98.4548 115.762 98.4167 115.214 98.4167 115.214C98.4167 115.214 98.762 115.66 99.0693 115.823C99.3765 115.985 99.76 115.458 99.76 115.093C99.7605 114.729 98.9159 113.796 98.9159 113.796Z" fill="#EE957C"/>
<path d="M61.8104 95.6646H61.8094C60.8053 96.5632 58.1542 98.6 55.0312 98.4389C55.2402 99.5726 55.6386 101.494 56.2366 103.444C57.8743 100.704 60.725 98.3182 62.3035 97.1241C62.0173 96.2417 61.8104 95.6646 61.8104 95.6646Z" fill="#D87E7C"/>
<path d="M53.6839 98.2409C53.6839 98.2409 47.9449 83.2472 53.0355 80.7785C59.1698 77.8039 62.2434 95.2522 62.2434 95.2522C62.2434 95.2522 58.2691 99.453 53.6839 98.2409Z" fill="#61BA7A"/>
<path d="M87.0257 112.371C86.9465 112.194 86.9243 111.995 86.9002 111.802C86.8363 111.289 86.5878 108.088 85.6274 109.038C85.2337 109.427 85.2331 110.529 85.1544 111.065C85.0597 111.707 84.9949 112.356 85.0026 113.006C85.192 113.014 85.3206 113.02 85.368 113.025C86.174 113.106 86.7499 113.309 88.1318 114.283C88.1734 114.312 88.2244 114.33 88.2676 114.357C88.439 114.397 88.6104 114.436 88.7813 114.475C88.2964 113.916 87.8121 113.356 87.3273 112.797C87.2131 112.665 87.0978 112.531 87.0257 112.371Z" fill="#D87E7C"/>
<path d="M95.6471 109.467C95.4906 109.385 95.3846 109.333 95.3846 109.333C95.3846 109.333 95.3671 109.226 95.293 109.07C94.277 109.007 92.7387 108.957 91.8463 109.151C91.751 109.172 91.6898 109.271 91.7099 109.371C91.7268 109.458 91.7999 109.519 91.8812 109.519C91.8931 109.519 91.9054 109.518 91.9168 109.515C92.8787 109.305 94.6949 109.397 95.6471 109.467Z" fill="#C26F6B"/>
<path d="M98.5876 115.142L98.5542 115.098C98.4796 115.001 96.6968 112.7 94.1821 111.884C94.09 111.852 93.9911 111.909 93.9628 112.007C93.9345 112.105 93.986 112.209 94.0792 112.239C96.3066 112.962 97.9917 114.972 98.2474 115.289L98.2819 115.701C98.4363 115.507 98.4178 115.215 98.4178 115.215C98.4178 115.215 98.4986 115.318 98.6129 115.441L98.5876 115.142Z" fill="#C26F6B"/>
<path d="M99.1837 113.776L99.0483 113.674C98.9855 113.597 97.4868 111.791 95.7431 111.07C95.6515 111.033 95.5506 111.079 95.5151 111.175C95.4796 111.271 95.5244 111.379 95.6144 111.416C97.2763 112.104 98.7678 113.899 98.8126 113.946L99.4029 114.397C99.1723 114.081 98.9155 113.795 98.9155 113.795C99.0061 113.822 99.0967 113.81 99.1837 113.776Z" fill="#C26F6B"/>
<path d="M96.5364 114.948L96.4988 114.913C96.4484 114.867 95.2549 113.767 94.1818 113.416C94.0892 113.385 93.9904 113.44 93.9621 113.538C93.9332 113.636 93.9852 113.74 94.0779 113.771C94.9785 114.065 96.0212 114.972 96.2292 115.159L96.31 115.438C96.3645 115.241 96.382 115.053 96.382 115.053L96.6116 115.21L96.5364 114.948Z" fill="#C26F6B"/>
<path d="M84.6194 107.73L83.79 113.445L85.3115 113.691L86.1409 107.976L84.6194 107.73Z" fill="#624746"/>
<path d="M86.4129 110.702C86.4129 111.546 85.7654 112.231 84.9672 112.231C84.1689 112.231 83.5215 111.546 83.5215 110.702C83.5215 109.859 84.1689 109.174 84.9672 109.174C85.7654 109.174 86.4129 109.859 86.4129 110.702Z" fill="#523F46"/>
<path d="M85.8047 110.702C85.8047 111.191 85.4295 111.588 84.9668 111.588C84.5041 111.588 84.1289 111.191 84.1289 110.702C84.1289 110.213 84.5041 109.817 84.9668 109.817C85.4295 109.817 85.8047 110.213 85.8047 110.702Z" fill="#978277"/>
<path d="M49.4734 123.419C48.6345 125.094 46.7379 129.711 47.7122 135.751C48.9443 143.392 50.3133 145.233 50.7899 154.299C51.2665 163.365 53.8079 171.76 52.3782 176.965C50.9484 182.17 46.6597 188.047 44.7539 202.318C44.7539 202.318 47.3638 205.508 52.81 205.844C52.81 205.844 56.7822 191.876 59.4204 188.111C62.0585 184.347 63.1136 179.327 63.7734 171.798C64.3972 164.679 68.058 132.988 66.9206 124.042C64.7569 124.54 56.477 126.14 49.4734 123.419Z" fill="#624746"/>
<path d="M67.029 125.19C66.9986 124.779 66.9646 124.388 66.9204 124.043C64.7572 124.54 56.4773 126.14 49.4737 123.419C48.678 125.007 46.9364 129.244 47.5885 134.828C48.5386 133.674 49.5097 132.54 50.5164 131.442C51.3347 130.549 52.1906 129.66 53.2447 129.109C53.9698 128.731 54.7629 128.525 55.5488 128.324C57.922 127.714 60.2956 127.104 62.6687 126.494C64.0439 126.142 65.6785 125.888 67.029 125.19Z" fill="#523F46"/>
<path d="M40.8753 230.565C40.8753 230.565 40.6226 220.69 41.5696 219.222C42.5166 217.754 43.7158 219.222 45.6097 219.222C47.5037 219.222 49.1445 218.288 49.7127 219.088C50.2809 219.889 50.3256 221.74 50.9751 221.757C52.6066 221.8 64.5469 227.162 64.7363 228.229C64.9257 229.297 64.8495 231.645 64.8495 231.645H51.4888C51.4888 231.645 49.2273 229.782 46.3915 231.645H41.7564C41.2572 231.645 40.8573 231.209 40.8717 230.682L40.8753 230.565Z" fill="#C63A51"/>
<path d="M42.6334 230.682L49.0698 229.465C49.0698 229.465 47.2371 225.3 46.1285 225.108C45.3426 224.971 42.462 225.994 40.8491 226.602C40.8285 228.773 40.8743 230.565 40.8743 230.565L40.8707 230.682H42.6334V230.682Z" fill="#FFAD35"/>
<path d="M51.5195 229.805C51.5195 229.805 49.223 227.941 46.343 229.805H41.6358C41.2972 229.805 41.0069 229.608 40.8535 229.322C40.8628 230.085 40.8746 230.565 40.8746 230.565L40.871 230.682C40.8561 231.209 41.2565 231.645 41.7557 231.645H46.3908C49.2266 229.782 51.4881 231.645 51.4881 231.645H64.8488C64.8488 231.645 64.8776 230.745 64.855 229.806H51.5195V229.805Z" fill="#823A51"/>
<path d="M60.7575 227.418C61.5928 227.28 62.1358 226.943 62.477 226.633C58.8893 224.671 52.1688 221.788 50.9737 221.757C50.863 221.755 50.7704 221.695 50.6896 221.599C50.2444 222.112 49.3525 223.199 49.2954 223.743C49.2187 224.47 59.038 227.701 60.7575 227.418Z" fill="#823A51"/>
<path d="M50.2486 225.184C50.209 225.184 50.1683 225.175 50.1297 225.154C50 225.084 49.948 224.917 50.0139 224.78C51.0268 222.662 52.4303 221.547 52.4889 221.5C52.6058 221.408 52.7705 221.435 52.8574 221.558C52.9444 221.681 52.9197 221.856 52.8034 221.947C52.79 221.958 51.438 223.037 50.4838 225.03C50.4375 225.128 50.3448 225.184 50.2486 225.184Z" fill="#FFAD35"/>
<path d="M51.7515 225.777C51.7113 225.777 51.6707 225.768 51.6321 225.746C51.5024 225.677 51.4509 225.508 51.5173 225.371C52.5291 223.277 53.9167 222.174 53.9753 222.128C54.0932 222.037 54.2574 222.062 54.3438 222.185C54.4308 222.309 54.4061 222.483 54.2898 222.575C54.2764 222.586 52.9398 223.652 51.9867 225.625C51.9398 225.722 51.8477 225.777 51.7515 225.777Z" fill="#FFAD35"/>
<path d="M53.2504 226.377C53.2098 226.377 53.1686 226.367 53.1305 226.346C53.0008 226.276 52.9498 226.109 53.0168 225.971C54.0281 223.895 55.4028 222.801 55.4609 222.757C55.5783 222.665 55.7424 222.691 55.8294 222.814C55.9164 222.937 55.8917 223.112 55.7754 223.203C55.762 223.214 54.4377 224.27 53.4856 226.226C53.4388 226.322 53.3461 226.377 53.2504 226.377Z" fill="#FFAD35"/>
<path d="M54.7992 226.881C54.7575 226.881 54.7153 226.87 54.6757 226.848C54.5475 226.776 54.4986 226.607 54.5671 226.471C55.5717 224.477 56.8918 223.429 56.9479 223.385C57.0648 223.294 57.2295 223.32 57.3159 223.442C57.4029 223.566 57.3782 223.741 57.2619 223.832C57.249 223.842 55.9783 224.856 55.0324 226.733C54.985 226.827 54.8939 226.881 54.7992 226.881Z" fill="#FFAD35"/>
<path d="M56.3412 227.397C56.2985 227.397 56.2553 227.386 56.2146 227.363C56.0875 227.289 56.0406 227.119 56.1106 226.984C57.1081 225.064 58.3793 224.054 58.4328 224.012C58.5502 223.921 58.7149 223.946 58.8013 224.069C58.8883 224.193 58.8636 224.367 58.7473 224.459C58.7354 224.468 57.5116 225.444 56.5723 227.253C56.5244 227.345 56.4349 227.397 56.3412 227.397Z" fill="#FFAD35"/>
<path d="M58.2338 228.026C58.1922 228.026 58.1499 228.015 58.1108 227.993C57.9827 227.921 57.9333 227.753 58.0012 227.617C58.7197 226.184 59.6101 225.231 60.0769 224.789C60.1855 224.686 60.3517 224.696 60.4495 224.811C60.5462 224.926 60.537 225.102 60.4284 225.205C59.9878 225.621 59.1474 226.522 58.4675 227.878C58.4201 227.972 58.3291 228.026 58.2338 228.026Z" fill="#FFAD35"/>
<path d="M80.0004 229.475C80.0004 229.475 77.636 219.918 78.2433 218.261C78.8506 216.605 80.3339 217.747 82.1779 217.293C84.0225 216.839 85.4203 215.536 86.1455 216.18C86.8707 216.823 87.3112 218.616 87.9479 218.476C89.5464 218.127 102.326 220.487 102.739 221.481C103.152 222.476 103.582 224.781 103.582 224.781L90.5691 227.984C90.5691 227.984 87.9669 226.711 85.6046 229.206L81.0904 230.316C80.6041 230.436 80.1208 230.108 80.0225 229.59L80.0004 229.475Z" fill="#C63A51"/>
<path d="M81.738 229.168L87.7457 226.44C87.7457 226.44 85.0668 222.823 83.9464 222.901C83.1512 222.956 80.5656 224.643 79.125 225.621C79.5707 227.74 79.9994 229.475 79.9994 229.475L80.0216 229.59L81.738 229.168Z" fill="#FFAD35"/>
<path d="M90.2049 226.184C90.2049 226.184 87.5688 224.919 85.1632 227.425L80.5786 228.553C80.2487 228.634 79.9239 228.512 79.7129 228.27C79.8853 229.01 80.0001 229.475 80.0001 229.475L80.0222 229.59C80.1205 230.107 80.6043 230.436 81.0901 230.316L85.6043 229.205C87.9666 226.71 90.5688 227.983 90.5688 227.983L103.582 224.781C103.582 224.781 103.417 223.897 103.193 222.987L90.2049 226.184Z" fill="#823A51"/>
<path d="M98.6901 221.645C99.4745 221.311 99.9305 220.852 100.196 220.467C96.281 219.417 89.1173 218.221 87.9465 218.476C87.8379 218.5 87.7355 218.464 87.6356 218.391C87.3124 218.996 86.6763 220.269 86.7375 220.813C86.8199 221.54 97.0761 222.332 98.6901 221.645Z" fill="#823A51"/>
<path d="M87.9172 221.996C87.8961 221.996 87.8755 221.993 87.8544 221.987C87.7129 221.951 87.6264 221.8 87.6609 221.651C88.1931 219.345 89.3202 217.922 89.368 217.863C89.4617 217.745 89.628 217.73 89.7391 217.83C89.8498 217.93 89.8642 218.105 89.77 218.222C89.7592 218.236 88.6743 219.612 88.173 221.782C88.1431 221.91 88.0356 221.996 87.9172 221.996Z" fill="#FFAD35"/>
<path d="M89.5079 222.213C89.4868 222.213 89.4652 222.21 89.4441 222.204C89.3026 222.167 89.2166 222.016 89.2521 221.866C89.7884 219.583 90.9027 218.177 90.95 218.119C91.0437 218.001 91.2099 217.987 91.3211 218.086C91.4323 218.186 91.4462 218.361 91.352 218.479C91.3412 218.492 90.2686 219.851 89.7632 222.001C89.7339 222.128 89.6258 222.213 89.5079 222.213Z" fill="#FFAD35"/>
<path d="M91.0978 222.437C91.0767 222.437 91.0551 222.435 91.0335 222.429C90.8919 222.392 90.8065 222.24 90.842 222.091C91.3814 219.827 92.4859 218.433 92.5327 218.375C92.6264 218.257 92.7926 218.242 92.9043 218.342C93.0155 218.442 93.0294 218.617 92.9352 218.734C92.9244 218.748 91.8611 220.095 91.3536 222.227C91.3232 222.353 91.2157 222.437 91.0978 222.437Z" fill="#FFAD35"/>
<path d="M92.7128 222.556C92.6906 222.556 92.6675 222.554 92.6448 222.547C92.5043 222.507 92.421 222.355 92.458 222.206C93.0087 220.024 94.0694 218.686 94.1142 218.63C94.2084 218.512 94.3741 218.498 94.4853 218.597C94.5965 218.697 94.6103 218.872 94.5162 218.99C94.5059 219.003 93.4853 220.295 92.967 222.35C92.9361 222.474 92.8296 222.556 92.7128 222.556Z" fill="#FFAD35"/>
<path d="M94.326 222.691C94.3029 222.691 94.2787 222.687 94.255 222.68C94.1145 222.639 94.0332 222.485 94.0723 222.337C94.6323 220.227 95.6539 218.939 95.6971 218.884C95.7903 218.767 95.957 218.752 96.0682 218.852C96.1794 218.952 96.1933 219.127 96.0991 219.245C96.0893 219.257 95.1068 220.501 94.5803 222.487C94.5468 222.61 94.4413 222.691 94.326 222.691Z" fill="#FFAD35"/>
<path d="M96.3037 222.849C96.2816 222.849 96.259 222.846 96.2363 222.839C96.0958 222.8 96.0114 222.648 96.049 222.499C96.4406 220.934 97.1035 219.79 97.4633 219.247C97.5472 219.122 97.7114 219.091 97.8308 219.18C97.9496 219.269 97.9785 219.442 97.8951 219.568C97.5549 220.08 96.9296 221.16 96.5585 222.641C96.5271 222.766 96.4211 222.849 96.3037 222.849Z" fill="#FFAD35"/>
<path d="M45.3957 202.953L42.7832 218.579C43.5284 218.659 44.4353 219.221 45.6087 219.221C47.2129 219.221 48.6329 218.555 49.3761 218.837L52.1702 205.782C48.6432 205.406 46.4085 203.848 45.3957 202.953Z" fill="#EE957C"/>
<path d="M45.0645 204.936C46.3347 206.71 48.6759 209.814 50.8699 211.859L52.1705 205.782C48.6434 205.406 46.4083 203.848 45.3959 202.953L45.0645 204.936Z" fill="#D87E7C"/>
<path d="M79.0206 181.19C78.8826 176.129 80.1837 168.518 77.6032 162.504C72.3206 150.193 67.0386 133.253 67.0386 133.253H67.0381C66.6969 142.051 65.545 154.06 64.6855 162.613C67.2254 165.914 68.7241 169.514 68.9835 176.919C69.2825 185.459 73.6217 203.964 73.6217 203.964C76.7637 204.438 81.4024 201.908 81.4024 201.908C81.4024 201.908 79.1585 186.251 79.0206 181.19Z" fill="#5C4346"/>
<path d="M80.9526 202.139C79.8497 202.685 76.9254 204.004 74.4951 204.016C75.1683 206.595 76.9691 213.31 78.5877 217.684C79.3196 216.926 80.6181 217.677 82.1775 217.293C83.4503 216.98 84.51 216.263 85.283 216.059C84.3175 213.072 82.3021 206.774 80.9526 202.139Z" fill="#EE957C"/>
<path d="M67.0386 133.254C66.6969 142.053 65.545 154.06 64.6855 162.614C65.0906 163.141 65.4663 163.677 65.8178 164.234C66.3412 155.995 68.8718 146.017 69.6119 141.124C68.4853 137.728 67.0386 133.254 67.0386 133.254Z" fill="#523F46"/>
<path d="M81.3345 203.435C81.2033 202.993 81.0746 202.557 80.9526 202.139C79.8497 202.685 76.9254 204.004 74.4951 204.016C74.7586 205.026 75.1966 206.674 75.7272 208.562C75.7396 208.548 75.756 208.529 75.7669 208.516C76.896 207.156 78.1379 205.901 79.4745 204.77C80.0093 204.318 80.7478 203.92 81.3345 203.435Z" fill="#D87E7C"/>
<path d="M306.105 117.399C306.105 117.399 309.935 123.246 310.467 130.668C310.999 138.09 311.212 148.097 313.658 153.495C313.658 153.495 303.445 157.318 296.424 156.418L295.474 154.383C295.474 154.383 287.517 158.559 282.696 154.737L281.558 140.583L283.74 116.809L306.105 117.399Z" fill="#3F4732"/>
<path d="M310.467 130.668C309.935 123.246 306.106 117.399 306.106 117.399L283.741 116.81L283.387 120.665C284.732 120.807 286.056 120.823 287.099 120.853C288.22 120.884 289.35 120.916 290.446 121.171C291.9 121.508 293.247 122.225 294.576 122.934C296.254 123.83 297.932 124.725 299.61 125.621C302.263 127.037 304.933 128.465 307.288 130.382C308.493 131.362 309.601 132.461 310.66 133.615C310.598 132.6 310.535 131.613 310.467 130.668Z" fill="#393548"/>
<path d="M300.875 65.3529C300.875 65.3529 297.143 63.2281 295.818 63.1296C294.493 63.0306 286.39 68.0604 286.39 68.0604C286.39 68.0604 284.154 74.8343 283.859 78.5596C283.563 82.2849 284.082 112.405 284.804 117.445C284.804 117.445 292.766 119.989 299.339 118.13C299.339 118.13 298.732 83.8299 299.83 77.9814C300.928 72.1323 300.875 65.3529 300.875 65.3529Z" fill="#D5EFE8"/>
<path d="M293.86 69.3186C291.984 70.9778 289.481 71.821 287.042 71.6149C286.776 71.5926 286.505 71.5561 286.264 71.4337C285.705 71.1503 285.422 70.4436 285.455 69.7892C285.487 69.1353 285.778 68.5266 286.111 67.9744C287.514 65.6521 289.775 64.0315 292.241 63.2171C293.336 62.8554 294.884 62.3652 296.034 62.6644C297.394 63.018 296.956 64.3296 296.559 65.3708C295.979 66.8913 295.05 68.2655 293.86 69.3186Z" fill="#86E7EE"/>
<path d="M300.875 65.3529C300.875 65.3529 299.307 70.6373 297.496 76.0131C294.668 84.407 296.22 99.6216 297.344 104.393C297.344 104.393 294.471 106.313 292.725 108.01C292.725 108.01 295.321 112.152 295.557 115.146C295.557 115.146 297.068 114.696 297.965 114.397L297.871 122.731C297.871 122.731 300.798 123.579 303.489 122.731C306.18 121.883 309.201 122.331 309.674 122.232C310.146 122.132 308.305 111.852 308.729 108.459C308.729 108.459 315.533 104.959 316.477 102.58C317.421 100.201 316.114 93.1393 314.734 89.6088C313.355 86.0782 312.338 74.4888 308.708 70.8816C305.077 67.2738 300.875 65.3529 300.875 65.3529Z" fill="#263238"/>
<path d="M297.965 114.397C303.31 114.477 307.673 117.865 309.57 119.608C309.205 116.302 308.439 110.775 308.729 108.458L297.965 114.397Z" fill="#2D2727"/>
<path d="M297.345 104.392C297.345 104.392 304.604 99.2881 308.141 97.4995C308.141 97.4995 302.22 85.3057 301.297 78.5585C301.297 78.5585 301.638 87.6852 306.074 96.5714L297.345 104.392Z" fill="#2D2727"/>
<path d="M275.498 116.431C275.221 99.6467 276.659 78.3317 278.713 74.5977C280.767 70.8637 286.111 67.9756 286.111 67.9756C286.111 67.9756 282.393 77.4706 285.452 118.81L279.68 117.382V123.108L275.464 122.043L275.498 116.431Z" fill="#263238"/>
<path d="M279.652 80.5876V113.431L281.123 115.051C281.579 104.346 279.652 80.5876 279.652 80.5876Z" fill="#2D2727"/>
<path d="M302.112 65.9921C301.352 65.5721 300.876 65.3529 300.876 65.3529C300.876 65.3529 299.307 70.6373 297.496 76.0131C294.669 84.407 296.22 99.6216 297.345 104.393C297.345 104.393 296.093 105.231 294.74 106.287L298.647 103.491C295.122 85.9009 298.082 76.9113 299.64 73.4259C300.848 70.7227 301.761 67.3673 302.112 65.9921Z" fill="#97916B"/>
<path d="M299.558 123.035V113.508L297.923 114.41C297.936 114.406 297.952 114.401 297.965 114.397L297.871 122.73C297.871 122.73 298.553 122.926 299.558 123.035Z" fill="#97916B"/>
<path d="M299.558 114.526V113.518L297.965 114.397C298.508 114.405 299.037 114.455 299.558 114.526Z" fill="#87776B"/>
<path d="M292.718 155.498C294.362 154.967 295.473 154.383 295.473 154.383C295.473 154.383 291.707 142.429 291.04 136.56C291.04 136.56 291.857 150.165 292.718 155.498Z" fill="#393548"/>
<path d="M334.533 205.925C334.533 205.925 330.71 197.844 328.205 190.597C325.7 183.351 318.83 176.526 317.49 173.694C316.328 171.236 313.221 157.51 312.42 153.925C309.703 154.827 303.026 156.812 297.649 156.525L297.608 156.555C301.17 170.97 310.031 178.658 312.706 182.545C315.381 186.433 327.982 208.411 327.982 208.411C327.982 208.411 328.162 209.084 328.046 210.253C328.305 211.481 330.37 210.731 332.758 210.253C335.146 209.776 334.533 205.925 334.533 205.925Z" fill="#EE957C"/>
<path d="M335.181 206.189C334.974 205.952 334.612 206.042 334.508 206.345C333.781 208.472 331.69 210.042 329.537 209.964C328.951 209.943 328.221 209.888 327.932 210.427C327.8 210.673 327.813 210.974 327.803 211.256C327.724 213.51 326.796 215.622 325.807 217.619C324.817 219.616 323.711 221.57 323.069 223.721C322.77 224.725 322.579 225.833 322.94 226.814C323.477 228.281 325.073 229 326.554 229.153C327.162 229.216 327.782 229.21 328.378 229.07C330.313 228.617 331.736 226.831 332.563 224.928C333.838 221.997 334.092 218.533 335.989 216.006C336.624 215.159 337.434 214.435 337.862 213.455C338.208 212.662 338.274 211.769 338.318 210.899C338.334 210.586 338.347 210.265 338.259 209.966C338.147 209.583 337.884 209.273 337.628 208.977C336.881 208.113 335.981 207.103 335.181 206.189Z" fill="#8B5346"/>
<path d="M338.259 209.965C338.147 209.582 337.884 209.272 337.627 208.976C337.606 208.952 337.583 208.925 337.562 208.901C337.561 208.918 337.56 208.935 337.559 208.953C337.515 209.824 337.449 210.717 337.103 211.509C336.675 212.49 335.866 213.214 335.231 214.06C333.334 216.587 333.08 220.051 331.805 222.982C330.977 224.885 329.554 226.671 327.62 227.124C327.023 227.264 326.259 226.265 325.686 226.042C323.752 225.291 323.396 225.667 322.751 225.813C322.766 226.155 322.82 226.492 322.939 226.814C323.477 228.28 325.072 228.999 326.553 229.152C327.162 229.215 327.781 229.209 328.377 229.069C330.312 228.616 331.735 226.83 332.563 224.927C333.837 221.996 334.092 218.532 335.988 216.005C336.623 215.159 337.433 214.434 337.861 213.454C338.207 212.662 338.273 211.769 338.317 210.898C338.334 210.585 338.346 210.265 338.259 209.965Z" fill="#B8A994"/>
<path d="M331.574 212.787C331.493 212.7 331.363 212.701 331.248 212.709C330.383 212.769 329.499 212.855 328.64 212.688C328.301 212.623 327.972 212.505 327.659 212.548C327.354 214.321 326.605 216.008 325.806 217.619C325.437 218.364 325.051 219.105 324.679 219.851C324.835 220.336 325.388 220.568 325.878 220.674C326.676 220.847 327.548 220.9 328.264 220.489C328.949 220.095 329.379 219.336 329.652 218.564C329.926 217.792 330.079 216.974 330.388 216.217C330.815 215.178 331.541 214.238 331.64 213.11C331.651 212.997 331.649 212.868 331.574 212.787Z" fill="#613C3C"/>
<path d="M331.823 214.543C331.822 214.543 331.821 214.543 331.819 214.543C329.872 214.509 326.996 213.912 326.874 213.887C326.732 213.857 326.639 213.71 326.667 213.559C326.695 213.408 326.826 213.306 326.977 213.339C327.006 213.346 329.928 213.952 331.828 213.986C331.973 213.988 332.089 214.115 332.087 214.269C332.084 214.421 331.967 214.543 331.823 214.543Z" fill="#B8A994"/>
<path d="M331.491 215.831C331.49 215.831 331.489 215.831 331.487 215.831C329.539 215.797 326.664 215.201 326.543 215.175C326.4 215.145 326.307 214.999 326.335 214.848C326.362 214.698 326.496 214.598 326.645 214.628C326.674 214.635 329.597 215.241 331.496 215.274C331.641 215.277 331.757 215.403 331.755 215.557C331.752 215.71 331.634 215.831 331.491 215.831Z" fill="#B8A994"/>
<path d="M331.002 217.121C331 217.121 330.999 217.121 330.998 217.121C329.05 217.086 326.174 216.49 326.054 216.464C325.91 216.434 325.818 216.288 325.846 216.137C325.874 215.986 326.009 215.884 326.156 215.917C326.185 215.923 329.107 216.529 331.006 216.563C331.153 216.566 331.268 216.692 331.266 216.846C331.262 216.999 331.145 217.121 331.002 217.121Z" fill="#B8A994"/>
<path d="M330.364 218.409C330.362 218.409 330.361 218.409 330.359 218.409C328.412 218.375 325.536 217.778 325.414 217.753C325.272 217.723 325.179 217.576 325.207 217.425C325.235 217.275 325.364 217.172 325.517 217.206C325.546 217.212 328.468 217.819 330.368 217.852C330.513 217.855 330.629 217.981 330.627 218.135C330.624 218.288 330.507 218.409 330.364 218.409Z" fill="#B8A994"/>
<path d="M329.836 219.699C329.834 219.699 329.833 219.699 329.831 219.699C327.885 219.664 325.009 219.068 324.888 219.042C324.744 219.012 324.652 218.866 324.68 218.715C324.708 218.564 324.843 218.462 324.99 218.495C325.019 218.501 327.941 219.107 329.841 219.141C329.987 219.144 330.102 219.27 330.1 219.424C330.097 219.577 329.979 219.699 329.836 219.699Z" fill="#B8A994"/>
<path d="M297.291 156.502C296.998 156.481 296.708 156.454 296.424 156.418L295.474 154.383C295.474 154.383 289.142 157.702 284.353 155.705C284.345 157.329 284.535 160.462 285.696 165.193C287.484 172.481 290.548 214.189 289.91 219.993L289.996 221.907L297.608 221.09C297.608 221.09 296.56 212.205 297.608 205.771C298.657 199.337 299.047 183.824 297.608 174.202C296.647 167.769 296.971 160.57 297.291 156.502Z" fill="#EE957C"/>
<path d="M288.803 220.896C290.114 219.86 292.919 221.329 294.508 220.918C295.423 220.683 296.303 220.236 297.243 220.224C297.458 220.222 297.688 220.249 297.85 220.397C297.989 220.525 298.053 220.721 298.093 220.91C298.214 221.486 298.202 222.084 298.108 222.665C297.673 225.333 298.751 228.061 298.499 230.692C298.447 231.237 297.998 231.646 297.48 231.646H291.227C291.227 231.646 290.233 230.503 287.746 231.646H273.311C272.689 231.646 272.2 231.061 272.3 230.412C272.503 229.091 273.142 227.155 275.128 226.941C278.174 226.612 285.528 223.484 288.803 220.896Z" fill="#8B5346"/>
<path d="M297.986 229.503H291.608C291.608 229.503 290.593 228.36 288.058 229.503H273.336C273.048 229.503 272.792 229.379 272.604 229.187C272.454 229.609 272.359 230.035 272.301 230.411C272.201 231.061 272.69 231.645 273.312 231.645H287.747C290.234 230.503 291.228 231.645 291.228 231.645H297.481C297.999 231.645 298.448 231.236 298.5 230.691C298.542 230.247 298.538 229.8 298.518 229.351C298.361 229.447 298.178 229.503 297.986 229.503Z" fill="#B8A994"/>
<path d="M287.824 221.606C287.822 221.605 287.82 221.605 287.819 221.604C285.468 223.19 281.945 224.86 279.008 225.907C279.026 226.039 279.06 226.168 279.122 226.287C279.199 226.435 279.311 226.566 279.455 226.642C279.649 226.745 279.877 226.74 280.093 226.731C282.941 226.622 285.926 226.396 288.336 224.789C288.633 224.591 288.924 224.368 289.127 224.064C289.329 223.761 289.431 223.363 289.321 223.011C289.135 222.425 288.326 221.87 287.824 221.606Z" fill="#613C3C"/>
<path d="M289.364 225.431C289.32 225.431 289.275 225.42 289.235 225.396C287.288 224.24 286.25 222.122 286.206 222.034C286.141 221.897 286.192 221.729 286.321 221.658C286.45 221.59 286.609 221.642 286.676 221.78C286.686 221.8 287.689 223.839 289.493 224.91C289.62 224.986 289.665 225.156 289.593 225.289C289.545 225.38 289.456 225.431 289.364 225.431Z" fill="#B8A994"/>
<path d="M287.663 226.072C287.619 226.072 287.574 226.061 287.534 226.037C285.587 224.88 284.548 222.763 284.505 222.673C284.439 222.536 284.491 222.369 284.62 222.298C284.748 222.229 284.908 222.281 284.975 222.419C284.985 222.439 285.988 224.479 287.792 225.551C287.919 225.626 287.964 225.796 287.893 225.93C287.844 226.021 287.755 226.072 287.663 226.072Z" fill="#B8A994"/>
<path d="M285.707 226.727C285.655 226.727 285.602 226.711 285.556 226.677C283.939 225.485 283.08 223.731 283.044 223.657C282.979 223.52 283.029 223.352 283.159 223.282C283.287 223.212 283.447 223.266 283.514 223.403C283.522 223.42 284.352 225.11 285.858 226.22C285.977 226.307 286.006 226.482 285.923 226.608C285.871 226.685 285.79 226.727 285.707 226.727Z" fill="#B8A994"/>
<path d="M283.671 227.223C283.615 227.223 283.56 227.205 283.512 227.167C282.019 225.981 281.228 224.365 281.195 224.297C281.129 224.16 281.18 223.992 281.31 223.922C281.438 223.853 281.597 223.905 281.664 224.043C281.672 224.059 282.436 225.617 283.829 226.722C283.945 226.814 283.968 226.989 283.881 227.112C283.83 227.185 283.75 227.223 283.671 227.223Z" fill="#B8A994"/>
<path d="M281.429 227.446C281.362 227.446 281.294 227.419 281.242 227.364C280.268 226.333 279.754 225.283 279.733 225.238C279.667 225.101 279.718 224.934 279.848 224.863C279.975 224.795 280.136 224.846 280.202 224.984C280.207 224.995 280.702 226.004 281.616 226.971C281.718 227.08 281.718 227.256 281.615 227.365C281.564 227.42 281.497 227.446 281.429 227.446Z" fill="#B8A994"/>
<path d="M275.794 48.2343C275.794 48.2343 275.129 49.8407 275.794 51.1958C276.459 52.5509 277.551 54.5589 277.551 56.1653C277.551 57.7717 277.076 58.826 277.551 58.9761C278.026 59.1268 278.975 59.0768 279.165 59.5283C279.355 59.9798 281.635 65.3513 283.439 65.2506C285.244 65.15 286.526 63.4935 286.526 63.4935C286.526 63.4935 286.954 68.1621 286.906 69.8186C286.906 69.8186 293.539 69.768 295.819 63.129L294.654 57.7211C294.654 57.7211 294.865 54.1052 295.337 52.6799C295.809 51.2546 294.798 42.9874 291.898 42.488C288.999 41.9892 277.401 44.2696 276.862 45.1248C276.323 45.9805 275.794 48.2343 275.794 48.2343Z" fill="#EE957C"/>
<path d="M277.037 42.4119C275.473 43.1996 274.067 44.5308 273.874 46.5196C273.806 47.2301 273.992 47.952 274.369 48.545C274.556 48.8398 274.806 49.1347 275.133 49.2538C275.301 49.3153 275.482 49.3272 275.658 49.3131C276.713 49.2282 277.493 48.2768 278.145 47.3966C278.483 48.6097 279.601 49.5378 280.791 49.6705C281.98 49.8032 283.202 49.1907 283.918 48.1778C284.39 49.0944 285.139 49.9354 286.059 50.313C286.979 50.6905 288.118 50.5567 288.822 49.8255C289.188 51.0756 289.637 52.7218 290.34 53.9567C290.529 54.2874 291.012 54.1525 291.026 53.7668C291.061 52.8203 291.106 51.7698 291.126 50.9723C291.136 50.5855 291.145 50.1938 291.098 49.8119C290.995 48.9747 291.662 48.2006 292.453 48.3132C293.061 48.3997 293.567 48.929 293.755 49.5481C293.947 50.1775 293.849 50.8755 293.601 51.4826C293.317 52.1805 292.836 52.7882 292.237 53.2087C292.08 54.7683 293.005 56.3601 294.17 57.3311C294.698 57.7707 295.384 58.1368 296.024 57.9175C296.104 57.8903 296.186 57.8501 296.231 57.775C296.267 57.7152 296.275 57.6417 296.281 57.571C296.348 56.8023 296.335 56.026 296.241 55.2601C296.241 55.2601 300.708 50.5061 295.223 44.6657C295.223 44.6657 296.262 39.2893 292.542 37.8809C289.82 36.85 287.667 38.482 287.667 38.482C287.667 38.482 286.148 34.8993 282.385 35.5619C277.022 36.5079 277.037 42.4119 277.037 42.4119Z" fill="#5C364B"/>
<path d="M289.541 59.6818C289.224 60.7061 287.091 62.9371 286.528 63.5137C286.542 63.6579 286.74 65.8518 286.845 67.7302C288.782 65.9253 289.541 59.6818 289.541 59.6818Z" fill="#D87E7C"/>
<path d="M280.554 54.0508C280.745 54.6068 280.733 55.1214 280.526 55.2008C280.32 55.2803 279.997 54.894 279.806 54.3386C279.614 53.7826 279.627 53.268 279.833 53.1886C280.04 53.1092 280.363 53.4954 280.554 54.0508Z" fill="#5C364B"/>
<path d="M278.282 52.6103C278.213 52.6103 278.143 52.5815 278.091 52.5238C277.991 52.4123 277.995 52.2361 278.1 52.13C278.789 51.4369 279.848 51.2068 280.741 51.5593C280.877 51.6132 280.946 51.7736 280.895 51.9178C280.844 52.0631 280.693 52.1343 280.555 52.081C279.85 51.8025 279.009 51.9842 278.464 52.5336C278.413 52.5848 278.348 52.6103 278.282 52.6103Z" fill="#5C364B"/>
<path d="M281.454 62.3266C281.316 62.3266 281.201 62.214 281.191 62.0671C281.181 61.9137 281.29 61.781 281.436 61.7701C281.944 61.7336 282.381 61.4491 282.658 61.2174C283.025 60.9111 283.339 60.5178 283.654 60.1076C283.746 59.9879 283.912 59.97 284.025 60.0674C284.138 60.1647 284.155 60.3399 284.063 60.4596C283.728 60.8948 283.394 61.3137 282.985 61.6548C282.504 62.0573 281.981 62.2891 281.472 62.3261C281.466 62.3266 281.46 62.3266 281.454 62.3266Z" fill="#5C364B"/>
<path d="M292.401 49.2114C292.626 49.2544 292.854 49.3572 292.987 49.5547C293.1 49.7238 293.13 49.9414 293.119 50.1487C293.093 50.6465 292.857 51.1007 292.626 51.5359C292.584 51.6159 292.529 51.7056 292.443 51.7171C292.403 51.7225 292.362 51.7094 292.321 51.7149C292.208 51.7307 292.16 51.8726 292.142 51.9912C292.126 52.0984 292.113 52.211 292.052 52.2986C291.992 52.3862 291.867 52.4351 291.785 52.3693C291.729 51.6202 291.706 50.8586 291.616 50.1133C291.589 49.8865 291.5 49.7075 291.62 49.4948C291.785 49.2032 292.108 49.1554 292.401 49.2114Z" fill="#D87E7C"/>
<path d="M290.948 136.657L275.656 146.955C274.964 147.421 274.051 147.269 273.528 146.6L249.583 115.99L275.416 98.594L291.543 134.468C291.896 135.252 291.641 136.19 290.948 136.657Z" fill="#FF4C58"/>
<path d="M275.416 98.5945L249.583 115.991L255.732 123.851C261.255 113.699 272.771 102.159 275.725 99.2821L275.416 98.5945Z" fill="#B24958"/>
<path d="M277.762 97.0153L247 117.73L244.531 114.526L276.07 94.2404L277.762 97.0153Z" fill="#FF6F58"/>
<path d="M282.529 123.551L278.354 121.053L277.51 122.629L281.612 125.084L277.728 127.844L277.852 126.015L276.143 125.886L275.847 130.273L279.802 131.639L280.335 129.917L278.685 129.347L282.638 126.538C283.12 126.195 283.394 125.625 283.372 125.012C283.348 124.4 283.034 123.853 282.529 123.551Z" fill="white"/>
<path d="M273.22 120.061L271.61 120.51L272.045 122.261L276.07 121.142L276.016 116.743L274.303 116.767L274.326 118.641L269.694 115.87C269.142 115.54 268.473 115.567 267.947 115.941C267.421 116.314 267.145 116.959 267.226 117.623L267.851 122.749L269.551 122.517L268.939 117.499L273.22 120.061Z" fill="white"/>
<path d="M270.268 128.388L271.688 129.26L272.549 127.695L268.952 125.485L266.052 128.64L267.281 129.902L268.556 128.515L269.114 133.086C269.188 133.694 269.548 134.208 270.076 134.461C270.605 134.714 271.208 134.661 271.689 134.318L275.242 131.793L274.286 130.29L270.802 132.766L270.268 128.388Z" fill="white"/>
<path d="M255.857 105.985L256.681 98.5945L258.637 97.8901L259.976 99.9322L262.655 98.5945C262.655 98.5945 264.403 91.1428 264.712 91.1428C265.021 91.1428 270.648 91.1428 270.648 91.1428L273.025 96.1988L256.578 106.814L255.857 105.985Z" fill="#A8A8C5"/>
<path d="M249.174 111.54L247.87 108.57L249.583 107.735L251.476 102.907L253.14 103.309V104.862L256.469 104.178L257.81 105.985L249.174 111.54Z" fill="#C4C7E6"/>
<path d="M266.825 100.2V97.8193C266.825 97.8193 268.933 98.2926 268.933 97.8193C268.933 97.346 268.933 95.9316 268.933 95.9316L271.641 94.23H273.772L274.048 95.541L266.825 100.2Z" fill="#C4C7E6"/>
<path d="M292.994 108.458C292.992 108.459 289.695 110.682 288.301 110.527C286.907 110.372 284.118 109.441 282.724 109.054C281.33 108.666 280.187 107.813 279.526 107.735L281.427 111.963C281.427 111.963 279.518 114.063 277.211 114.502C274.904 114.94 273.608 114.912 273.608 114.912C273.608 114.912 272.779 114.803 272.623 115.323C272.468 115.844 272.516 116.494 273.423 116.714C273.423 116.714 272.467 116.909 271.964 116.714C271.461 116.518 270.861 117.636 271.662 118.184C272.463 118.732 273.85 118.809 273.85 118.809C273.85 118.809 273.457 119.768 273.981 120.045C274.504 120.322 275.878 120.677 277.711 120.608C277.711 120.608 277.154 120.944 277.154 121.29C277.154 121.636 277.438 122.049 278.289 122.152C279.139 122.256 283.273 122.224 284.679 121.498C286.086 120.772 289.816 117.798 291.648 116.345C293.106 115.19 294.828 114.67 295.474 114.505C295.078 112.213 293.604 109.507 292.994 108.458Z" fill="#EE957C"/>
<path d="M291.649 116.345C291.995 116.071 292.355 115.834 292.714 115.628C292.703 115.329 292.558 115.017 292.41 114.745C291.689 113.418 291.047 112.043 290.488 110.631C290.409 110.432 290.25 110.214 290.084 110.082C289.91 110.157 289.739 110.226 289.571 110.287C289.562 110.329 289.549 110.359 289.544 110.411C289.468 111.172 289.891 112.143 289.989 112.91C290.193 114.51 290.154 116.14 289.896 117.731C290.559 117.21 291.17 116.725 291.649 116.345Z" fill="#D87E7C"/>
<path d="M293.058 116.318C292.736 116.481 292.35 116.336 292.196 115.995L289.551 110.134C289.398 109.793 289.534 109.385 289.857 109.223C290.179 109.06 290.565 109.205 290.719 109.545L293.364 115.407C293.517 115.748 293.381 116.156 293.058 116.318Z" fill="#FFD041"/>
<path d="M273.38 116.989C273.444 117 274.013 117.093 274.868 117.093C276.443 117.093 278.987 116.777 281.122 115.051C281.238 114.957 281.26 114.783 281.172 114.661C281.083 114.538 280.917 114.516 280.803 114.609C277.69 117.124 273.506 116.446 273.455 116.438L272.759 116.345C272.894 116.505 273.103 116.637 273.423 116.714C273.423 116.714 272.466 116.91 271.963 116.714C271.857 116.673 271.749 116.699 271.648 116.757L273.38 116.989Z" fill="#BE6B67"/>
<path d="M283.252 119.221C281.416 120.225 279.208 120.345 278.206 120.345C277.881 120.345 277.688 120.333 277.664 120.333L276.354 120.581C276.77 120.613 277.223 120.627 277.711 120.608C277.711 120.608 277.467 120.758 277.302 120.96L277.692 120.885C277.823 120.896 280.938 121.114 283.493 119.716C283.623 119.645 283.674 119.477 283.607 119.341C283.54 119.203 283.38 119.151 283.252 119.221Z" fill="#BE6B67"/>
<path d="M273.757 119.112L273.857 119.091C274.359 119.158 278.471 119.62 282.369 117.187C282.494 117.109 282.535 116.938 282.462 116.805C282.388 116.673 282.226 116.629 282.101 116.707C278.194 119.145 273.929 118.539 273.886 118.533C273.856 118.528 273.827 118.529 273.799 118.535L273.024 118.695C273.486 118.788 273.849 118.808 273.849 118.808C273.849 118.808 273.798 118.937 273.757 119.112Z" fill="#BE6B67"/>
<path d="M296.97 164.199C296.98 161.193 297.135 158.478 297.291 156.502C296.998 156.481 296.708 156.455 296.424 156.418L295.474 154.384C295.474 154.384 289.142 157.702 284.353 155.706C284.35 156.232 284.373 156.934 284.439 157.78C285.237 158.042 286.308 158.081 286.91 158.251C289.483 158.978 291.937 160.174 294.133 161.767C295.139 162.495 296.087 163.31 296.97 164.199Z" fill="#D87E7C"/>
<path d="M312.419 153.925C309.702 154.827 303.025 156.812 297.648 156.525L297.607 156.555C297.722 157.018 297.856 157.455 297.981 157.904C298.263 158.049 298.64 158.152 299.161 158.182C302.02 158.346 304.931 158.177 307.796 158.193C309.365 158.202 310.953 158.216 312.47 158.641C312.848 158.747 313.217 158.884 313.582 159.031C313.072 156.83 312.65 154.957 312.419 153.925Z" fill="#D87E7C"/>
<path d="M344.629 231.645H21.3711V237.325H344.629V231.645Z" fill="#164C3E"/>
<path d="M163.883 241.974C161.732 243.27 162.141 246.694 164.501 247.486C166.101 248.023 167.76 248.274 169.405 248.333C175.406 248.547 181.315 246.325 187.309 245.876C199.215 244.985 210.907 251.098 222.83 250.946C224.686 250.922 226.646 250.697 228.172 249.22C228.923 248.492 229.57 247.321 229.465 246.051C229.305 244.126 227.662 243.286 226.295 242.962C221.149 241.741 215.891 241.948 210.671 242.06C201.655 242.252 192.636 242.147 183.623 241.746C179.094 241.544 174.507 241.479 169.992 240.913C167.782 240.636 165.733 240.861 163.883 241.974Z" fill="#DAE2F0"/>
<path d="M208.347 230.512C208.47 230.505 208.601 230.491 208.746 230.465C210.586 230.132 215.517 230.499 217.675 230.493C217.696 231.599 217.782 233.981 218.129 235.1C218.59 236.585 222.02 240.573 222.993 242.984C223.965 245.396 221.252 246.25 221.252 246.25H215.757C213.016 246.31 211.144 243.707 209.941 242.556C208.738 241.405 208.805 238.318 208.872 234.866C208.939 231.415 208.346 230.513 208.346 230.513L208.347 230.512Z" fill="#4B455E"/>
<path d="M208.873 234.866C208.94 231.415 208.347 230.514 208.347 230.514L208.348 230.512C208.47 230.505 208.601 230.491 208.747 230.465C209.244 230.375 209.972 230.337 210.806 230.328C211.182 231.53 212.293 235.234 212.385 237.3C212.464 239.095 211.062 241.607 210.312 242.929C210.183 242.795 210.059 242.667 209.943 242.555C208.739 241.405 208.806 238.317 208.873 234.866Z" fill="#6C6387"/>
<path d="M213.539 243.302C215.414 243.122 216.45 241.641 219.042 242.544C221.631 243.446 222.583 243.844 222.926 242.837C222.947 242.885 222.973 242.937 222.992 242.984C223.964 245.395 221.251 246.249 221.251 246.249H215.756C213.015 246.31 211.144 243.706 209.94 242.555C209.257 241.902 208.983 240.622 208.887 239.007C209.595 240.078 211.96 243.454 213.539 243.302Z" fill="#332C47"/>
<path d="M215.24 230.43C216.189 230.465 217.05 230.495 217.676 230.493C217.697 231.599 217.782 233.982 218.13 235.101C218.361 235.846 219.341 237.223 220.383 238.714C220.377 238.801 220.363 238.891 220.291 238.945C220.223 238.995 220.128 238.998 220.041 238.994C219.049 238.956 218.145 238.401 217.547 237.682C216.95 236.963 216.621 236.092 216.366 235.222C216.129 234.409 215.949 233.582 215.829 232.748C215.74 232.132 215.767 231.485 215.512 230.901C215.443 230.743 215.342 230.586 215.24 230.43Z" fill="#6C6387"/>
<path d="M211.549 237.369C211.473 237.369 211.4 237.324 211.365 237.246C211.317 237.139 211.361 237.011 211.462 236.96C213.871 235.753 217.556 236.39 217.713 236.417C217.823 236.437 217.898 236.548 217.88 236.665C217.861 236.781 217.76 236.858 217.645 236.841C217.609 236.835 213.928 236.2 211.636 237.349C211.608 237.362 211.579 237.369 211.549 237.369Z" fill="#D7E5E6"/>
<path d="M211.25 235.478C211.175 235.478 211.102 235.432 211.067 235.354C211.018 235.247 211.062 235.119 211.163 235.068C213.57 233.861 217.257 234.498 217.413 234.526C217.524 234.545 217.599 234.657 217.58 234.774C217.561 234.89 217.461 234.967 217.346 234.95C217.31 234.943 213.629 234.307 211.337 235.457C211.309 235.47 211.279 235.478 211.25 235.478Z" fill="#D7E5E6"/>
<path d="M210.764 234.113C210.688 234.113 210.615 234.067 210.58 233.99C210.532 233.883 210.576 233.755 210.677 233.704C213.087 232.497 216.771 233.133 216.928 233.16C217.038 233.18 217.113 233.291 217.094 233.408C217.075 233.525 216.973 233.602 216.86 233.584C216.824 233.578 213.143 232.944 210.85 234.091C210.823 234.106 210.793 234.113 210.764 234.113Z" fill="#D7E5E6"/>
<path d="M210.596 232.423C210.52 232.423 210.447 232.378 210.412 232.3C210.364 232.193 210.408 232.065 210.509 232.014C212.918 230.807 216.603 231.444 216.759 231.471C216.87 231.492 216.944 231.603 216.926 231.72C216.907 231.836 216.802 231.911 216.691 231.896C216.655 231.89 212.975 231.253 210.683 232.402C210.655 232.416 210.625 232.423 210.596 232.423Z" fill="#D7E5E6"/>
<path d="M184.338 230.512C184.215 230.505 184.085 230.491 183.939 230.465C182.1 230.132 177.169 230.499 175.011 230.493C174.989 231.599 174.904 233.981 174.557 235.1C174.096 236.585 170.666 240.573 169.693 242.984C168.72 245.396 171.434 246.25 171.434 246.25H176.928C179.669 246.31 181.541 243.707 182.744 242.556C183.947 241.405 183.88 238.318 183.813 234.866C183.746 231.415 184.339 230.513 184.339 230.513L184.338 230.512Z" fill="#4B455E"/>
<path d="M183.814 234.866C183.747 231.415 184.34 230.514 184.34 230.514L184.339 230.512C184.216 230.505 184.085 230.491 183.94 230.465C183.442 230.375 182.714 230.337 181.88 230.328C181.504 231.53 180.393 235.234 180.302 237.3C180.223 239.095 181.625 241.607 182.375 242.929C182.503 242.795 182.628 242.667 182.744 242.555C183.947 241.405 183.881 238.317 183.814 234.866Z" fill="#6C6387"/>
<path d="M179.145 243.302C177.271 243.122 176.234 241.641 173.643 242.544C171.054 243.446 170.102 243.844 169.759 242.837C169.738 242.885 169.712 242.937 169.693 242.984C168.72 245.395 171.434 246.249 171.434 246.249H176.928C179.669 246.31 181.541 243.706 182.744 242.555C183.427 241.902 183.701 240.622 183.797 239.007C183.09 240.078 180.725 243.454 179.145 243.302Z" fill="#332C47"/>
<path d="M177.445 230.43C176.497 230.465 175.636 230.495 175.01 230.493C174.989 231.599 174.903 233.982 174.556 235.101C174.324 235.846 173.344 237.223 172.303 238.714C172.308 238.801 172.322 238.891 172.395 238.945C172.462 238.995 172.557 238.998 172.644 238.994C173.637 238.956 174.541 238.401 175.138 237.682C175.735 236.963 176.065 236.092 176.319 235.222C176.556 234.409 176.736 233.582 176.857 232.748C176.946 232.132 176.919 231.485 177.174 230.901C177.242 230.743 177.343 230.586 177.445 230.43Z" fill="#6C6387"/>
<path d="M181.137 237.369C181.107 237.369 181.078 237.363 181.05 237.348C178.757 236.2 175.078 236.835 175.041 236.841C174.932 236.857 174.825 236.782 174.807 236.665C174.788 236.547 174.863 236.436 174.973 236.417C175.129 236.39 178.815 235.753 181.224 236.959C181.325 237.011 181.369 237.138 181.32 237.246C181.286 237.323 181.213 237.369 181.137 237.369Z" fill="white"/>
<path d="M181.435 235.478C181.406 235.478 181.377 235.471 181.348 235.457C179.056 234.309 175.377 234.943 175.34 234.95C175.229 234.968 175.124 234.89 175.105 234.774C175.087 234.657 175.161 234.545 175.272 234.526C175.428 234.499 179.113 233.861 181.523 235.068C181.624 235.119 181.667 235.247 181.619 235.354C181.584 235.432 181.511 235.478 181.435 235.478Z" fill="white"/>
<path d="M181.921 234.113C181.892 234.113 181.862 234.106 181.834 234.092C179.54 232.943 175.863 233.578 175.826 233.585C175.715 233.602 175.611 233.526 175.592 233.409C175.573 233.292 175.648 233.18 175.758 233.161C175.914 233.134 179.6 232.497 182.009 233.704C182.11 233.755 182.153 233.883 182.105 233.99C182.07 234.067 181.997 234.113 181.921 234.113Z" fill="white"/>
<path d="M182.089 232.423C182.06 232.423 182.03 232.416 182.002 232.402C179.708 231.253 176.03 231.889 175.994 231.896C175.883 231.913 175.779 231.837 175.76 231.72C175.741 231.603 175.816 231.492 175.927 231.472C176.082 231.445 179.768 230.808 182.177 232.014C182.278 232.065 182.321 232.193 182.273 232.3C182.239 232.377 182.166 232.423 182.089 232.423Z" fill="white"/>
<path d="M202.872 190.937C203.062 192.291 203.226 193.746 203.355 195.339C204.149 205.128 208.177 223.56 208.044 226.217C207.912 228.874 206.457 231.112 207.515 231.671C208.573 232.23 212.939 230.412 216.114 231.112C219.289 231.811 218.496 229.154 217.834 227.756C217.173 226.357 215.791 215.475 215.527 211.281C215.262 207.086 213.633 171.818 212.637 166.551C211.64 161.285 211.332 135.524 208.793 131.923C206.254 128.322 192.757 128.934 192.757 128.934L178.914 131.923C178.914 131.923 178.273 170.316 177.706 180.695C177.14 191.074 177.14 220.214 175.629 225.004C174.119 229.794 173.715 230.43 175.11 230.604C176.506 230.777 182.497 230.17 184.549 230.604C186.601 231.037 186.272 229.042 186.108 228.088C185.944 227.133 184.877 226.092 184.959 224.878C185.041 223.663 188.935 198.555 188.935 188.907C188.935 179.258 193.037 145.697 194.756 145.278C196.476 144.858 197.799 165.834 199.122 173.385C200.229 179.707 201.894 183.971 202.872 190.937Z" fill="#533752"/>
<path d="M183.272 223.12C182.157 224.446 180.77 225.337 179.26 226.078C180.681 226.742 182.361 226.107 183.873 226.486C184.456 226.632 185.057 226.925 185.635 226.944C185.293 226.307 184.908 225.625 184.958 224.877C184.977 224.598 185.197 223.056 185.525 220.733C184.496 220.971 183.94 222.325 183.272 223.12Z" fill="#452F49"/>
<path d="M208.009 226.649C208.602 226.332 209.241 226.109 209.898 226.003C210.633 225.883 211.39 225.903 212.109 225.7C212.189 225.677 212.272 225.649 212.328 225.585C212.439 225.459 212.392 225.242 212.274 225.123C212.156 225.005 211.99 224.96 211.832 224.919C210.984 224.7 210.113 224.476 209.325 224.068C208.817 223.804 208.3 223.274 207.721 223.173C207.944 224.643 208.069 225.714 208.043 226.217C208.037 226.362 208.024 226.506 208.009 226.649Z" fill="#452F49"/>
<path d="M206.967 197.259C207.133 197.132 207.163 196.887 207.172 196.67C207.313 193.07 205.641 189.705 204.083 186.501C203.551 185.406 201.486 179.857 200.124 178.176C201.084 182.222 202.16 185.864 202.872 190.937C203.062 192.29 203.226 193.746 203.356 195.338C203.366 195.466 203.379 195.6 203.391 195.731C204.26 196.609 205.332 197.229 206.521 197.339C206.674 197.353 206.841 197.354 206.967 197.259Z" fill="#452F49"/>
<path d="M194.074 146.668C194.005 146.494 193.924 146.333 193.817 146.205C191.878 143.891 190.658 149.696 190.534 150.921C189.757 158.595 189.095 166.281 188.548 173.977C188.348 176.785 188.166 179.64 188.73 182.393C188.959 181.826 189.174 181.254 189.378 180.679C190.324 169.091 192.58 151.674 194.074 146.668Z" fill="#452F49"/>
<path d="M208.792 131.922C206.254 128.32 192.756 128.932 192.756 128.932L178.914 131.922C178.914 131.922 178.858 135.292 178.764 140.304C178.998 140.357 179.257 140.382 179.548 140.37C182.221 140.262 185.248 138.906 187.885 138.326C190.666 137.714 193.461 137.173 196.267 136.707C200.828 135.948 205.665 135.429 210.088 136.516C209.731 134.311 209.309 132.654 208.792 131.922Z" fill="#452F49"/>
<path d="M155.294 123.67C156.012 123.874 156.766 124.27 157.282 123.705C157.541 123.422 157.717 123.007 158.077 122.904C158.371 122.82 158.693 123.001 158.858 123.271C159.023 123.541 159.055 123.881 159.026 124.202C158.915 125.418 158.032 126.374 157.54 127.479C156.893 128.936 157.078 130.59 157.348 132.174C157.441 132.721 157.63 133.669 157.904 134.143C158.108 134.494 161.135 137.185 161.817 138.869C161.817 138.869 170.85 156.251 167.253 169.323C163.655 182.394 150.961 177.873 148.254 174.195C144.832 169.546 144.768 161.599 149.265 152.567C149.265 152.567 155.496 141.234 155.248 136.777C155 132.321 154.504 130.748 152.355 129.874C150.206 129 148.965 128.651 148.965 127.252C148.965 125.854 149.91 126.247 150.887 126.445C151.863 126.644 152.652 126.286 153.178 125.095C153.704 123.905 154.329 123.394 155.294 123.67Z" fill="#383A4F"/>
<path d="M167.253 169.324C168.571 164.534 168.191 159.167 167.183 154.286C167.109 156.09 166.905 157.884 166.489 159.642C165.245 164.902 161.751 169.92 156.77 171.212C153.186 172.142 149.446 171.035 146.129 169.214C146.52 171.127 147.234 172.81 148.253 174.196C150.961 177.874 163.655 182.395 167.253 169.324Z" fill="#2D2F40"/>
<path d="M158.262 141.772C158.796 141.257 158.881 140.304 158.449 139.692C159.092 139.523 159.419 138.695 159.284 138.01C159.148 137.324 158.676 136.772 158.181 136.307C157.504 135.672 156.028 134.26 155.069 134.53C155.145 135.185 155.201 135.929 155.249 136.778C155.339 138.396 154.573 140.921 153.563 143.481C153.752 144.073 154.019 144.632 154.403 145.119C154.685 145.476 155.031 145.794 155.449 145.938C155.868 146.081 156.366 146.022 156.686 145.702C157.466 144.922 156.718 143.353 157.404 142.48C157.636 142.184 157.993 142.032 158.262 141.772Z" fill="#2D2F40"/>
<path d="M155.372 140.742C154.531 140.384 153.466 139.422 152.985 138.61C152.985 138.61 152.214 139.859 152.808 140.748C153.402 141.637 154.563 142.264 154.984 142.134C155.404 142.003 155.563 141.024 155.372 140.742Z" fill="#CB7D75"/>
<path d="M153.909 130.945C153.909 130.945 152.551 133.401 153.128 135.089C153.704 136.777 156.632 139.449 157.386 139.402C158.14 139.355 158.318 138.324 158.096 137.667C157.874 137.011 155.479 134.76 155.213 133.494C154.947 132.228 153.909 130.945 153.909 130.945Z" fill="#CB7D75"/>
<path d="M156.935 139.259C155.833 138.694 153.621 136.533 153.128 135.088C153.128 135.088 152.287 137.431 152.986 138.61C153.684 139.79 155.615 141.286 156.302 140.787C156.989 140.288 156.939 139.263 156.939 139.263L156.935 139.259Z" fill="#CB7D75"/>
<path d="M156.939 139.263L156.935 139.259C155.833 138.694 153.621 136.534 153.128 135.089C153.128 135.089 153.039 135.339 152.942 135.714C153.587 137.146 155.591 139.087 156.628 139.619L156.632 139.624C156.632 139.624 156.658 140.225 156.362 140.732C156.978 140.216 156.939 139.263 156.939 139.263Z" fill="#B16C6D"/>
<path d="M155.393 141.165C155.414 141.196 155.429 141.239 155.442 141.284C155.466 141.06 155.445 140.85 155.372 140.743C154.531 140.385 153.467 139.423 152.986 138.611C152.986 138.611 152.914 138.734 152.832 138.919C153.387 139.79 154.501 140.784 155.393 141.165Z" fill="#B16C6D"/>
<path d="M185.899 69.9269C185.899 69.9269 173.38 74.4834 170.83 78.1718C168.28 81.8601 167.206 94.1839 165.596 99.1582C165.596 99.1582 168.049 102.714 175.747 102.572C175.747 102.572 177.944 96.0465 178.883 95.9045C179.823 95.7626 180.86 130.098 180.86 130.098C180.86 130.098 197.62 132.003 207.352 130.098C207.352 130.098 208.253 89.4783 209.335 89.3107C210.416 89.1432 217.154 95.7441 217.154 95.7441C217.154 95.7441 222.731 93.808 225.914 88.7254C225.914 88.7254 223.886 87.2462 222.399 85.6746C220.913 84.103 214.616 75.4697 212.342 74.8409C210.068 74.212 199.248 69.4661 197.88 69.297C196.512 69.1278 185.899 69.9269 185.899 69.9269Z" fill="#40AD97"/>
<path d="M177.094 98.9705C176.053 98.8677 175.016 98.7208 174.015 98.4064C173.353 98.1986 172.713 97.9195 172.083 97.6219C170.208 96.7369 168.406 95.6788 166.701 94.4684C166.587 95.0564 166.474 95.6233 166.358 96.1624C168.126 97.4364 169.997 98.5511 171.95 99.4732C172.58 99.7708 173.22 100.05 173.882 100.258C174.701 100.515 175.545 100.656 176.395 100.757C176.601 100.204 176.841 99.5814 177.094 98.9705Z" fill="#78D097"/>
<path d="M211.129 83.5829C211.501 81.2953 212.37 79.2227 213.827 77.4765C214.047 77.2137 214.367 76.9297 214.711 76.6256C213.758 75.6785 212.92 75.0002 212.342 74.8408C211.908 74.7211 211.164 74.4513 210.236 74.0928C209.066 75.0872 208.174 76.4575 207.832 78.0101C207.597 79.0731 207.593 80.1763 207.593 81.2681C207.593 83.8989 207.612 86.5292 207.649 89.1594C207.657 89.7333 207.676 90.3442 207.982 90.8191C208.206 91.1678 208.529 91.3702 208.898 91.4796C209.038 90.1299 209.184 89.334 209.333 89.3112C209.596 89.2704 210.198 89.6349 210.953 90.2033C210.827 87.9952 210.774 85.7665 211.129 83.5829Z" fill="#409A97"/>
<path d="M181.464 95.4492C181.702 94.8524 181.61 94.1713 181.49 93.5365C181.229 92.1569 180.858 90.8034 180.465 89.4592C179.8 87.182 179.074 84.9255 178.287 82.6919C177.478 80.3945 176.587 78.0869 175.145 76.1671C174.901 75.8413 174.618 75.5257 174.287 75.3114C173.378 75.8706 172.569 76.4407 171.922 77.0043C171.938 77.0718 171.943 77.1392 171.97 77.2067C172.577 78.7636 173.366 80.2194 173.914 81.816C175.732 87.114 176.813 92.7684 176.405 98.3873C176.343 99.2311 176.251 100.091 176.334 100.926C177.052 98.983 178.251 96.0008 178.883 95.9051C179.019 95.8844 179.156 96.5813 179.292 97.7846C179.616 97.4462 179.949 97.1171 180.299 96.8092C180.747 96.4132 181.236 96.0188 181.464 95.4492Z" fill="#409A97"/>
<path d="M192.756 74.9491C192.766 75.3299 193.686 113.222 193.366 130.91C193.568 130.915 193.772 130.919 193.976 130.923C194.296 113.22 193.375 75.3131 193.366 74.9323L192.756 74.9491Z" fill="#337E7C"/>
<path d="M197.47 71.443C196.312 66.7989 197.035 62.4686 197.035 62.4686H187.933C187.933 62.4686 188.656 66.7989 187.498 71.443C187.498 71.443 190.615 76.2248 192.484 76.1236C194.353 76.0224 197.47 71.443 197.47 71.443Z" fill="#CB7D75"/>
<path d="M187.934 62.4686C187.934 62.4686 188.282 64.5663 188.104 67.4054C189.367 66.6242 190.736 66.0422 192.167 65.7163C192.954 65.5373 193.756 65.4345 194.555 65.3322C195.311 65.2354 196.068 65.1342 196.824 65.039C196.869 63.4788 197.035 62.4686 197.035 62.4686H187.934Z" fill="#B56C75"/>
<path d="M187.953 67.1307C188.53 67.7988 188.941 68.3428 189.718 68.7214C189.908 68.8139 190.102 68.8966 190.296 68.9793C190.63 69.1212 190.964 69.2632 191.297 69.4057C190.736 70.8822 189.935 72.3091 188.965 73.526C187.574 72.7737 186.472 71.4648 185.898 69.9274C186.288 68.9287 187.196 67.8553 187.953 67.1307Z" fill="#78D097"/>
<path d="M197.014 67.1307C196.437 67.7988 196.027 68.3428 195.249 68.7214C195.06 68.8139 194.865 68.8966 194.671 68.9793C194.337 69.1212 194.003 69.2632 193.67 69.4057C194.231 70.8822 195.032 72.3091 196.002 73.526C197.394 72.7737 198.495 71.4648 199.069 69.9274C198.68 68.9287 197.771 67.8553 197.014 67.1307Z" fill="#78D097"/>
<path d="M182.23 71.3826C182.23 71.3826 184.622 82.5226 191.297 89.0898C191.297 89.0898 192.289 126.396 191.297 133.801C191.297 133.801 181.293 134.437 178.913 131.922C178.913 131.922 179.931 98.9917 178.913 96.2999C177.894 93.6082 174.224 78.2168 172.154 76.8052C172.154 76.8052 177.681 71.9668 182.23 71.3826Z" fill="#FFAD35"/>
<path d="M196.37 88.6257C202.508 82.1092 204.394 71.3826 204.394 71.3826L212.342 74.8408C212.342 74.8408 209.094 89.1637 208.892 91.5405C208.691 93.9172 208.716 125.237 209.128 130.361C209.128 130.361 210.165 133.317 208.721 133.317C207.276 133.317 196.37 133.317 196.37 133.317V88.6257Z" fill="#FFAD35"/>
<path d="M191.703 111.813C191.677 109.009 191.64 106.212 191.598 103.585C190.289 103.712 189.063 103.769 187.918 103.78C188.044 95.8708 188.043 88.5387 187.74 84.6415C185.943 81.8513 184.645 78.886 183.764 76.4679C183.693 80.8982 183.495 91.9354 183.111 103.538C181.399 103.34 180.115 103.065 179.341 102.869C179.376 105.28 179.371 108.138 179.344 111.109C180.071 111.293 181.253 111.546 182.809 111.739C182.465 120.1 182.018 128.012 181.445 133.174C183.119 133.618 185.221 133.793 187.056 133.849C187.195 130.235 187.52 121.405 187.749 112.019C188.972 112.013 190.29 111.954 191.703 111.813Z" fill="#FFDF4D"/>
<path d="M208.793 112.609C208.775 109.482 208.768 106.31 208.77 103.404C207.768 103.647 206.756 103.843 205.738 103.993C205.817 89.8427 206.411 77.1664 206.663 72.3694L204.394 71.3821C204.394 71.3821 203.405 77.0011 200.532 82.576C200.447 87.7456 200.26 95.9372 200.055 104.345C198.824 104.321 197.594 104.238 196.371 104.08V113.592C197.514 113.756 198.665 113.843 199.818 113.866C199.605 122.259 199.406 129.758 199.31 133.316C201.535 133.316 204.543 133.316 206.59 133.316C206.098 127.1 205.855 120.223 205.767 113.365C206.786 113.169 207.797 112.918 208.793 112.609Z" fill="#FFDF4D"/>
<path d="M214.82 93.5326C215.256 93.9352 215.658 94.3127 216.002 94.6391C219.924 92.9418 223.655 89.5184 225.098 88.0991C224.741 87.8152 224.299 87.4529 223.834 87.0443C221.5 89.0321 217.043 92.0546 214.82 93.5326Z" fill="#78D097"/>
<path d="M166.298 99.8893L166.293 99.8882C166.293 99.8882 166.023 103.751 164.279 106.999C162.535 110.248 157.718 120.782 156.97 123.679C156.223 126.577 157.405 133.14 157.771 133.873C158.136 134.606 159.378 134.569 159.777 134.26C160.176 133.951 159.816 128.97 159.779 128.352C159.743 127.734 160.086 127.067 160.086 127.067C162.788 124.58 171.067 111.96 172.154 110.854C173.037 109.955 174.3 104.552 174.741 102.562C169.949 102.443 167.403 100.855 166.298 99.8893Z" fill="#CB7D75"/>
<path d="M166.297 99.8893L166.292 99.8882C166.292 99.8882 166.252 100.454 166.106 101.333C167.226 101.686 168.286 102.059 169.329 102.698C170.998 103.721 172.462 105.08 173.757 106.596C174.178 105.042 174.543 103.457 174.742 102.562C169.949 102.443 167.403 100.855 166.297 99.8893Z" fill="#B56C75"/>
<path d="M200.542 49.4322C200.542 49.4322 200.542 58.5301 198.41 61.4884C196.277 64.4466 194.931 64.6697 193.977 64.6697H191.173C190.219 64.6697 188.872 64.4466 186.741 61.4884C184.608 58.5301 184.608 49.4322 184.608 49.4322V46.8091L185.649 45.9343C189.648 42.5719 195.503 42.5719 199.502 45.9343L200.542 46.8091V49.4322H200.542Z" fill="#CB7D75"/>
<path d="M199.773 57.7641C198.502 56.7387 195.255 54.2868 192.945 54.0415C190.535 53.7853 186.683 56.7751 185.394 57.8419C185.704 59.3194 186.136 60.6506 186.74 61.4883C188.872 64.4466 190.219 64.6696 191.173 64.6696H193.977C194.897 64.6696 196.184 64.4542 198.186 61.7875L198.964 60.4841C199.301 59.7149 199.565 58.7721 199.773 57.7641Z" fill="#E4E7FF"/>
<path d="M191.218 58.9212C191.129 58.6225 189.312 58.9456 188.395 59.197C188.078 59.284 186.296 59.7165 186.123 60.3339C186.179 60.4683 186.236 60.5967 186.296 60.7207C186.824 60.8981 188.305 59.7464 188.664 59.6175C189.505 59.3156 191.218 59.5272 191.218 58.9212Z" fill="#C4C7DB"/>
<path d="M198.035 61.9833C197.871 61.968 197.732 61.9599 197.651 61.9512C196.799 61.8565 195.942 61.7983 195.086 61.7776C194.676 61.7673 194.266 61.7657 193.856 61.7727C193.57 61.7776 193.484 62.233 195.424 62.2487C195.82 62.252 196.182 62.4941 196.568 62.5849C196.858 62.6529 197.155 62.6785 197.451 62.697C197.638 62.4843 197.834 62.2433 198.035 61.9833Z" fill="#C4C7DB"/>
<path d="M195.055 57.22C195.422 57.2946 195.8 57.399 196.083 57.6563C195.768 57.7793 195.422 57.7733 195.086 57.7602C194.141 57.7222 193.2 57.6335 192.258 57.5454C192.048 57.5258 191.616 57.3544 191.84 57.0677C191.978 56.8915 192.424 56.9616 192.608 56.9676C193.426 56.9937 194.251 57.0568 195.055 57.22Z" fill="#C4C7DB"/>
<path d="M184.645 50.9842C184.02 50.4603 183.023 49.8189 182.486 50.6023C181.762 51.6576 182.901 54.9875 184.991 55.3808C184.783 53.721 184.688 52.1108 184.645 50.9842Z" fill="#B26675"/>
<path d="M184.775 51.8492C184.295 51.4467 183.53 50.9543 183.117 51.556C182.561 52.3666 183.436 54.9228 185.04 55.2253C184.881 53.9507 184.808 52.7142 184.775 51.8492Z" fill="#915675"/>
<path d="M200.493 50.9842C201.119 50.4603 202.115 49.8189 202.652 50.6023C203.376 51.6576 202.238 54.9875 200.147 55.3808C200.355 53.721 200.45 52.1108 200.493 50.9842Z" fill="#B26675"/>
<path d="M200.418 51.9449C200.906 51.5352 201.685 51.0342 202.105 51.6462C202.671 52.4709 201.78 55.0729 200.147 55.3802C200.31 54.0833 200.384 52.8251 200.418 51.9449Z" fill="#915675"/>
<path d="M183.727 47.8491C183.727 47.8491 184.206 53.0116 185.088 52.9785C185.971 52.9453 187.035 46.1942 186.803 45.963C186.57 45.7313 183.727 47.8491 183.727 47.8491Z" fill="#453034"/>
<path d="M201.424 47.8491C201.424 47.8491 200.945 53.0116 200.062 52.9785C199.18 52.9453 198.115 46.1942 198.348 45.963C198.581 45.7313 201.424 47.8491 201.424 47.8491Z" fill="#453034"/>
<path d="M192.576 35.1772C184.197 35.6853 184.293 43.5804 184.293 43.5804H200.859C200.859 43.5804 200.954 35.6853 192.576 35.1772Z" fill="#FFAD35"/>
<path d="M195.624 43.5809C195.144 39.8958 193.574 36.3185 192.884 35.2055C192.781 35.1968 192.682 35.1843 192.575 35.1777C192.488 35.1832 192.408 35.1935 192.323 35.2006C191.739 36.0922 190.259 38.7012 189.199 43.5809H195.624Z" fill="#FFCC35"/>
<path d="M200.542 43.181C200.542 43.181 204.642 46.6322 203.404 48.1488C202.675 49.0421 198.523 46.1393 192.576 46.1953C186.628 46.1393 182.477 49.0421 181.748 48.1488C180.509 46.6327 184.609 43.181 184.609 43.181C189.803 41.6159 195.348 41.6159 200.542 43.181Z" fill="#FFDF4D"/>
<path d="M203.403 47.2573C202.674 48.1505 198.523 45.2477 192.575 45.3038C186.627 45.2477 182.476 48.1505 181.747 47.2573C181.678 47.1735 181.631 47.081 181.594 46.9858C181.471 47.4248 181.487 47.8307 181.747 48.1484C182.476 49.0416 186.627 46.1388 192.575 46.1949C198.523 46.1388 202.674 49.0416 203.403 48.1484C203.663 47.8301 203.679 47.4248 203.556 46.9858C203.519 47.081 203.472 47.173 203.403 47.2573Z" fill="#FFB54D"/>
<path d="M193.333 34.5086C193.333 34.9248 192.993 35.2615 192.575 35.2615C192.158 35.2615 191.818 34.9243 191.818 34.5086C191.818 34.093 192.158 33.7557 192.575 33.7557C192.994 33.7557 193.333 34.093 193.333 34.5086Z" fill="#AD8035"/>
<path d="M188.859 52.9791C189.159 52.9791 189.401 52.5176 189.401 51.9482C189.401 51.3789 189.159 50.9174 188.859 50.9174C188.56 50.9174 188.317 51.3789 188.317 51.9482C188.317 52.5176 188.56 52.9791 188.859 52.9791Z" fill="#453034"/>
<path d="M196.307 52.9791C196.606 52.9791 196.849 52.5176 196.849 51.9482C196.849 51.3789 196.606 50.9174 196.307 50.9174C196.007 50.9174 195.765 51.3789 195.765 51.9482C195.765 52.5176 196.007 52.9791 196.307 52.9791Z" fill="#453034"/>
<path d="M187.096 50.3472C186.987 50.3472 186.885 50.2662 186.848 50.1383C186.803 49.9789 186.877 49.8065 187.014 49.7537C188.667 49.1156 190.123 49.5367 190.184 49.5552C190.323 49.5965 190.408 49.7619 190.372 49.9251C190.337 50.0877 190.195 50.1857 190.055 50.1454C190.041 50.1416 188.68 49.7516 187.179 50.332C187.151 50.3423 187.124 50.3472 187.096 50.3472Z" fill="#453034"/>
<path d="M198.192 50.3472C198.163 50.3472 198.135 50.3423 198.106 50.332C196.549 49.7515 195.136 50.141 195.123 50.1454C194.976 50.1856 194.83 50.0883 194.793 49.9251C194.757 49.7624 194.844 49.597 194.989 49.5552C195.052 49.5372 196.563 49.1167 198.277 49.7537C198.419 49.8065 198.496 49.9789 198.45 50.1383C198.412 50.2662 198.306 50.3472 198.192 50.3472Z" fill="#453034"/>
<path d="M231.063 96.759C229.735 94.9807 227.125 91.7804 225.112 89.8774C225.112 89.8774 221.846 93.9536 218.235 95.2875C218.979 96.1911 221.091 98.6668 223.074 100.109C223.074 100.109 218.29 106.954 216.164 109.763C214.038 112.572 211.779 113.204 211.048 113.134C210.317 113.064 208.792 112.609 208.792 112.609C208.792 112.609 208.722 115.241 207.925 115.803C207.128 116.365 201.688 120.73 200.647 121.399C199.606 122.068 199.93 123.496 200.64 123.663C200.64 123.663 199.289 124.691 197.949 125.511C197.117 126.019 197.767 127.413 198.716 127.36C199.666 127.307 201.115 126.119 201.115 126.119C201.115 126.119 200.702 126.754 201.01 127.273C201.319 127.792 202.007 127.931 202.581 127.732C203.155 127.532 204.447 126.442 204.447 126.442C204.447 126.442 204.354 127.28 204.737 127.5C205.12 127.721 206.639 127.561 207.89 126.58C209.141 125.599 212.235 123.676 213.43 121.927C214.625 120.179 215.36 118.171 218.332 116.066C221.304 113.961 231.307 106.719 232.348 103.873C233.388 101.028 232.898 99.2168 231.063 96.759Z" fill="#CB7D75"/>
<path d="M200.64 123.865C200.675 123.865 200.709 123.855 200.739 123.836C200.774 123.814 204.248 121.602 206.395 119.803C206.479 119.733 206.492 119.606 206.427 119.518C206.36 119.43 206.24 119.416 206.156 119.485C204.162 121.156 201.002 123.193 200.587 123.459H200.313C200.409 123.555 200.515 123.633 200.64 123.662C200.64 123.662 200.536 123.74 200.368 123.865H200.64Z" fill="#9C4860"/>
<path d="M208.657 123.124C208.582 123.045 208.461 123.045 208.386 123.124C207.071 124.514 204.374 126.252 204.348 126.269C204.324 126.284 204.304 126.305 204.288 126.329L203.969 126.829C204.246 126.612 204.448 126.443 204.448 126.443C204.448 126.443 204.432 126.609 204.445 126.81L204.584 126.593C204.925 126.372 207.378 124.763 208.658 123.411C208.732 123.331 208.732 123.203 208.657 123.124Z" fill="#9C4860"/>
<path d="M201.115 126.119C201.115 126.119 200.962 126.357 200.912 126.66L201.242 126.274C201.575 126.043 205.724 123.163 207.91 121.223C207.991 121.15 208.002 121.023 207.934 120.937C207.865 120.85 207.744 120.839 207.663 120.912C205.413 122.908 201.055 125.919 201.011 125.948C200.997 125.958 200.984 125.97 200.973 125.983L200.439 126.608C200.831 126.348 201.115 126.119 201.115 126.119Z" fill="#9C4860"/>
<path d="M216.444 117.621L213.113 112.735C212.95 112.496 213.001 112.163 213.227 111.991L213.933 111.453C214.159 111.281 214.475 111.335 214.637 111.574L217.969 116.46C218.132 116.699 218.08 117.032 217.854 117.204L217.148 117.742C216.922 117.914 216.607 117.86 216.444 117.621Z" fill="#533752"/>
<path d="M221.659 98.9388C221.877 97.7556 222.338 96.1938 222.433 95.9077C222.904 94.4976 223.576 93.161 224.421 91.9615C224.835 91.3724 225.293 90.9078 225.731 90.4889C225.521 90.2767 225.312 90.0662 225.112 89.8774C225.112 89.8774 221.846 93.9536 218.235 95.2875C218.801 95.9768 220.165 97.5772 221.659 98.9388Z" fill="#B56C75"/>
</svg>
