<svg width="47" height="50" viewBox="0 0 47 50" fill="none" xmlns="http://www.w3.org/2000/svg">
<g clip-path="url(#clip0_65_686)">
<mask id="mask0_65_686" style="mask-type:luminance" maskUnits="userSpaceOnUse" x="0" y="0" width="47" height="50">
<path d="M0 0H47V50H0V0Z" fill="white"/>
</mask>
<g mask="url(#mask0_65_686)">
<path d="M30.9212 6.57888C30.9212 7.97476 30.4 9.31346 29.4722 10.3005C28.5443 11.2875 27.286 11.842 25.9738 11.842H21.0265C19.7143 11.842 18.456 11.2875 17.5282 10.3005C16.6003 9.31346 16.0791 7.97476 16.0791 6.57888C16.0791 5.18301 16.6003 3.8443 17.5282 2.85727C18.456 1.87023 19.7143 1.31573 21.0265 1.31573H25.9738C27.286 1.31573 28.5443 1.87023 29.4722 2.85727C30.4 3.8443 30.9212 5.18301 30.9212 6.57888Z" fill="#CCD6DD"/>
<path d="M38.3424 43.421C38.3424 44.8169 37.8212 46.1556 36.8934 47.1427C35.9655 48.1297 34.7072 48.6842 33.395 48.6842H13.6056C12.2934 48.6842 11.0351 48.1297 10.1073 47.1427C9.17944 46.1556 8.6582 44.8169 8.6582 43.421V11.8421C8.6582 10.4462 9.17944 9.10752 10.1073 8.12049C11.0351 7.13345 12.2934 6.57894 13.6056 6.57894H33.395C34.7072 6.57894 35.9655 7.13345 36.8934 8.12049C37.8212 9.10752 38.3424 10.4462 38.3424 11.8421V43.421Z" fill="#E1E8ED"/>
<path d="M38.3424 43.421H8.6582V11.8421H38.3424V43.421Z" fill="#69994D"/>
<path d="M29.6844 19.7369H25.9738V15.7895C25.9738 15.4405 25.8435 15.1059 25.6116 14.8591C25.3796 14.6123 25.065 14.4737 24.737 14.4737H22.2633C21.9353 14.4737 21.6207 14.6123 21.3887 14.8591C21.1568 15.1059 21.0265 15.4405 21.0265 15.7895V19.7369H17.3159C16.9879 19.7369 16.6733 19.8755 16.4414 20.1223C16.2094 20.369 16.0791 20.7037 16.0791 21.0527V23.6842C16.0791 24.0332 16.2094 24.3679 16.4414 24.6146C16.6733 24.8614 16.9879 25 17.3159 25H21.0265V28.9474C21.0265 29.2964 21.1568 29.631 21.3887 29.8778C21.6207 30.1246 21.9353 30.2632 22.2633 30.2632H24.737C25.065 30.2632 25.3796 30.1246 25.6116 29.8778C25.8435 29.631 25.9738 29.2964 25.9738 28.9474V25H29.6844C30.0124 25 30.327 24.8614 30.5589 24.6146C30.7909 24.3679 30.9212 24.0332 30.9212 23.6842V21.0527C30.9212 20.7037 30.7909 20.369 30.5589 20.1223C30.327 19.8755 30.0124 19.7369 29.6844 19.7369Z" fill="#F5F8FA"/>
<path d="M17.3159 40.7894C16.9879 40.7894 16.6733 40.6508 16.4414 40.404C16.2094 40.1573 16.0791 39.8226 16.0791 39.4736V36.8421C16.0791 36.4931 16.2094 36.1584 16.4414 35.9117C16.6733 35.6649 16.9879 35.5263 17.3159 35.5263H29.6844C30.0124 35.5263 30.327 35.6649 30.5589 35.9117C30.7909 36.1584 30.9212 36.4931 30.9212 36.8421V39.4736C30.9212 39.8226 30.7909 40.1573 30.5589 40.404C30.327 40.6508 30.0124 40.7894 29.6844 40.7894H17.3159Z" fill="#F5F8FA"/>
</g>
</g>
<defs>
<clipPath id="clip0_65_686">
<rect width="47" height="50" fill="white"/>
</clipPath>
</defs>
</svg>
