<svg width="24" height="24" viewBox="0 0 24 24" fill="none" xmlns="http://www.w3.org/2000/svg">
<path d="M6 14.5C6 14.59 6.02 14.68 6.05 14.77C6.05 14.77 6.06 14.78 6.05 14.79C6.1 15.48 6.17 16.17 6.26 16.86C6.33 17.37 6.41 17.88 6.51 18.38C7.64 19.32 10.57 20 14 20C17.43 20 20.36 19.32 21.49 18.38C21.59 17.88 21.67 17.37 21.74 16.86C21.83 16.17 21.9 15.48 21.95 14.79C21.94 14.78 21.95 14.77 21.95 14.77C21.98 14.68 22 14.59 22 14.5C22 14.43 21.99 14.36 21.97 14.29V14.28C21.99 13.85 22 13.43 22 13C22 12.57 21.99 12.15 21.97 11.72V11.71C21.99 11.64 22 11.57 22 11.5C22 11.41 21.98 11.32 21.95 11.23C21.95 11.23 21.94 11.22 21.95 11.21C21.9 10.52 21.83 9.83 21.74 9.1401C21.67 8.6301 21.59 8.1201 21.49 7.6201C20.36 6.68 17.43 6 14 6C10.57 6 7.64 6.68 6.51 7.62C6.41 8.12 6.33 8.63 6.26 9.14C6.17 9.83 6.1 10.52 6.05 11.21C6.06 11.22 6.05 11.23 6.05 11.23C6.02 11.32 6 11.41 6 11.5C6 11.57 6.01 11.64 6.03 11.71V11.72C6.01 12.15 6 12.57 6 13C6 13.43 6.01 13.85 6.03 14.28V14.29C6.01 14.36 6 14.43 6 14.5Z" fill="#D6AA0D"/>
<path d="M17.1445 15.5171C17.4297 15.9898 18.042 16.1406 18.5175 15.856L20.537 14.6358C20.7997 14.4766 20.9755 14.2056 21.0126 13.9004C21.0487 13.5952 20.9442 13.29 20.7265 13.0728C20.6816 13.0274 20.6269 12.983 20.5693 12.9449C20.5625 12.9395 20.5556 12.9346 20.5488 12.9298C20.5283 12.9142 20.5068 12.899 20.4843 12.8849C20.4687 12.8742 20.4531 12.8639 20.4364 12.8537C20.3134 12.78 20.1893 12.7072 20.1346 12.6828C19.8953 12.5392 19.6405 12.423 19.3563 12.3278C19.3309 12.3171 19.3075 12.3092 19.2684 12.2995C19.0819 12.2326 18.8954 12.1794 18.742 12.1501C17.2801 11.7854 15.5984 12.1096 14.366 12.9875C14.1707 13.1174 13.989 13.26 13.8191 13.4177C13.6511 13.5735 13.4841 13.7419 13.3503 13.8977C12.4795 14.8828 12 16.1621 12 17.5C12 17.7026 12.0127 17.9043 12.0342 18.0659C12.0694 18.4814 12.1553 18.876 12.2871 19.2402C12.3057 19.3076 12.332 19.3725 12.3642 19.4345C12.3681 19.4428 12.372 19.4501 12.3749 19.457L12.3759 19.4565C12.4286 19.5698 12.4999 19.6738 12.5829 19.7568C12.7782 19.9521 13.0341 20.0498 13.2899 20.0498C13.5457 20.0498 13.8016 19.9521 13.9969 19.7568C14.3114 19.4428 14.3729 18.9716 14.1815 18.5957C14.1004 18.3867 14.0487 18.1509 14.0223 17.853C14.0068 17.7354 14 17.6177 14 17.5C14 16.6504 14.3018 15.8413 14.8584 15.2109C14.9551 15.0981 15.0693 14.9863 15.1787 14.8842C15.2705 14.7997 15.3682 14.7226 15.5 14.6342C16.1396 14.1786 16.9229 13.9501 17.71 14.0068L17.4825 14.144C17.0098 14.4297 16.8584 15.0444 17.1445 15.5171ZM21.3799 15.0132C20.8613 15.2041 20.5967 15.7788 20.7871 16.2974C20.9287 16.6807 21 17.0854 21 17.5C21 18.5215 20.5596 19.4834 19.7783 20.1509C19.1074 20.7437 18.2109 21.0484 17.289 20.9937L17.5175 20.856C17.9902 20.5704 18.1415 19.9556 17.8554 19.483C17.5702 19.0103 16.957 18.857 16.4824 19.1441L14.4629 20.3643C14.1709 20.5406 14.0176 20.8726 14.0098 21.2134C14.001 21.5542 14.1953 21.895 14.4776 22.086C14.5372 22.1265 14.6006 22.1666 14.6065 22.1666L14.6055 22.1651C15.4697 22.7114 16.4707 23 17.5 23C18.8379 23 20.1172 22.52 21.0898 21.6602C22.3037 20.6235 23 19.1074 23 17.5C23 16.8486 22.8867 16.2114 22.6641 15.606C22.4717 15.0869 21.8965 14.8223 21.3799 15.0132Z" fill="#FFDB59"/>
<path d="M3.0498 13.7856C3.0497 13.7986 3.0563 13.8113 3.0568 13.8244C3.0572 13.8373 3.0519 13.8489 3.0528 13.8618C3.1036 14.5708 3.1758 15.2798 3.2696 15.9966C3.3419 16.5264 3.4258 17.0557 3.5294 17.5752C3.5743 17.8008 3.6954 18.0039 3.8732 18.1509C4.9904 19.0738 7.2472 19.7217 10.0666 19.9278C10.092 19.9293 10.1164 19.9302 10.1408 19.9302C10.6603 19.9302 11.0988 19.5288 11.1369 19.003C11.1769 18.4522 10.7639 17.9732 10.2131 17.9327C7.8967 17.7638 6.2141 17.2677 5.4172 16.7955C5.3674 16.5162 5.3234 16.235 5.2834 15.9552C5.453 16.0234 5.6513 16.0814 5.8377 16.1437C5.9799 16.1912 6.109 16.2434 6.2602 16.2874C6.4805 16.3515 6.7239 16.4046 6.9616 16.4606C7.1174 16.4973 7.2615 16.5396 7.4239 16.5727C7.7019 16.6295 7.9993 16.6735 8.2945 16.7192C8.4348 16.7409 8.5657 16.769 8.7093 16.7881C9.1558 16.8475 9.6173 16.8947 10.09 16.9278C10.1144 16.9293 10.1379 16.9302 10.1613 16.9302C10.2372 16.9302 10.3057 16.905 10.3772 16.8887C10.421 16.8789 10.4676 16.8784 10.5089 16.8634C10.5735 16.8392 10.6271 16.7985 10.6847 16.762C10.7357 16.7303 10.7913 16.7066 10.8353 16.6665C10.8676 16.6368 10.8872 16.5963 10.9154 16.5626C10.9669 16.5012 11.0225 16.4437 11.0579 16.3704C11.1132 16.2577 11.1484 16.133 11.1575 16C11.1966 15.4492 10.7815 14.9712 10.2307 14.9326C8.5305 14.8135 7.0188 14.5093 5.9827 14.0801C5.8481 14.0227 5.7364 13.9683 5.6349 13.9159C5.6052 13.9006 5.5778 13.8857 5.5507 13.8709C5.4806 13.8326 5.4178 13.7959 5.3637 13.7614C5.3456 13.75 5.3246 13.7379 5.3085 13.727C5.2468 13.6856 5.1953 13.6473 5.1544 13.6135C5.141 13.6025 5.1312 13.5932 5.1198 13.583C5.0937 13.5599 5.0701 13.538 5.0531 13.52C5.0486 13.5152 5.044 13.5105 5.04 13.5061L5.0293 13.2318C5.0225 13.1009 5.0176 12.9706 5.0137 12.8407C5.0762 12.8685 5.1407 12.8959 5.2061 12.9232C6.7373 13.5604 9.0332 13.9491 11.503 13.9901C11.5089 13.9901 11.5147 13.9901 11.5196 13.9901C12.0645 13.9901 12.5108 13.5531 12.5196 13.0067C12.5284 12.4545 12.088 11.9994 11.5362 11.9901C9.3419 11.954 7.2628 11.6122 5.9717 11.0755C5.8369 11.0198 5.7255 10.9663 5.6243 10.9146C5.5972 10.9007 5.5713 10.8871 5.5464 10.8736C5.4672 10.8306 5.3961 10.7892 5.3374 10.751C5.3285 10.7452 5.3168 10.7387 5.3084 10.7331C5.2446 10.6903 5.195 10.6519 5.1536 10.6173C5.141 10.6067 5.1298 10.597 5.1191 10.5873C5.091 10.562 5.0665 10.5387 5.0495 10.5201C5.0464 10.5168 5.0419 10.5125 5.0392 10.5094L5.048 10.2909C5.048 10.2782 5.049 10.266 5.049 10.2533C5.0588 10.1249 5.0685 9.9965 5.0793 9.868C5.1203 9.8866 5.1623 9.9046 5.2043 9.9227C6.8438 10.6074 9.3203 11 12 11C14.6797 11 17.1562 10.6074 18.8027 9.9199C18.8418 9.9028 18.8818 9.8857 18.9209 9.8686C18.9287 9.9702 18.9375 10.0722 18.9443 10.1738C18.9414 10.2466 18.9463 10.3193 18.958 10.3911L18.96 10.4199C18.96 10.9721 19.4073 11.4199 19.96 11.4199C20.5127 11.4199 20.96 10.9721 20.96 10.4199C20.96 10.395 20.9522 10.2549 20.9502 10.23C20.9502 10.2266 20.9502 10.2232 20.9502 10.2197C20.9502 10.1928 20.9492 10.1655 20.9473 10.1382C20.8965 9.4292 20.8243 8.7202 20.7315 8.0112L20.7303 8.0068L20.7305 8.0034C20.6582 7.4736 20.5743 6.9443 20.4707 6.4248C20.4258 6.2002 20.3057 5.9976 20.1299 5.8516C18.7568 4.7095 15.6416 4 12 4C8.3584 4 5.2432 4.7095 3.8701 5.8516C3.6943 5.9976 3.5742 6.2002 3.5293 6.4248C3.4258 6.9443 3.3418 7.4736 3.2695 8.0034L3.2698 8.0068L3.2686 8.0112C3.1758 8.7202 3.1036 9.4292 3.0528 10.1382C3.0508 10.1636 3.0499 10.1885 3.0499 10.2139L3.0324 10.6674L3.0314 10.6719C3.0098 11.1182 3 11.5537 3 12C3 12.4463 3.0098 12.8818 3.0322 13.3511L3.0498 13.7856ZM12 6C15.0938 6 17.54 6.5781 18.582 7.2017C18.6141 7.3802 18.6433 7.5597 18.6715 7.7397C18.6221 7.7721 18.5602 7.8077 18.4972 7.8435C18.467 7.8606 18.4445 7.876 18.411 7.8938C18.3012 7.952 18.1742 8.0134 18.0244 8.0772C16.6416 8.6553 14.3896 9 12 9C9.6104 9 7.3584 8.6553 5.9824 8.0801C5.8307 8.0154 5.7023 7.9534 5.5915 7.8948C5.5603 7.8783 5.5396 7.8641 5.5114 7.8482C5.4447 7.8106 5.3802 7.7735 5.3285 7.7396C5.3567 7.5596 5.3859 7.3801 5.418 7.2017C6.46 6.5781 8.9062 6 12 6Z" fill="#FFDB59"/>
</svg>
