<svg width="335" height="235" viewBox="0 0 335 235" fill="none" xmlns="http://www.w3.org/2000/svg">
<path d="M276.294 133.08C280.42 130.9 284.436 128.435 288.986 128.087C296.638 127.502 303.906 133.663 306.148 141.378C308.689 150.125 304.498 158.138 302.41 166.234C299.559 177.29 294.991 186.318 288.839 195.811C292.714 190.14 301.501 190.163 306.503 194.755C311.505 199.348 313.057 207.049 312.089 213.958C311.344 219.272 309.331 224.25 307.047 229.085H35.0722C29.9779 227.969 24.9705 226.273 20.8629 222.979C15.847 218.956 12.4854 212.008 14.1546 205.61C15.6124 200.024 21.8174 196.085 26.8629 197.626C13.6211 190.766 3.63918 177.222 0.764487 161.981C-1.33018 150.875 0.722449 138.117 8.87784 130.725C16.4009 123.907 29.5995 124.351 35.3364 132.431C31.8521 125.364 33.0173 115.9 38.3884 110.21C44.3389 103.906 54.7332 102.994 61.5956 108.173C58.726 85.6206 64.6572 61.9688 77.7291 43.8368C86.264 31.9984 98.1269 22.3117 111.914 19.0691C125.701 15.8265 141.399 19.8893 150.557 31.2015C161.435 44.6379 161.117 64.1833 160.003 81.7895C165.923 70.4206 174.734 63.6176 182.373 54.0229C190.12 44.2932 195.33 35.5331 206.875 29.7916C211.943 27.2706 218.645 25.8405 222.634 29.9846C225.353 32.8102 225.753 37.2405 225.661 41.2597C225.458 50.0078 223.679 58.7124 220.444 66.7754C225.341 57.3055 230.285 47.7653 236.862 39.4968C243.44 31.2283 251.845 24.2174 261.702 21.2514C272.989 17.8546 285.476 20.792 294.96 27.8519C318.129 45.0991 306.561 79.5296 297.037 101.718C291.219 115.273 282.53 127.872 270.484 135.667C272.485 135.019 274.401 134.08 276.294 133.08Z" fill="#D6EDDE"/>
<path d="M281.968 209.793C279.548 207.864 277.004 205.877 274.013 205.326C269.976 204.582 265.977 206.586 262.398 208.687C259.925 210.137 257.494 211.665 255.104 213.262C248.868 204.346 210.2 197.481 163.419 197.481C112.294 197.481 70.8486 205.68 70.8486 215.795C70.8486 225.909 112.294 234.108 163.419 234.108C193.969 234.108 221.058 231.18 237.918 226.665C237.1 227.404 236.283 228.144 235.481 228.901C236.45 227.987 242.169 228.874 243.403 228.868C248.779 228.847 254.059 228.441 259.421 227.988C262.948 227.69 266.607 227.409 269.927 228.696C271.39 229.264 272.75 230.125 274.258 230.545C275.836 230.985 277.496 230.919 279.127 230.851C282.097 230.726 304.017 231.843 304.766 228.571C305.347 226.036 284.699 211.707 281.968 209.793Z" fill="#A9DBCA"/>
<path d="M62.4164 213.725C59.9962 211.796 57.4522 209.809 54.461 209.257C50.4239 208.513 46.4249 210.518 42.8458 212.618C33.1979 218.279 24.1511 225.073 15.9287 232.833C16.8979 231.918 22.6166 232.805 23.8517 232.8C29.2279 232.778 34.5074 232.373 39.8694 231.919C43.3968 231.621 47.0555 231.34 50.3756 232.628C51.8386 233.196 53.1986 234.057 54.7064 234.477C56.2847 234.917 57.9447 234.851 59.5758 234.783C62.5459 234.658 84.4658 235.775 85.214 232.503C85.7946 229.967 65.1462 215.639 62.4164 213.725Z" fill="#677A4D"/>
<path d="M285.823 47.752C283.199 45.3965 279.931 46.1856 277.617 48.3189C277.817 45.0679 277.911 41.8157 277.898 38.5701C278.76 36.3789 279.104 34.0981 279.488 31.7515C279.9 29.2323 280.724 26.5996 279.692 24.1743C278.992 22.5278 276.656 21.9896 275.591 23.599C274.113 25.8326 274.419 28.3446 274.361 30.9725C274.302 33.6279 274.183 36.2152 274.814 38.8121C274.914 39.2243 275.136 39.554 275.414 39.7834C275.096 43.1957 274.777 46.6068 274.435 50.0125C273.718 47.1229 272.919 44.1617 271.198 42.158C269.446 40.118 266.074 39.5743 264.339 41.9663C260.581 47.1468 268.1 56.533 272.381 58.5151C272.784 58.7021 273.18 58.6657 273.509 58.4924C273.002 62.7243 272.422 66.9485 271.697 71.1613C271.587 71.8029 271.465 72.4415 271.349 73.0819C269.588 66.8828 265.926 59.0791 260.696 62.9304C258.172 64.7895 259.133 68.1427 260.553 70.4127C263.142 74.5532 266.298 78.7182 269.518 82.3575C268.938 85.0488 268.313 87.7286 267.652 90.3984C267.266 89.0477 266.74 87.7388 266.058 86.4974C264.531 83.7154 261.466 81.2995 258.317 82.8898C255.254 84.437 255.097 88.2944 256.411 91.178C257.36 93.2605 258.776 95.1751 259.967 97.1035C261.267 99.2087 262.504 101.414 264.13 103.258C263.689 104.723 263.241 106.184 262.774 107.64C262.159 109.561 261.511 111.47 260.848 113.373C260.61 112.36 260.319 111.357 259.973 110.37C258.78 106.972 256.332 101.475 251.993 102.783C247.676 104.086 248.414 110.388 248.893 113.885C249.617 119.178 251.244 124.686 254.507 128.862C254.585 128.96 254.667 129.043 254.753 129.117C253.024 133.163 251.189 137.159 249.256 141.102C248.98 138.575 248.461 136.078 247.662 133.67C246.45 130.018 243.469 123.573 238.775 126.441C234.926 128.793 236.992 135.499 237.875 138.998C238.945 143.234 240.596 148.524 243.578 152.02C241.126 156.474 238.534 160.842 235.838 165.138C235.458 162.602 234.863 160.105 233.975 157.689C232.813 154.529 229.879 150.511 226.343 153.249C223.083 155.774 224.722 161.1 225.886 164.3C226.913 167.123 228.35 170.036 230.284 172.415C230.389 172.668 230.493 172.923 230.598 173.176C230.382 173.495 230.174 173.82 229.957 174.137C228.158 176.763 226.31 179.35 224.419 181.903C224.138 180.339 223.684 178.808 223.041 177.35C221.709 174.326 219.043 170.529 215.384 171.561C211.854 172.557 211.207 176.786 212.431 179.932C213.829 183.524 215.888 186.988 217.841 190.402C213.647 195.561 207.984 200.39 205.115 206.484C204.333 208.147 206.247 210.324 207.879 209.415C213.1 206.507 216.852 200.884 220.563 196.164C220.789 195.876 221.011 195.585 221.234 195.294C221.464 195.577 221.751 195.834 222.103 196.051C225.989 198.432 230.542 200.072 235.081 200.089C238.385 200.101 241.817 198.209 241.517 194.228C240.974 187.042 232.185 186.602 226.142 188.786C228 186.236 229.817 183.652 231.583 181.029C232.232 180.065 232.864 179.087 233.499 178.112C236.413 181.008 240.298 183.105 244.318 183.486C248.344 183.869 252.273 181.493 252.199 176.864C252.135 172.817 249.07 169.852 245.333 169.489C242.127 169.178 239.449 170.484 237.114 172.42C240.45 167.016 243.603 161.488 246.542 155.835C246.888 155.978 247.26 156.061 247.653 156.057C252.04 156.019 257.924 157.045 261.942 154.827C265.032 153.12 266.442 149.273 264.627 145.994C261.467 140.283 256.023 142.248 251.572 145.627C253.754 140.941 255.817 136.188 257.76 131.376C257.904 131.377 258.048 131.377 258.192 131.377V131.382C258.197 131.38 258.202 131.379 258.208 131.377C263.812 131.371 269.584 130.536 274.713 128.049C278.392 126.265 282.195 121.822 279.384 117.461C275.434 111.331 267.417 115.265 261.937 120.48C263.787 115.33 265.501 110.125 267.061 104.871C267.182 104.905 267.304 104.938 267.429 104.963C270.348 105.531 274.479 103.782 277.228 102.846C279.616 102.034 282.297 100.627 283.355 98.0629C284.413 95.4965 283.457 92.5251 281.327 90.9539C277.434 88.0805 273.635 90.3763 271.17 93.8232C270.856 93.6667 270.532 93.5347 270.201 93.4331C271.207 89.4425 272.13 85.4311 272.957 81.4005C273.335 81.5618 273.772 81.6448 274.264 81.6144C277.715 81.4017 281.516 80.6711 283.507 77.3538C285.028 74.8191 285.081 71.2013 282.74 69.1744C280.447 67.1898 277.234 67.9085 275.092 69.7729C275.647 66.3977 276.151 63.0033 276.569 59.5946C279.882 59.781 283.515 59.5283 285.805 56.7033C287.842 54.1912 288.425 50.089 285.823 47.752Z" fill="#164C3E"/>
<path d="M77.5768 185.746C65.0202 176.817 53.9884 164.772 48.5907 149.878C46.7221 144.721 45.5756 138.866 47.5578 133.758C49.54 128.649 55.6803 125.1 60.2701 127.774C48.3367 115.783 40.291 99.5894 37.7458 82.4401C37.2379 79.0183 36.9919 75.2995 38.6383 72.3001C41.9255 66.3118 50.937 66.957 55.8331 71.5718C46.6574 61.8063 42.3697 47.2229 44.703 33.7159C45.1802 30.9542 46.1301 27.9475 48.4873 26.6315C52.2721 24.5191 56.6478 28.0849 59.2475 31.6669C69.1464 45.3064 72.9012 62.6552 76.4025 79.4132C75.4873 74.1036 76.298 68.4815 78.6699 63.6965C79.3215 62.3816 80.1924 61.0387 81.5326 60.5775C83.1984 60.004 85.0595 61.0512 86.0549 62.568C87.0502 64.0848 87.3707 65.9677 87.6343 67.7898C90.0278 84.3392 89.6909 101.322 86.6435 117.752C87.6831 114.865 89.1813 111.557 92.0719 111.013C95.6806 110.335 98.34 114.388 99.8597 117.896C108.539 137.929 113.629 159.41 117.564 180.957C119.045 189.065 123.063 198.187 122.69 206.295C114.538 206.862 107.071 201.996 99.9767 198.486C92.29 194.684 84.6295 190.762 77.5768 185.746Z" fill="#164C3E"/>
<path d="M121.188 204.943C116.996 202.1 113.005 199.017 109.359 195.425C105.752 191.87 102.472 187.954 99.4991 183.801C95.9347 178.822 92.8334 173.514 90.1035 167.996C90.1831 167.88 90.1854 167.693 90.0598 167.615C89.9979 167.576 89.9331 167.549 89.8695 167.515C87.8282 163.347 85.9943 159.064 84.3331 154.713C81.2891 146.739 78.8059 138.555 76.5362 130.305C78.2537 124.872 79.5416 119.286 80.617 113.677C81.7209 107.923 82.5362 102.106 83.0793 96.2647C83.2338 94.6022 83.3656 92.9373 83.4753 91.2712C83.5826 89.6301 83.7196 87.9778 83.6679 86.3326C83.6582 86.0243 83.1958 86.0566 83.1634 86.3469C83.0009 87.8147 82.9725 89.298 82.8804 90.7723C82.7895 92.2246 82.6816 93.6762 82.5566 95.1261C82.3061 98.0252 81.9874 100.918 81.5999 103.801C80.8199 109.609 79.7671 115.381 78.4434 121.079C77.7855 123.911 77.0589 126.725 76.3243 129.536C75.4221 126.236 74.5495 122.928 73.6928 119.618C73.2644 117.964 72.8412 116.308 72.4145 114.654C72.4571 114.547 72.452 114.425 72.3554 114.325C72.3441 114.313 72.3321 114.302 72.3208 114.29C69.6262 103.84 66.9509 93.3835 64.2585 82.9322C61.0896 70.6338 57.9586 58.3246 54.6794 46.0584C54.2636 44.5034 53.8574 42.946 53.4432 41.3904C53.358 41.0702 52.8683 41.1455 52.9501 41.4752C56.0384 53.966 59.2159 66.4306 62.4002 78.8945C65.3192 90.3183 68.2468 101.739 71.1737 113.161C70.5516 112.569 69.9205 111.988 69.308 111.388C68.2797 110.38 67.2667 109.356 66.268 108.315C64.3205 106.287 62.4298 104.198 60.5981 102.053C56.8917 97.7122 53.433 93.1392 50.2276 88.3786C48.4204 85.6945 46.6956 82.9459 45.0486 80.1502C44.8629 79.8347 44.3544 80.0677 44.5402 80.3957C47.3916 85.4323 50.5543 90.2729 53.9869 94.8907C57.4167 99.505 61.1066 103.905 65.0312 108.06C66.1351 109.229 67.2577 110.378 68.3979 111.507C69.416 112.515 70.4312 113.558 71.5152 114.493C71.6504 115.021 71.7856 115.549 71.9208 116.077C74.9665 127.962 78.0531 139.862 82.1788 151.393C84.0917 156.739 86.2403 162 88.6935 167.095C88.61 167.072 88.527 167.05 88.4429 167.025C87.8924 166.865 87.3447 166.694 86.7999 166.513C85.6921 166.146 84.5962 165.739 83.5156 165.291C81.3477 164.395 79.2365 163.343 77.206 162.141C73.1497 159.74 69.3961 156.766 66.0907 153.318C64.2182 151.364 62.5508 149.244 60.922 147.067C60.7049 146.777 60.3198 147.131 60.5084 147.427C61.819 149.484 63.3808 151.387 65.0096 153.171C66.6395 154.956 68.3859 156.622 70.2352 158.152C73.941 161.218 78.0474 163.755 82.4021 165.659C83.6326 166.197 84.8836 166.684 86.1511 167.119C86.767 167.329 87.3862 167.528 88.0095 167.713C88.3884 167.826 88.7651 167.947 89.148 168.024C91.396 172.604 93.8935 177.045 96.7 181.284C102.38 189.862 109.316 197.611 117.554 203.512C118.591 204.255 119.65 204.948 120.743 205.598C121.161 205.847 121.61 205.23 121.188 204.943Z" fill="#B8F3C1"/>
<path d="M225.632 145.83C215.247 145.868 201.901 140.996 193.472 148.465C190.288 151.287 188.383 155.368 186.819 159.426C185.093 163.904 183.658 168.58 183.427 173.407C182.933 183.772 188.308 193.937 196.294 200.035C204.279 206.132 214.554 208.4 224.388 207.529C234.313 206.65 245.232 196.786 251.986 189.461C257.206 183.799 261.174 176.547 261.786 168.688C262.398 160.829 259.189 152.424 252.801 148.294C245.412 143.519 236.013 145.216 227.356 145.773C226.792 145.809 226.217 145.827 225.632 145.83Z" fill="#6567B5"/>
<path d="M161.196 157.516C154.325 154.247 147.231 152.209 139.837 151.311C132.113 150.372 124.824 147.198 117.125 146.117C108.471 144.902 100.289 138.226 91.2663 141.536C85.442 143.673 81.4901 149.784 80.4107 156.171C79.3312 162.558 80.7419 169.153 83.0087 175.187C88.0428 188.584 97.5782 199.935 109.314 207.29C117.051 212.138 125.95 215.392 134.962 217.093C145.638 219.109 157.998 220.612 168.376 215.947C182.062 209.794 185.972 193.742 181.596 179.64C178.476 169.587 170.359 161.875 161.196 157.516Z" fill="#282828"/>
<path d="M146.004 207.393C140.631 206.659 135.353 205.196 130.312 203.111C125.269 201.025 120.463 198.306 116.001 195.075C111.528 191.837 107.402 188.073 103.713 183.884C100.03 179.7 96.788 175.087 94.0923 170.139C91.3994 165.196 89.2587 159.923 87.7804 154.442C87.5981 153.765 87.4259 153.085 87.2634 152.403C87.1714 152.018 86.6055 152.181 86.6976 152.567C88.0287 158.147 90.0359 163.541 92.6168 168.611C95.1984 173.683 98.352 178.429 101.957 182.754C105.569 187.088 109.642 190.993 114.069 194.389C118.497 197.786 123.287 200.666 128.332 202.921C133.365 205.171 138.642 206.809 144.044 207.714C144.696 207.823 145.349 207.921 146.004 208.01C146.377 208.061 146.374 207.444 146.004 207.393Z" fill="#E1E1E1"/>
<path d="M177.816 56.6991C213.631 62.5075 241.657 93.5872 246.059 131.26C246.597 135.861 246.247 141.016 241.445 142.724C236.021 144.654 230.082 141.612 224.585 141.82C218.651 142.044 212.764 143.077 206.824 143.157C195.823 143.304 184.823 143.083 173.822 143.073C152.794 143.053 131.56 143.731 111.049 149.06C105.236 150.57 100.817 149.993 98.1832 143.371C96.6987 139.639 96.6692 135.458 96.9038 131.419C97.7867 116.235 102.157 101.311 109.493 88.2035C115.971 76.6291 129.555 67.3266 141.078 62.0732C152.572 56.8323 165.434 54.6912 177.816 56.6991Z" fill="#69994D"/>
<path d="M180.69 57.1496C180.617 56.7607 180.051 56.925 180.125 57.3139C180.319 58.336 180.407 59.3886 180.406 60.443C179.168 60.084 177.931 59.7255 176.693 59.3665C176.328 59.2608 176.173 59.8558 176.537 59.9615C177.798 60.3271 179.06 60.6927 180.321 61.0589C180.346 61.0661 180.367 61.0631 180.39 61.0637C180.294 63.599 179.635 66.1122 178.353 68.2031C178.339 68.1625 178.317 68.123 178.281 68.086C177.341 67.1135 176.402 66.1403 175.462 65.1678C175.193 64.8888 174.777 65.3249 175.047 65.6039C175.987 66.5764 176.927 67.5495 177.866 68.5221C177.936 68.595 178.016 68.6171 178.091 68.6081C177.193 69.9469 176.035 71.0956 174.591 71.929C172.388 73.2014 169.715 73.6799 167.272 72.9577C166.577 72.7522 165.927 72.4428 165.319 72.0622C165.86 70.5652 166.4 69.0681 166.94 67.5711C167.074 67.1995 166.507 67.0388 166.374 67.4068C165.855 68.8453 165.336 70.2838 164.817 71.7217C163.433 70.7157 162.315 69.3041 161.541 67.724C161.171 66.9683 160.894 66.1797 160.68 65.3733C162.085 64.9103 163.491 64.4473 164.896 63.9843C165.255 63.8661 165.102 63.2699 164.74 63.3893C163.335 63.8517 161.931 64.3147 160.527 64.7771C160.16 63.108 160.083 61.3666 160.208 59.6455C161.541 59.6306 162.873 59.6162 164.206 59.6013C164.532 59.5977 164.61 59.0834 164.284 58.9949C164.193 58.9705 164.102 58.946 164.012 58.9215C163.904 58.8922 163.817 58.9274 163.754 58.989C162.589 59.0015 161.425 59.0147 160.26 59.0272C160.329 58.3414 160.428 57.661 160.551 56.9913C160.623 56.603 160.057 56.4369 159.985 56.827C159.358 60.2303 159.332 63.8661 160.626 67.1093C161.503 69.3077 163.56 72.5622 165.832 73.3436C168.388 74.223 171.414 74.0796 173.874 72.9762C176.445 71.8233 178.47 69.6888 179.659 67.0376C181.036 63.9736 181.32 60.4562 180.69 57.1496Z" fill="#EAEAEA"/>
<path d="M171.889 67.4122C171.88 67.0155 171.293 67.0143 171.302 67.4122C171.342 69.1637 171.382 70.9153 171.422 72.6668C171.431 73.0635 172.018 73.0647 172.009 72.6668C171.969 70.9153 171.928 69.1637 171.889 67.4122Z" fill="#F3F3F3"/>
<path d="M184.599 34.164C184.294 34.3408 184.065 34.6879 183.853 35.0177C183.157 36.1031 182.452 37.2047 181.98 38.4162C181.508 39.6283 181.286 40.9838 181.608 42.0788C181.917 43.1344 182.689 43.8262 183.529 44.2796C183.668 44.3537 183.814 44.4242 183.977 44.4116C184.181 44.3955 184.383 44.2533 184.564 44.095C186.046 42.7951 187.272 39.2149 187.239 37.2686C187.217 35.949 186.022 33.3402 184.599 34.164Z" fill="#FAC1B6"/>
<path d="M164.49 48.1267C168.4 48.2067 172.313 48.107 176.215 47.828C175.736 52.5599 177.761 63.0339 174.336 66.1511C171.566 68.6721 165.915 68.0048 164.717 64.0931C164.151 62.2484 164.686 48.1309 164.49 48.1267Z" fill="#FAC1B6"/>
<path d="M182.256 45.3918C185.044 34.4274 187.908 16.532 173.083 13.6335C151.475 9.40932 149.662 34.7673 158.067 48.9905C159.491 51.401 161.261 53.6543 163.561 55.137C169.106 58.71 177.288 56.4591 180.458 50.4888C181.3 48.9021 181.81 47.147 182.256 45.3918Z" fill="#FAC1B6"/>
<path d="M163.764 29.3657C165.566 30.03 167.41 30.4457 169.033 30.6357C170.022 30.7516 171.053 30.745 171.976 30.3502C172.898 29.9559 173.693 29.1094 173.832 28.0723C174.019 26.6661 173.025 25.4211 172.1 24.3864C174.281 26.3011 176.514 27.9337 178.942 29.4272C181.09 30.7492 181.806 33.4446 182.452 35.8796C182.592 36.4101 182.75 36.9848 183.172 37.3115C186.742 40.0786 186.61 27.2784 186.577 26.1093C186.385 19.4568 182.463 13.3335 176.432 11.1501C174.37 10.4034 172.183 10.1405 170.015 9.88243C164.457 9.21993 159.043 10.291 156.129 15.8235C155.683 16.6694 155.286 17.5666 155.176 18.5272C154.539 24.1337 159.008 27.6135 163.764 29.3657Z" fill="#432D29"/>
<path d="M153.409 20.4246C152.856 22.3279 152.707 24.3303 152.576 26.3154C152.288 30.7218 152.124 35.3707 154.031 39.3069C154.192 35.8432 155.639 32.6155 156.779 29.3609C157.92 26.1064 158.766 22.4951 157.713 19.2089C157.3 17.9209 157.099 15.7196 155.54 16.4095C154.492 16.8737 153.708 19.3971 153.409 20.4246Z" fill="#432D29"/>
<path d="M151.161 35.4686C150.971 35.7763 150.925 36.1957 150.886 36.5917C150.759 37.8946 150.632 39.2149 150.759 40.5178C150.886 41.8207 151.299 43.126 152.073 43.9318C152.82 44.7084 153.811 44.936 154.756 44.9187C154.911 44.9157 155.071 44.9056 155.209 44.813C155.382 44.6977 155.497 44.4719 155.585 44.2425C156.309 42.3613 155.783 38.5966 154.881 36.8964C154.27 35.7434 152.046 34.0361 151.161 35.4686Z" fill="#FAC1B6"/>
<path d="M175.926 56.0439C172.402 58.1521 167.857 58.0051 164.455 55.6908C164.137 55.4746 163.843 56.0087 164.159 56.2237C167.734 58.6557 172.524 58.7889 176.222 56.5768C176.551 56.3808 176.256 55.8473 175.926 56.0439Z" fill="#C47566"/>
<path d="M152.395 37.3623C152.064 37.1688 151.768 37.7017 152.099 37.8952C153.315 38.6073 153.743 40.4132 152.995 41.645C152.791 41.9808 153.299 42.2908 153.502 41.9563C154.418 40.4485 153.88 38.2321 152.395 37.3623Z" fill="#C47566"/>
<path d="M185.686 37.6736C185.612 37.5404 185.414 37.4645 185.284 37.5631C184.358 38.2686 183.906 39.5339 184.197 40.7041C184.292 41.0883 184.858 40.9252 184.763 40.5399C184.544 39.6617 184.867 38.639 185.58 38.0959C185.708 37.998 185.771 37.8271 185.686 37.6736Z" fill="#C47566"/>
<path d="M164.958 37.8833C164.29 38.3451 163.811 39.3839 163.006 39.4843C160.87 39.7495 161.278 38.4174 160.08 37.2178C159.879 37.0171 159.598 37.176 159.571 37.4394C159.53 37.8498 159.78 38.3319 159.929 38.7017C160.555 40.2579 162.092 41.6952 163.8 41.188C164.573 40.9586 164.868 40.5184 165.239 39.8559C165.67 39.0864 166.642 37.2853 165.299 37.71C165.179 37.7489 165.066 37.8086 164.958 37.8833Z" fill="#432D29"/>
<path d="M178.562 37.7262C177.894 38.188 177.415 39.2268 176.611 39.3272C174.475 39.5924 174.882 38.2603 173.685 37.0607C173.484 36.86 173.202 37.0189 173.175 37.2823C173.134 37.6927 173.385 38.1748 173.533 38.5446C174.159 40.1008 175.696 41.5381 177.405 41.0309C178.177 40.8015 178.473 40.3613 178.844 39.6988C179.275 38.9293 180.246 37.1282 178.904 37.5529C178.784 37.5918 178.671 37.6515 178.562 37.7262Z" fill="#432D29"/>
<path d="M170.976 46.0198C170.52 46.0215 170.082 46.2073 169.625 46.2312C169.235 46.2521 168.849 46.2008 168.507 45.9905C167.67 45.4773 168.026 44.3907 168.161 43.5764C168.491 41.5824 168.79 39.5889 169.063 37.5852C169.105 37.2788 168.68 37.1336 168.608 37.4532C168.342 38.6271 168.065 39.7974 167.826 40.9784C167.591 42.1463 167.318 43.3202 167.14 44.4994C166.986 45.5257 167.299 46.4696 168.224 46.9463C169.082 47.3884 170.352 47.3256 171.196 46.8734C171.589 46.6631 171.393 46.0186 170.976 46.0198Z" fill="#C47566"/>
<path d="M175.273 45.4581C174.211 47.6242 172.276 49.2085 169.909 49.365C168.765 49.4409 167.611 49.2139 166.561 48.733C166.052 48.4994 165.561 48.2144 165.098 47.8913C164.607 47.5472 164.201 47.1003 163.723 46.7455C163.524 46.5979 163.301 46.8793 163.406 47.0788C163.634 47.5101 164.032 47.8799 164.381 48.2019C164.751 48.5424 165.156 48.8477 165.581 49.1081C166.432 49.6303 167.405 49.9803 168.377 50.1392C170.354 50.463 172.347 49.9517 173.93 48.6565C174.803 47.9414 175.578 46.994 176.025 45.9205C176.244 45.3936 175.535 44.9234 175.273 45.4581Z" fill="#C47566"/>
<path d="M165.233 31.6758C164.181 31.1991 162.844 31.2522 161.742 31.484C161.183 31.6017 160.629 31.8138 160.121 32.0856C159.664 32.3305 159.062 32.7057 158.789 33.1776C158.695 33.3401 158.851 33.5612 159.027 33.5032C159.254 33.4291 159.462 33.2804 159.673 33.1669C159.901 33.0444 160.133 32.9351 160.369 32.8341C160.859 32.625 161.355 32.4715 161.873 32.3622C162.367 32.2583 162.871 32.2218 163.374 32.2421C163.901 32.2636 164.388 32.41 164.904 32.4954C165.117 32.5307 165.319 32.4566 165.408 32.2356C165.482 32.051 165.429 31.7642 165.233 31.6758Z" fill="#432D29"/>
<path d="M179.982 33.8259C179.752 33.5935 179.506 33.3791 179.252 33.1766C178.762 32.7847 178.229 32.4525 177.666 32.1897C177.101 31.9262 176.516 31.7207 175.908 31.5971C175.339 31.4812 174.628 31.3593 174.068 31.5654C173.875 31.6365 173.869 31.9149 174.068 31.9842C174.592 32.1658 175.183 32.1723 175.723 32.3056C176.275 32.4418 176.816 32.6371 177.327 32.8976C177.821 33.1497 178.296 33.4537 178.726 33.8128C178.948 33.9986 179.159 34.1987 179.36 34.4096C179.564 34.6252 179.752 34.9371 180.076 34.9162C180.211 34.9072 180.365 34.8164 180.393 34.6629C180.461 34.2871 180.22 34.0667 179.982 33.8259Z" fill="#432D29"/>
<path d="M234.972 148.637C234.959 154.52 234.167 160.464 232.524 166.315C222.975 200.299 188.573 217.523 158.201 210.002C157.723 209.886 157.244 209.766 156.766 209.632C152.493 208.461 148.309 206.791 144.299 204.6C140.136 202.339 136.164 199.511 132.463 196.104C131.312 195.04 130.202 193.927 129.143 192.769C125.912 189.247 123.109 185.297 120.75 181.05C118.489 176.975 116.634 172.629 115.203 168.114C114.466 165.771 113.835 163.389 113.323 160.971C112.332 156.282 111.781 151.487 111.684 146.691C111.658 145.515 111.663 144.339 111.692 143.164C111.701 142.839 111.713 142.519 111.726 142.194C111.739 141.855 111.756 141.521 111.773 141.187C111.887 139.081 112.09 136.988 112.387 134.913C112.777 132.147 113.331 129.413 114.051 126.742C115.415 121.674 117.375 116.812 119.958 112.306C122.766 107.403 126.311 102.928 130.617 99.0807C146.082 85.2637 168.073 80.8687 187.667 85.3079C216.039 91.734 235.052 119.409 234.972 148.637Z" fill="#789CFA"/>
<path d="M120.689 180.945C120.735 181.036 120.78 181.128 120.826 181.22C120.841 181.248 120.883 181.309 120.936 181.382C120.919 181.352 120.902 181.321 120.885 181.291C120.821 181.175 120.754 181.061 120.689 180.945Z" fill="#B8F3C1"/>
<path d="M120.638 180.842C120.655 180.876 120.672 180.91 120.689 180.944C120.753 181.06 120.82 181.174 120.885 181.29C120.802 181.141 120.72 180.991 120.638 180.842Z" fill="#B8F3C1"/>
<path d="M126.152 133.295C126.567 133.338 126.837 133.071 127.358 133.112C127.48 135.725 127.47 137.583 128.76 139.833C129.451 141.032 130.19 143.931 131.638 144.029C132.451 144.088 132.909 143.134 133.572 142.8C134.03 142.555 134.572 142.604 135.077 142.339C136.404 141.641 137.852 140.226 138.843 139.067C141.665 135.726 137.516 137.505 136.067 136.217C135.254 135.5 135.264 133.78 134.89 132.788C134.142 130.813 133.404 129.054 133.75 126.863C135.955 130.715 137.104 132.199 140.515 134.38C141.804 135.215 142.094 133.978 143.234 135.628C144.15 136.964 143.337 138.89 143.692 140.315C144.177 142.27 145.532 143.686 146.233 145.444C146.953 147.233 146.832 148.599 147.336 150.416C147.953 152.657 147.962 155.084 151.307 154.15C151.327 151.722 152.731 148.413 154.656 145.656C153.049 141.408 152.176 136.788 152.198 131.959C152.277 114.927 163.459 100.604 178.714 96.0834C176.337 94.805 174.05 93.5385 170.884 94.4573C170.781 94.2016 170.342 91.5588 170.548 91.5588C165.081 91.4602 159.11 93.8384 153.298 94.1819C150.588 99.9891 144.364 101.296 139.263 102.829C138.748 102.977 138.254 103.134 137.767 103.301C134.824 104.284 135.057 103.723 132.329 106.013C131.955 106.327 130.927 110.7 129.749 108.774C129.558 108.465 129.907 107.489 130.062 106.685C127.043 115.067 125.78 124.196 126.152 133.295Z" fill="#B8F3C1"/>
<path d="M129.096 147.733C128.988 147.1 128.217 146.145 127.627 145.444C127.941 146.984 128.3 148.513 128.707 150.026C128.986 149.189 129.191 148.267 129.096 147.733Z" fill="#B8F3C1"/>
<path d="M152.2 131.958C152.177 136.787 153.05 141.407 154.658 145.655C156.324 143.269 158.38 141.297 160.27 140.668C164.476 139.272 164.466 141.64 167.195 144.52C168.008 145.375 169.138 146.013 169.821 146.996C170.447 147.89 170.596 149.207 170.961 150.248C171.232 151.024 172.007 151.555 172.017 152.39C172.017 153.019 171.69 153.491 171.718 154.149C171.746 154.788 172.017 154.955 172.176 155.485C172.484 156.557 171.475 157.146 171.485 158.04C171.485 158.423 171.989 159.091 172.12 159.533C172.503 160.87 172.624 161.685 173.783 162.569C174.148 162.845 174.755 163.434 175.25 163.031C175.932 162.461 175.175 160.751 175.044 160.014C174.773 158.53 174.437 157.116 173.755 155.789C173.157 154.629 172.53 153.657 172.811 152.281C172.914 151.77 173.26 149.776 173.783 149.618C174.353 149.461 175.465 150.778 175.83 151.151C176.157 151.476 176.11 151.319 176.241 151.77C176.39 152.311 176.381 153.5 176.25 154.001C176.839 154.708 177.502 153.726 178.109 153.736C178.483 153.736 178.521 154.276 179.184 154.001C184.006 151.967 174.708 143.212 179.483 139.714C179.913 140.343 180.492 141.561 181.212 141.964C182.502 142.682 184.361 141.817 182.417 140.785C181.632 140.363 185.557 139.527 185.594 139.517C187.174 138.977 188.5 137.886 189.379 136.392C190.771 134.034 191.836 127.529 188.033 127.038C187.547 125.279 188.042 124.65 189.379 123.687C188.594 123.736 187.828 123.618 187.108 123.353C186.173 122.999 189.332 121.83 189.5 121.811C191.117 121.643 192.425 122.302 193.248 123.825C193.491 124.267 193.584 124.7 193.621 125.221C193.621 125.201 196.462 124.867 196.733 124.896C196.976 123.599 195.752 122.95 196.06 121.536C196.294 120.445 197.023 119.6 197.714 118.804C199.228 117.055 200.77 115.493 199.92 112.938C198.779 109.528 193.528 110.196 196.873 105.902C201.004 100.576 201.368 108.909 205.508 109.449C203.704 106.747 203.452 103.711 201.489 101.009C199.536 98.3267 198.723 98.6803 195.873 97.4617C194.537 96.8918 194.976 95.6343 192.733 95.4867C190.183 95.3194 187.538 98.12 184.66 98.0614C182.35 98.0148 180.507 97.0447 178.716 96.0811C163.461 100.603 152.279 114.926 152.2 131.958Z" fill="#B8F3C1"/>
<path d="M120.885 181.29C120.902 181.321 120.919 181.352 120.936 181.382C120.938 181.385 120.941 181.388 120.943 181.391C120.924 181.358 120.904 181.324 120.885 181.29Z" fill="#B8F3C1"/>
<path d="M128.891 105.767C128.228 106.1 127.274 107.466 126.611 107.987C126.481 108.086 126.349 108.194 126.219 108.282C126.219 108.301 126.21 108.301 126.2 108.301C125.238 109.058 124.219 109.854 123.359 110.709C122.145 111.937 121.509 113.234 120.977 114.865C120.967 114.885 120.967 114.895 120.958 114.914C120.659 115.828 120.538 116.457 119.986 117.243C119.715 117.627 118.977 117.892 119.098 118.52C119.313 119.631 120.369 118.874 120.724 118.422C121.593 117.302 121.873 115.818 123.041 114.914C122.546 116.515 122.64 118.009 121.995 119.581C121.799 120.072 121.35 120.799 121.434 121.36C121.556 122.254 121.752 121.762 122.079 122.195C122.574 122.844 122.873 122.775 122.799 123.865C122.042 124.042 121.902 123.56 121.294 123.305C120.874 123.128 121.032 122.823 120.463 122.814C119.827 122.794 119.416 123.875 118.668 123.58C117.846 123.266 118.07 121.753 117.323 121.369C112.828 131.244 112.202 142.554 112.585 153.549C113.389 153.982 114.257 154.335 114.435 155.701C114.734 157.892 114.772 160.251 115.043 162.491C115.82 168.963 117.737 175.067 120.639 180.841C120.721 180.99 120.803 181.141 120.886 181.29C120.905 181.323 120.924 181.357 120.943 181.391C121.492 182.15 123.789 184.953 123.967 184.294C124.696 181.592 124.883 178.801 125.331 176.002C125.509 174.862 125.714 173.663 125.209 172.641C124.723 171.639 123.863 171.029 123.396 169.969C123.022 169.124 122.387 168.485 122.088 167.718C121.518 166.254 121.892 164.151 122.2 162.668C122.536 161.106 122.788 159.681 122.929 158.089C123.059 156.723 123.62 156.34 124.639 155.505C125.947 154.424 127.292 152.969 128.115 151.456C128.3 151.116 128.52 150.589 128.708 150.025C128.3 148.511 127.941 146.983 127.628 145.443C127.457 145.24 127.3 145.057 127.181 144.912C126.256 143.801 125.63 143.261 125.387 141.649C125.181 140.274 125.284 138.849 125.443 137.483C125.584 136.275 125.265 134.251 125.882 133.229C125.981 133.268 126.069 133.285 126.153 133.294C125.781 124.195 127.044 115.066 130.063 106.682C130.233 105.8 130.167 105.123 128.891 105.767Z" fill="#B8F3C1"/>
<path d="M187.661 173.687C187.068 173.485 186.618 173.017 186.147 172.61C185.286 171.865 184.19 172.283 183.207 172.414C182.235 172.545 181.751 171.884 180.831 171.783C179.98 171.69 179.497 172.324 178.572 172.135C177.889 171.995 176.735 171.516 177.327 172.665C177.753 173.492 178.366 173.182 179.066 173.371C179.77 173.561 180.348 174 181.101 174.185C182.202 174.454 183.374 174.551 184.426 174.957C185.568 175.399 186.063 175.085 187.171 174.562C187.719 174.303 188.358 174.425 188.892 174.141C188.665 173.695 188.081 173.83 187.661 173.687Z" fill="#B8F3C1"/>
<path d="M169.841 164.759C170.55 165.822 171.431 166.737 172.154 167.773C172.846 168.766 173.594 169.998 174.951 169.986C175.399 169.982 175.721 169.782 176.118 169.739C176.54 169.694 177.222 170.071 177.157 169.427C176.567 169.219 176.54 168.366 176.63 167.516C173.998 166.557 171.505 165.302 169.188 163.788C169.424 164.141 169.648 164.469 169.841 164.759Z" fill="#B8F3C1"/>
<path d="M174.4 165.181C174.207 165.1 174.067 165.031 174.02 164.984C173.299 164.281 172.607 163.416 171.885 162.677C170.421 161.176 168.946 159.435 167.125 158.401C166.877 160.108 168.142 162.213 169.189 163.788C171.505 165.301 173.999 166.557 176.631 167.516C176.702 166.844 176.848 166.174 176.847 165.825C176.848 166.01 175.183 165.507 174.4 165.181Z" fill="#B8F3C1"/>
<path d="M189.882 162.207C189.786 160.955 191.06 159.144 189.785 158.031C188.593 156.99 187.522 158.3 186.779 159.128C186.357 159.599 186.157 159.502 185.524 159.67C184.942 159.824 185.166 159.713 184.69 160.123C184.481 160.303 184.306 160.556 184.026 160.734C183.801 160.876 183.197 161.407 183.029 161.458C182.425 161.639 181.662 161.158 181.094 161.45C180.549 161.729 180.305 162.844 180.365 163.436C180.433 164.109 180.787 164.088 181.299 164.5C181.591 164.735 182.1 165.117 182.313 165.399C182.709 165.922 182.354 166.071 182.467 166.629C182.691 167.727 183.899 167.023 184.697 167.195C185.703 167.411 186.385 167.863 187.431 167.958C188.655 168.068 188.347 167.737 188.67 166.666C188.84 166.103 189.172 165.596 189.319 165.034C189.395 164.744 189.346 164.396 189.549 164.147C190.105 163.469 190.776 164.086 190.273 162.941C190.178 162.723 189.915 162.642 189.882 162.207Z" fill="#B8F3C1"/>
<path d="M194.443 169.973C194.632 169.813 194.599 169.568 194.47 169.291C194.038 169.356 193.603 169.411 193.166 169.461C193.599 169.902 194.07 170.288 194.443 169.973Z" fill="#B8F3C1"/>
<path d="M191.956 169.888C191.962 169.785 191.96 169.681 191.959 169.578C191.584 169.609 191.206 169.635 190.828 169.653C191.205 169.668 191.966 169.697 191.956 169.888Z" fill="#B8F3C1"/>
<path d="M195.414 166.5C194.663 166.562 193.88 166.375 193.132 166.367C193.196 165.752 193.412 164.142 193.953 163.881C194.346 163.691 194.869 164.013 195.238 164.13C195.773 164.301 197.597 164.709 197.329 163.529C196.077 163.46 195.054 163.227 193.837 163.06C193.176 162.969 193.475 162.861 192.98 163.209C192.532 163.523 192.391 163.933 192.279 164.405C192.169 164.867 192.282 165.337 192.154 165.801C192.027 166.261 191.692 166.652 191.576 167.121C191.499 167.434 191.629 167.868 191.487 168.166C191.197 168.77 190.538 168.78 190.655 169.645C190.691 169.648 190.752 169.65 190.828 169.653C191.206 169.635 191.583 169.608 191.959 169.578C191.954 169.222 191.946 168.881 192.216 168.606C192.444 168.655 192.791 169.079 193.165 169.461C193.602 169.411 194.038 169.356 194.47 169.29C194.201 168.714 193.507 168 193.456 167.623C194.139 167.672 195.165 167.184 195.414 166.5Z" fill="#B8F3C1"/>
<path d="M203.095 167.537C203.631 168.336 203.288 169.348 203.862 170.023C204.104 170.308 205.521 170.588 205.571 170.74C205.853 171.608 206.172 172.353 206.987 172.749C207.151 172.828 207.762 173.063 207.914 173.022C208.41 172.885 208.519 172.227 208.879 171.919C209.173 171.667 209.751 171.384 210.108 171.238C210.679 171.005 210.773 171.11 211.376 171.303C212.001 171.504 212.518 171.571 213.118 171.703C213.772 171.848 214.364 172.345 215.072 172.265C215.252 171.559 214.43 171.379 214.155 170.845C213.627 169.823 213.751 168.842 213.021 167.849C212.226 166.768 211.269 165.806 209.938 165.573C208.159 165.262 206.745 167.169 205.093 166.774C204.764 166.695 204.5 166.533 204.27 166.332C203.596 166.645 202.913 166.939 202.218 167.211C202.5 167.431 202.627 167.769 203.095 167.537Z" fill="#B8F3C1"/>
<path d="M202.626 164.399C201.157 163.213 200.22 164.965 198.742 164.753C198.533 165.99 200.818 165.656 201.449 166.155C201.252 166.381 201.077 166.643 201.078 166.944C201.395 167.036 201.772 166.984 202.055 167.11C202.117 167.137 202.169 167.173 202.218 167.211C202.913 166.939 203.597 166.645 204.27 166.332C203.651 165.788 203.282 164.928 202.626 164.399Z" fill="#B8F3C1"/>
<path d="M215.205 165.226C214.859 166.783 215.379 167.447 216.349 168.115L215.547 167.271C217.397 167.669 219.209 168.215 220.419 166.837C219.121 165.245 216.957 165.53 215.205 165.226Z" fill="#B8F3C1"/>
<path d="M194.081 147.51C193.34 146.378 194.15 144.603 192.047 144.671C191.909 148.429 191.343 149.221 194.599 151.167C194.245 151.238 193.767 151.591 193.37 151.695C192.791 153.63 194.125 154.325 195.71 154.521C195.7 154.627 195.725 155.163 195.742 155.275C194.945 155.138 194.014 155.473 193.353 155.592C193.787 157.048 195.154 157.011 196.554 157.005L195.216 157.286C195.724 157.425 196.523 157.288 197.035 157.259C198.273 155.198 197.323 151.573 196.13 149.572C195.732 148.905 194.574 148.263 194.081 147.51Z" fill="#B8F3C1"/>
<path d="M202.46 119.888C203.612 118.719 203.292 117.209 202.18 115.961C200.257 116.611 201.319 122.274 202.732 123.532C203.256 123.998 200.336 125.847 200.131 126.04C199.406 126.721 199.591 127.943 198.782 128.463C199.706 128.792 199.983 128.3 200.667 127.772C201.717 126.963 202.72 126.704 203.514 125.514C204.833 123.535 205.18 120.606 202.46 119.888Z" fill="#B8F3C1"/>
<path d="M186.72 196.742C187.346 196.316 187.966 195.895 188.774 195.615C189.089 195.506 189.344 195.227 189.686 195.154C190.151 195.056 190.632 195.258 191.109 195.209C192.29 195.086 193.167 194.356 194.086 193.659C194.363 193.448 196.787 191.705 196.799 191.714C197.709 192.365 198.39 193.309 199.555 193.711C199.614 193.732 199.668 193.748 199.717 193.763C200.52 193.991 200.575 194.399 200.945 195.145L200.946 195.146C204.56 194.312 208.104 193.157 211.529 191.696C211.686 191.36 211.858 191.068 212.04 190.679C212.191 190.356 212.132 189.99 212.229 189.635C212.414 188.965 213.008 188.879 213.241 188.413C213.355 188.185 213.329 187.156 213.373 186.83C213.454 186.229 213.521 185.939 213.77 185.482C213.879 185.281 214.107 185.418 214.164 185.14C214.242 184.759 213.652 184.308 213.413 184.155C213.181 184.007 212.595 184.025 212.452 183.752C212.257 183.378 212.708 182.952 212.593 182.569C212.303 181.599 211.115 181.401 210.796 180.393C210.438 179.263 210.115 177.929 210.142 176.721C210.143 176.682 209.123 177.334 209.013 177.512C208.783 177.882 208.829 178.254 208.75 178.661C208.516 179.882 207.69 179.812 206.652 179.271C206.408 179.143 205.939 178.971 205.725 178.827C205.293 178.537 205.612 178.665 205.306 178.254C204.808 177.586 204.775 177.733 205.205 176.989C205.547 176.399 205.622 176.24 205.583 175.484C205.029 175.434 204.678 175.818 204.116 175.681C203.692 175.579 203.714 175.199 203.176 175.321C202.229 175.536 201.499 177.356 201.07 178.153C200.812 178.631 200.431 179.365 199.907 179.596C199.89 179.603 199.873 179.61 199.856 179.616C199.261 179.837 198.858 179.365 198.275 179.331C197.727 179.299 197.345 179.674 196.793 179.243C196.571 179.069 196.618 178.643 196.338 178.575C195.825 178.45 195.516 179.178 195.157 179.399C194.618 179.731 193.92 179.71 193.365 180.061C192.88 180.369 192.853 180.625 192.37 180.066C192.1 180.687 191.999 181.346 191.675 181.935C191.215 182.768 190.778 182.662 190.011 183.006C189.273 183.337 188.814 183.761 187.994 183.936C187.259 184.093 186.676 184.311 186.124 184.847C185.676 185.283 185.027 185.845 184.653 186.388C183.895 187.489 184.258 188.862 183.774 190.029C183.241 191.311 183.838 190.97 184.877 191.376C184.594 191.875 184.435 192.036 184.835 192.504C185.087 192.8 185.623 192.751 185.666 193.239C185.72 193.831 184.881 194.114 184.694 194.586C184.556 194.936 184.53 195.705 184.565 196.1C184.586 196.34 184.627 196.534 184.682 196.696C185.361 196.721 186.041 196.738 186.72 196.742Z" fill="#B8F3C1"/>
<path d="M186.573 196.841C186.622 196.808 186.671 196.775 186.72 196.742C186.041 196.739 185.361 196.721 184.681 196.696C185.006 197.66 185.866 197.319 186.573 196.841Z" fill="#B8F3C1"/>
<path d="M202.459 197.166C202.591 197.439 202.514 197.86 202.633 198.073C202.991 198.717 203.384 198.421 203.997 198.113C205.024 197.596 206.091 197.307 207.11 196.803C207.567 196.577 208.213 196.313 208.538 195.942C208.687 195.773 208.677 195.321 208.861 195.217C209.107 195.076 209.426 195.337 209.7 195.253C210.029 195.154 210.402 194.801 210.566 194.493C210.9 193.867 211.09 192.862 211.332 192.173C211.393 191.996 211.461 191.843 211.529 191.696C208.105 193.158 204.561 194.312 200.946 195.146C201.335 195.929 202.079 196.377 202.459 197.166Z" fill="#B8F3C1"/>
<path d="M203.958 199.098C202.794 199.477 203.433 201.329 204.597 200.546C204.831 200.389 206.369 199.419 206.302 199.052C206.192 198.442 204.309 198.983 203.958 199.098Z" fill="#B8F3C1"/>
<path d="M208.923 226.656C208.996 226.416 209.042 226.163 209.053 225.897C209.1 224.819 208.553 223.818 207.973 222.928C205.147 218.59 198.412 211.766 193.026 212.838C187.114 214.015 182.51 221.36 186.236 226.869C190.13 232.627 199.259 231.666 204.988 229.803C206.619 229.272 208.424 228.266 208.923 226.656Z" fill="#FAC1B6"/>
<path d="M228.903 130.136C227.504 129.662 226.106 129.188 224.708 128.714C224.347 128.592 224.193 129.188 224.551 129.309C225.949 129.783 227.348 130.257 228.746 130.731C229.106 130.853 229.261 130.257 228.903 130.136Z" fill="#996494"/>
<path d="M124.957 137.205C123.905 138.251 122.49 139.221 121.634 140.042C121.551 140.122 121.465 140.206 121.429 140.318C121.375 140.484 121.445 140.662 121.484 140.832C122.032 143.23 115.126 146.852 113.546 147.825C108.57 150.894 99.7806 154.958 97.003 146.898C95.5674 142.732 95.5049 136.344 97.6893 132.388C99.5579 129.004 103.952 128.306 107.307 126.733C109.894 125.522 112.041 123.854 115.018 124.978C115.362 125.109 115.699 125.27 116.06 125.337C118.001 125.696 119.435 123.438 121.329 124.237C123.036 124.957 124.571 127.503 125.168 129.207C125.7 130.886 126.91 133.838 126.127 135.633C125.894 136.17 125.468 136.697 124.957 137.205Z" fill="#69994D"/>
<path d="M127.477 119.681C128.918 118.82 130.308 118.053 131.432 117.358C131.964 117.029 132.686 116.715 133.145 117.149C133.35 117.343 133.436 117.642 133.457 117.931C133.575 119.503 132.17 120.664 130.99 121.636C129.065 123.223 127.362 125.108 125.955 127.211C128.591 124.545 132.111 122.866 135.755 122.538C135.707 123.421 134.865 123.978 134.138 124.426C131.46 126.076 129.087 128.27 127.188 130.852C129.784 129.738 132.494 128.919 135.257 128.411C135.802 128.312 136.496 128.294 136.76 128.806C137.142 129.548 136.179 130.23 135.422 130.512C132.74 131.512 130.242 133.056 128.106 135.033C129.774 134.986 131.436 134.697 133.03 134.177C135.299 133.437 136.036 135.341 133.861 136.089C131.862 136.777 129.155 137.297 127.04 137.683C123.133 138.396 121.766 137.098 119.915 133.545C116.523 127.041 122.326 122.759 127.477 119.681Z" fill="#FAC1B6"/>
<path d="M121.229 137.216C120.181 138.478 119.134 139.74 118.087 141.002C118.078 141.012 118.077 141.023 118.07 141.034C116.783 140.17 115.825 138.631 115.222 137.237C114.921 136.54 114.691 135.81 114.516 135.064C115.828 134.514 117.141 133.965 118.454 133.415C118.8 133.269 118.649 132.672 118.298 132.82C116.992 133.367 115.686 133.913 114.381 134.46C114.09 132.908 114.064 131.297 114.31 129.746C114.325 129.655 114.348 129.567 114.364 129.477C115.302 129.012 116.373 128.847 117.396 129.031C117.553 129.059 117.712 128.987 117.757 128.815C117.796 128.667 117.71 128.464 117.552 128.436C116.522 128.251 115.479 128.358 114.51 128.742C114.763 127.674 115.143 126.643 115.654 125.677C115.837 125.329 115.33 125.018 115.147 125.365C113.874 127.777 113.356 130.589 113.632 133.33C113.679 133.806 113.759 134.285 113.853 134.763C113.775 134.916 113.817 135.121 113.942 135.202C114.403 137.211 115.287 139.156 116.662 140.606C117.639 141.636 118.91 142.388 120.326 142.335C120.702 142.321 120.704 141.704 120.326 141.718C119.697 141.742 119.117 141.598 118.586 141.336C119.605 140.108 120.625 138.88 121.644 137.651C121.891 137.354 121.478 136.916 121.229 137.216Z" fill="#E3E3E3"/>
<path d="M114.046 125.913C109.185 126.143 104.476 127.987 100.647 131.142C100.35 131.386 100.768 131.82 101.062 131.578C104.761 128.531 109.353 126.753 114.045 126.53C114.422 126.512 114.424 125.895 114.046 125.913Z" fill="#D4D4D4"/>
<path d="M248.531 135.473C248.702 139.201 247.999 143.165 245.994 145.321C241.345 150.322 234.656 146.925 229.809 144.318C228.678 143.709 227.547 143.101 226.415 142.493C225.275 141.879 221.439 140.921 221.093 139.622C220.938 139.044 221.122 138.417 221.421 137.905C220.463 136.674 219.001 135.839 218.403 134.344C217.653 132.471 217.827 129.759 218.01 127.784C218.104 126.778 218.271 125.759 218.726 124.87C219.411 123.53 220.663 122.633 221.867 121.79C222.33 121.465 222.841 121.126 223.395 121.174C223.698 121.2 223.98 121.34 224.269 121.441C225.731 121.948 227.478 121.321 228.341 119.98C228.726 119.382 231.903 120.276 232.413 120.372C237.021 121.236 245.198 124.27 247.275 129.209C247.969 130.861 248.424 133.12 248.531 135.473Z" fill="#69994D"/>
<path d="M216.509 118.291C215.27 117.528 214.075 116.848 213.109 116.233C212.651 115.942 212.029 115.662 211.627 116.033C211.448 116.198 211.371 116.457 211.349 116.706C211.23 118.066 212.435 119.088 213.447 119.944C215.097 121.34 216.552 122.993 217.749 124.83C215.494 122.491 212.463 120.996 209.312 120.67C209.343 121.435 210.068 121.927 210.691 122.324C212.994 123.784 215.026 125.711 216.643 127.969C214.406 126.974 212.068 126.233 209.681 125.762C209.21 125.669 208.61 125.646 208.376 126.086C208.038 126.725 208.864 127.327 209.517 127.58C211.829 128.477 213.976 129.842 215.805 131.579C214.361 131.519 212.925 131.25 211.55 130.781C209.593 130.115 208.935 131.754 210.81 132.427C212.534 133.045 214.872 133.528 216.7 133.887C220.076 134.549 221.273 133.441 222.913 130.386C225.918 124.791 220.938 121.016 216.509 118.291Z" fill="#FAC1B6"/>
<path d="M230.149 125.613C229.96 123.989 229.524 122.419 228.838 120.95C228.671 120.594 228.165 120.906 228.331 121.261C228.985 122.662 229.387 124.171 229.561 125.712C228.004 125.348 226.447 124.983 224.889 124.618C224.521 124.532 224.364 125.127 224.733 125.213C226.362 125.595 227.992 125.976 229.621 126.358C229.685 127.277 229.672 128.203 229.571 129.121C229.281 131.749 228.288 134.512 226.529 136.445C226.472 136.508 226.409 136.568 226.349 136.629C226.334 136.542 226.286 136.463 226.213 136.405L222.944 133.845C222.816 133.746 222.616 133.823 222.542 133.956C222.454 134.113 222.52 134.278 222.647 134.378C223.737 135.231 224.826 136.085 225.917 136.938C225.94 136.957 225.967 136.963 225.994 136.97C225.091 137.783 223.967 138.369 222.754 138.187C222.385 138.132 222.225 138.727 222.598 138.782C225.439 139.208 227.591 136.525 228.744 134.128C229.998 131.521 230.486 128.511 230.149 125.613Z" fill="#EAEAEA"/>
<path d="M241.522 123.916C237.657 122.109 233.792 120.301 229.928 118.494C229.586 118.334 229.287 118.866 229.632 119.027L241.226 124.449C241.568 124.609 241.867 124.077 241.522 123.916Z" fill="#E8E8E8"/>
<path d="M154.984 215.665C153.542 214.91 151.837 215.049 150.239 215.262C145.792 215.855 141.401 216.895 137.142 218.362C135.321 218.988 133.314 219.908 132.679 221.807C132.01 223.806 133.268 226.061 135.008 227.129C139.932 230.152 148.59 229.503 153.955 228.696C157.156 228.215 160.421 227.717 160.301 223.868C160.204 220.729 157.6 217.033 154.984 215.665Z" fill="#FAC1B6"/>
<path d="M154.261 215.425C154.536 215.099 154.817 214.777 155.098 214.455C156.756 212.561 161.494 211.652 163.848 210.386C167.156 208.607 170.388 206.679 173.577 204.677C179.931 200.687 186.09 196.37 192.302 192.146C205.377 183.255 217.904 173.131 227.712 160.299C229.175 158.386 230.623 156.38 232.608 155.088C237.232 152.077 243.662 153.952 247.402 158.105C251.141 162.257 252.663 168.101 253.297 173.781C254.57 185.179 250.657 192.075 244.168 200.547C233.293 214.747 216.912 223.574 199.899 227.098C188.194 229.524 176.157 229.586 164.328 228.219C160.211 227.744 154.374 230.208 151.653 225.374C150.655 223.599 150.83 221.304 151.628 219.42C152.258 217.933 153.227 216.647 154.261 215.425Z" fill="#282828"/>
<path d="M251.906 169.744C247.207 175.467 242.119 180.834 236.697 185.801C231.256 190.785 225.481 195.364 219.434 199.505C213.429 203.618 207.157 207.3 200.677 210.517C194.174 213.745 187.46 216.501 180.596 218.754C173.733 221.007 166.72 222.757 159.623 223.967C158.745 224.117 157.866 224.258 156.985 224.392C156.612 224.449 156.771 225.043 157.141 224.987C164.284 223.903 171.349 222.279 178.272 220.14C185.171 218.008 191.926 215.367 198.481 212.26C205.083 209.129 211.481 205.519 217.612 201.465C223.699 197.44 229.524 192.976 235.028 188.113C240.552 183.232 245.751 177.944 250.56 172.29C251.154 171.592 251.74 170.889 252.322 170.181C252.567 169.881 252.154 169.442 251.906 169.744Z" fill="#D2D2D2"/>
<path d="M199.694 12.0055C202.785 5.00893 209.851 0.161115 217.187 0.00400168C218.989 -0.0342312 220.823 0.195763 222.48 0.941902C224.277 1.75077 225.788 3.12596 227.185 4.56447C230.168 7.63505 232.845 11.2176 233.995 15.4363C235.573 21.2238 233.994 27.6989 230.448 32.4267C225.619 38.8635 214.393 44.0244 207.195 39.1186C199.02 33.548 195.634 21.1934 199.694 12.0055Z" fill="#ED919E"/>
<path d="M203.974 29.4631C201.156 33.2129 198.746 37.3009 196.806 41.6218C201.06 40.4133 205.076 38.2878 208.535 35.4155C208.745 35.2411 209.045 35.0601 209.256 35.2339C209.467 35.4077 209.001 35.7805 209.002 35.4986L203.974 29.4631Z" fill="#ED919E"/>
<path d="M212.51 27.852C210.404 25.5974 208.653 22.9773 207.348 20.1301C206.552 18.3929 205.911 16.489 206.11 14.5714C206.309 12.6544 207.553 10.7469 209.355 10.3849C211.162 10.0217 212.977 11.3013 213.912 12.9674C214.846 14.6335 215.093 16.6139 215.321 18.5333C215.86 16.4383 216.469 14.219 218.011 12.7757C219.553 11.3324 222.347 11.1627 223.445 13.0009C223.956 13.8563 223.993 14.9269 223.947 15.9353C223.685 21.7377 219.423 35.2548 212.51 27.852Z" fill="white"/>
<path d="M124.478 227.441C128.464 221.939 128.179 213.513 121.109 209.252C117.456 207.051 111.955 208.303 110.367 212.403C111.988 208.196 113.006 203.565 112.16 199.114C111.313 194.664 108.269 190.474 104.064 189.446C100.179 188.496 95.6348 191.037 94.6548 194.993C95.6343 188.615 93.2339 181.746 88.493 177.618C83.5031 173.273 76.1573 172.165 70.2074 174.86C64.9756 177.229 61.1299 182.117 58.3462 187.343C55.2232 193.204 53.1666 200.193 54.9749 206.637C48.9102 205.133 42.066 208.982 39.889 215.121C38.3221 219.54 39.3311 224.717 42.0717 228.41C44.0613 231.091 65.5181 228.584 68.9882 228.218C71.4056 227.964 74.2638 228.417 75.4813 230.628C75.8733 231.341 76.0556 232.181 76.5482 232.821C77.5117 234.071 79.2706 234.138 80.8 234.1C89.3258 233.889 97.8516 233.678 106.378 233.467C110.249 233.371 114.168 233.268 117.893 232.159C120.653 231.338 122.9 229.618 124.478 227.441Z" fill="#8EBDA2"/>
<path d="M104.039 205.732C103.561 202.99 101.243 201.18 98.6803 200.95C97.6469 200.857 96.58 201.04 95.6426 201.509C95.9857 198.764 95.1279 195.886 93.3809 193.811C91.355 191.406 88.165 190.414 85.1926 191.063C83.5092 191.43 81.9554 192.277 80.7959 193.621C80.5806 193.87 80.9067 194.209 81.1458 193.989C83.2411 192.062 86.2373 191.256 88.9439 191.977C91.6283 192.692 93.6735 194.931 94.4638 197.695C94.9057 199.241 94.9307 200.859 94.4899 202.408C94.3774 202.804 94.8506 203.249 95.1983 202.981C96.9413 201.639 99.3808 201.67 101.164 202.918C103.008 204.209 103.524 206.682 102.837 208.814C102.654 209.381 102.381 209.926 102.031 210.399C101.839 210.659 101.615 210.888 101.389 211.115C101.162 211.342 100.978 211.594 100.73 211.802C100.464 212.024 100.752 212.55 101.069 212.414C101.35 212.294 101.67 212.179 101.924 212.004C102.19 211.82 102.423 211.557 102.628 211.305C103.024 210.817 103.349 210.276 103.593 209.688C104.108 208.444 104.272 207.068 104.039 205.732Z" fill="#7096A3"/>
<path d="M65.2891 207.994C63.6824 205.671 60.6424 204.523 57.9768 204.781C55.1685 205.052 52.712 206.899 51.4632 209.551C50.7735 211.016 50.4452 212.657 50.6281 214.287C50.6781 214.732 51.3371 214.753 51.307 214.287C51.1343 211.63 52.2444 208.992 54.205 207.31C56.1673 205.627 58.8471 205.269 61.2179 206.105C62.574 206.583 63.6574 207.447 64.6266 208.532C64.947 208.891 65.5748 208.408 65.2891 207.994Z" fill="#7096A3"/>
<path d="M312.25 98.6472C307.37 96.7571 301.786 97.8599 297.213 100.466C292.641 103.073 288.919 107.044 285.451 111.12C284.131 112.673 282.846 114.258 281.578 115.858C281.916 116.958 282.215 118.07 282.51 119.162C283.344 122.261 284.039 125.399 284.74 128.533C284.829 128.931 284.339 129.189 284.053 128.971C281.441 126.965 278.544 125.382 275.98 123.319C271.841 129.148 268.028 135.234 264.589 141.546C263.012 144.442 261.403 147.468 259.876 150.586C260.408 151.522 260.964 152.442 261.543 153.341C263.395 156.221 265.471 158.966 267.829 161.408C268.143 161.733 267.71 162.301 267.331 162.12C263.857 160.463 260.225 159.142 256.728 157.533C254.19 163.678 252.271 170.075 251.81 176.5C251.463 181.337 252.524 186.606 256.162 189.945C261.275 194.639 270.788 190.095 275.718 187.404C283.078 183.388 289.888 178.294 295.961 172.362C291.674 167.18 286.824 162.492 283.353 156.618C283.103 156.195 283.517 155.648 283.948 155.962C285.653 157.207 287.503 158.198 289.405 159.064C292.733 160.58 296.2 161.718 299.556 163.156C300.708 163.65 301.84 164.197 302.967 164.752C309.043 157.41 314.101 149.137 317.868 140.252C314.485 138.303 311.041 136.468 307.538 134.77C305.891 133.971 304.217 133.245 302.562 132.467C300.984 131.725 299.417 130.888 298.105 129.688C297.984 129.578 297.946 129.439 297.955 129.305C297.863 129.096 297.897 128.82 298.154 128.695C300.156 127.722 302.466 127.609 304.637 127.619C306.744 127.63 308.843 127.83 310.941 128.011C313.318 128.215 315.695 128.303 318.068 128.57C319.318 128.711 320.57 128.845 321.824 128.949C323.111 124.112 323.793 119.11 323.098 114.173C322.158 107.506 318.266 100.977 312.25 98.6472Z" fill="#8EBDA2"/>
<path d="M272.147 192.285C275.256 191.086 278.608 190.143 281.855 190.826C285.102 191.509 288.163 194.258 288.323 197.737C288.508 201.736 285.084 204.817 281.811 206.867C276.793 210.008 255 223.205 252.285 213.775C249.351 203.587 265.363 194.904 272.147 192.285Z" fill="#8EBDA2"/>
<path d="M308.082 110.567C302.142 117.133 296.531 124.06 291.094 131.087C285.688 138.074 280.497 145.246 275.531 152.585C270.53 159.976 265.758 167.538 261.224 175.255C256.707 182.942 252.421 190.782 248.396 198.767C244.356 206.783 240.551 214.934 237.084 223.243C236.871 223.755 236.661 224.267 236.458 224.78C235.974 225.242 235.491 225.704 235.016 226.176C234.736 226.454 235.149 226.873 235.434 226.616C235.594 226.472 235.755 226.331 235.915 226.188C235.913 226.194 235.91 226.201 235.907 226.208C235.806 226.479 236.233 226.668 236.355 226.407C236.516 226.065 236.671 225.718 236.83 225.375C240.984 221.671 245.203 218.053 249.617 214.691C254.493 210.977 259.545 207.522 264.757 204.352C266.216 203.464 267.687 202.598 269.17 201.755C270.67 200.903 272.219 200.13 273.693 199.23C274.11 198.976 273.744 198.378 273.325 198.568C271.921 199.206 270.574 200.005 269.227 200.765C267.896 201.517 266.575 202.286 265.263 203.074C262.639 204.648 260.054 206.295 257.512 208.011C252.416 211.449 247.494 215.168 242.765 219.143C241.005 220.621 239.28 222.142 237.594 223.71C239.029 220.535 240.407 217.331 241.871 214.171C243.752 210.109 245.678 206.07 247.671 202.068C251.642 194.092 255.849 186.245 260.293 178.55C264.737 170.854 269.418 163.309 274.325 155.931C279.265 148.501 284.436 141.24 289.826 134.164C295.179 127.138 300.749 120.294 306.525 113.648C307.239 112.826 307.954 112.005 308.665 111.18C309.02 110.768 308.45 110.16 308.082 110.567Z" fill="#7096A3"/>
<path d="M222.842 228.788C222.674 223.883 226.681 219.59 231.213 218.413C233.583 217.797 236.223 217.905 238.297 219.26C240.37 220.615 241.679 223.396 240.955 225.848C242.033 223.827 244.609 222.859 246.661 223.705C248.712 224.55 249.977 227.1 249.462 229.353L222.842 228.788Z" fill="#8EBDA2"/>
<path d="M334.288 227.037C335.633 224.962 334.69 221.576 334.528 217.818C334.259 211.569 333.99 205.319 333.722 199.07C333.563 195.367 333.092 191.072 330.104 189.104C331.09 187.948 332.143 186.579 331.955 185.04C331.666 182.681 328.856 181.836 326.598 181.686C319.775 181.233 312.945 182.159 306.165 183.083C302.886 183.53 299.607 183.977 296.328 184.424C294.672 184.65 292.592 185.315 292.467 187.066C292.382 188.27 293.336 189.247 293.749 190.374C294.352 192.023 293.758 193.857 293.216 195.529C290.491 203.936 287.763 214.165 288.434 223.142C288.871 228.997 291.152 229.556 296.338 230.406C307.841 232.29 318.65 230.415 330.132 229.058C332.356 228.795 333.611 228.082 334.288 227.037Z" fill="#164C3E"/>
<path d="M317.852 194.576C317.738 194.308 317.517 194.22 317.262 194.342C313.921 195.955 311.031 198.514 308.849 201.617C306.666 204.719 305.146 208.343 304.556 212.158C304.273 213.983 304.2 215.831 304.371 217.667C304.226 217.981 304.075 218.292 303.935 218.609C303.513 219.563 303.103 220.524 302.715 221.494C302.336 222.441 301.906 223.407 301.678 224.409C301.601 224.746 302.047 224.926 302.211 224.628C302.644 223.843 302.953 222.976 303.307 222.148C303.652 221.338 304.006 220.531 304.37 219.73C304.446 219.847 304.565 219.931 304.731 219.924C306.686 219.833 308.683 218.944 310.379 217.964C312.119 216.958 313.708 215.635 315.026 214.073C317.815 210.77 319.321 206.441 319.337 202.031C319.346 199.471 318.848 196.911 317.852 194.576ZM317.668 207.495C316.429 211.337 313.824 214.581 310.526 216.659C309.625 217.227 308.676 217.707 307.687 218.084C306.72 218.453 305.719 218.676 304.73 218.959C304.736 218.944 304.744 218.929 304.751 218.914C304.872 218.916 304.985 218.835 304.969 218.667C304.964 218.602 304.963 218.538 304.957 218.474C305.551 217.207 306.159 215.949 306.8 214.708C308.472 211.474 310.324 208.341 312.336 205.328C312.888 204.501 313.454 203.684 314.033 202.876C314.321 202.474 314.612 202.075 314.905 201.678C315.219 201.254 315.586 200.847 315.795 200.354C315.934 200.025 315.597 199.566 315.264 199.824C314.56 200.37 314.05 201.264 313.524 201.993C313.002 202.718 312.488 203.452 311.985 204.192C310.948 205.717 309.952 207.274 309.005 208.863C307.517 211.36 306.133 213.932 304.879 216.57C304.862 213.509 305.406 210.461 306.496 207.61C307.83 204.121 309.93 200.962 312.623 198.483C314.023 197.194 315.594 196.118 317.27 195.268C318.777 199.124 318.942 203.54 317.668 207.495Z" fill="white"/>
<path d="M325.688 189.087C324.753 188.947 323.786 188.96 322.842 188.932C321.883 188.904 320.923 188.889 319.964 188.883C318.045 188.871 316.127 188.901 314.209 188.974C310.373 189.119 306.543 189.433 302.733 189.919C301.685 190.052 300.639 190.198 299.594 190.357C298.513 190.521 297.454 190.759 296.383 190.982C296.037 191.054 296.129 191.683 296.484 191.633C298.38 191.367 300.283 191.118 302.184 190.876C304.041 190.639 305.903 190.443 307.767 190.285C311.545 189.966 315.335 189.811 319.125 189.822C320.18 189.825 321.236 189.84 322.291 189.869C323.386 189.899 324.504 190.019 325.598 189.965C326.055 189.944 326.178 189.161 325.688 189.087Z" fill="#EBEBEB"/>
<path d="M29.163 216.671C28.0625 216.246 26.9155 215.986 25.7662 215.756C24.4686 215.496 23.1693 215.244 21.8706 214.988C19.2067 214.464 16.5427 213.94 13.8788 213.415C12.5716 213.158 11.266 212.881 9.95366 212.65C8.76174 212.441 7.52891 212.3 6.3279 212.508C4.40708 212.842 2.44081 214.238 2.25674 216.433C2.06585 218.709 3.66285 220.64 5.48879 221.607C6.49266 222.138 7.58857 222.456 8.67879 222.725C9.93605 223.034 11.2001 223.315 12.4613 223.608C15.9013 224.408 35.7282 231.262 33.746 221.477C33.2631 219.094 31.231 217.472 29.163 216.671Z" fill="#282828"/>
<path d="M45.308 226.19C43.0554 226.384 40.4147 226.134 39.9102 226.079C38.0689 225.878 31.5719 225.592 30.4879 224.226C29.7153 223.253 29.688 220.947 30.6811 220.228C31.5054 219.631 32.5905 220.256 33.5041 220.685C34.7238 221.259 36.0663 221.464 37.3895 221.664C40.6931 222.163 43.9967 222.662 47.3004 223.16C47.7247 223.224 48.2048 223.326 48.4241 223.713C49.3678 225.377 47.5259 225.999 45.308 226.19Z" fill="#585858"/>
<path d="M58.1255 219.492C58.6465 219.718 59.151 219.927 59.6339 220.101C65.2282 222.109 70.9157 223.623 75.2663 228.143C75.9617 228.866 76.6048 230.098 75.9032 230.815C75.7135 231.008 75.4584 231.112 75.2107 231.208C69.6459 233.37 63.7494 234.575 57.8222 234.796C53.843 234.945 45.5059 236.013 43.8413 231.214C42.5897 227.604 44.7304 222.607 46.6194 219.658C49.4782 215.196 54.2413 217.808 58.1255 219.492Z" fill="#585858"/>
</svg>
