<svg width="47" height="50" viewBox="0 0 47 50" fill="none" xmlns="http://www.w3.org/2000/svg">
<path d="M38.1875 25.7812V28.9062L33.7812 25.7812V24.2188L38.1875 21.0938V24.2188L36.7188 25L38.1875 25.7812ZM17.625 25C18.3802 24.1707 19.1796 23.3881 20.0191 22.6562C21.0719 21.6438 22.3093 20.8727 23.6542 20.3906C24.8549 21.6005 25.5859 23.2451 25.7031 25C25.5859 26.7549 24.8549 28.3995 23.6542 29.6094C21.1941 29.0078 17.625 25 17.625 25ZM6.60938 21.875V28.9062C6.60938 29.1135 6.532 29.3122 6.39428 29.4587C6.25656 29.6052 6.06977 29.6875 5.875 29.6875H2.9375C2.74273 29.6875 2.55594 29.6052 2.41822 29.4587C2.2805 29.3122 2.20313 29.1135 2.20312 28.9062V21.0938C2.20312 20.8865 2.2805 20.6878 2.41822 20.5413C2.55594 20.3948 2.74273 20.3125 2.9375 20.3125H5.875C6.06977 20.3125 6.25656 20.3948 6.39428 20.5413C6.532 20.6878 6.60938 20.8865 6.60938 21.0938V21.875Z" fill="#69994D"/>
<path d="M45.5312 21.7656V20.3125C45.5297 18.8626 44.9876 17.4726 44.0239 16.4473C43.0602 15.4221 41.7535 14.8454 40.3906 14.8438H19.0938C17.5114 14.8472 15.9646 15.3432 14.644 16.2705C13.3234 17.1978 12.2868 18.516 11.6619 20.0625C11.274 19.7195 10.7856 19.5315 10.2812 19.5312C9.82697 19.5337 9.38444 19.6851 9.01388 19.9647C8.64333 20.2442 8.36274 20.6385 8.21031 21.0938H7.34375C7.34259 20.6797 7.18747 20.283 6.91228 19.9903C6.63709 19.6975 6.26418 19.5325 5.875 19.5312H2.9375C2.54832 19.5325 2.17541 19.6975 1.90022 19.9903C1.62503 20.283 1.46991 20.6797 1.46875 21.0938V28.9062C1.46991 29.3203 1.62503 29.717 1.90022 30.0097C2.17541 30.3025 2.54832 30.4675 2.9375 30.4688H5.875C6.26418 30.4675 6.63709 30.3025 6.91228 30.0097C7.18747 29.717 7.34259 29.3203 7.34375 28.9062H8.21031C8.36274 29.3615 8.64333 29.7558 9.01388 30.0353C9.38444 30.3149 9.82697 30.4663 10.2812 30.4688C10.7856 30.4685 11.274 30.2805 11.6619 29.9375C12.2868 31.484 13.3234 32.8022 14.644 33.7295C15.9646 34.6568 17.5114 35.1528 19.0938 35.1562H40.3906C41.7535 35.1546 43.0602 34.5779 44.0239 33.5527C44.9876 32.5274 45.5297 31.1374 45.5312 29.6875V28.2344C45.5358 27.5944 45.388 26.9637 45.1017 26.4009C44.8153 25.838 44.3997 25.3615 43.8936 25.0156C44.3982 24.6606 44.812 24.1777 45.0979 23.6104C45.3837 23.0432 45.5326 22.4093 45.5312 21.7656ZM5.875 28.9062H2.9375V27.3438H4.40625V25.7812H2.9375V24.2188H4.40625V22.6562H2.9375V21.0938H5.875V28.9062ZM8.07812 27.3438H7.34375V22.6562H8.07812V27.3438ZM11.0156 28.125C11.0156 28.3322 10.9383 28.5309 10.8005 28.6774C10.6628 28.8239 10.476 28.9062 10.2812 28.9062C10.0865 28.9062 9.89969 28.8239 9.76197 28.6774C9.62425 28.5309 9.54688 28.3322 9.54688 28.125V21.875C9.54688 21.6678 9.62425 21.4691 9.76197 21.3226C9.89969 21.1761 10.0865 21.0938 10.2812 21.0938C10.476 21.0938 10.6628 21.1761 10.8005 21.3226C10.9383 21.4691 11.0156 21.6678 11.0156 21.875V28.125ZM44.0625 21.7656C44.0631 22.1524 43.9735 22.5332 43.8018 22.8741C43.63 23.2149 43.3815 23.5052 43.0784 23.7188C42.8797 23.859 42.7167 24.0494 42.6039 24.2729C42.4911 24.4965 42.4321 24.7463 42.4321 25C42.4321 25.2537 42.4911 25.5035 42.6039 25.7271C42.7167 25.9506 42.8797 26.141 43.0784 26.2812C43.3815 26.4948 43.63 26.7851 43.8018 27.1259C43.9735 27.4668 44.0631 27.8476 44.0625 28.2344V29.6875C44.0625 30.7235 43.6756 31.7171 42.987 32.4496C42.2984 33.1822 41.3645 33.5938 40.3906 33.5938H19.0938C17.3417 33.5909 15.6621 32.8491 14.4232 31.5311C13.1843 30.2132 12.4871 28.4264 12.4844 26.5625V23.4375C12.4871 21.5736 13.1843 19.7868 14.4232 18.4689C15.6621 17.1509 17.3417 16.4091 19.0938 16.4062H40.3906C41.3645 16.4062 42.2984 16.8178 42.987 17.5504C43.6756 18.2829 44.0625 19.2765 44.0625 20.3125V21.7656Z" fill="#E4EDF9"/>
<path d="M38.5343 20.4047C38.4171 20.3379 38.285 20.3063 38.1522 20.3132C38.0193 20.3201 37.8907 20.3652 37.7801 20.4437L33.3739 23.5687C33.2733 23.6401 33.1909 23.7368 33.1339 23.8501C33.0769 23.9635 33.0471 24.0901 33.0471 24.2187H32.2775C31.9683 20.4687 29.713 19.6094 29.611 19.5726L29.1395 21.0523C29.1549 21.0578 30.5348 21.639 30.7977 24.2187H29.34C29.0308 20.4687 26.7755 19.6094 26.6735 19.5726L26.202 21.0523C26.2174 21.0578 27.5973 21.639 27.8602 24.2187H26.3848C26.0899 22.5562 25.3206 21.0308 24.1817 19.85C24.0937 19.753 23.9837 19.6817 23.8623 19.6429C23.7409 19.6042 23.6121 19.5994 23.4885 19.6289C22.026 20.121 20.6825 20.9476 19.5522 22.0508C18.688 22.8033 17.8656 23.6085 17.0891 24.4625C16.9598 24.6076 16.8877 24.8 16.8877 25C16.8877 25.2 16.9598 25.3923 17.0891 25.5375C17.2411 25.7078 20.841 29.7234 23.487 30.3711C23.6109 30.4013 23.74 30.3969 23.8618 30.3581C23.9836 30.3194 24.0938 30.2476 24.1817 30.15C25.3206 28.9691 26.0899 27.4437 26.3848 25.7812H27.8742C27.6538 28.3437 26.2637 28.9234 26.2086 28.9453L26.6668 30.4297C26.7719 30.3929 29.0954 29.5367 29.3525 25.7812H30.8117C30.5913 28.3437 29.2012 28.9234 29.1461 28.9453L29.6043 30.4297C29.7094 30.3929 32.0329 29.5367 32.29 25.7812H33.0471C33.0471 25.9098 33.0769 26.0364 33.1339 26.1498C33.1909 26.2632 33.2733 26.3599 33.3739 26.4312L37.7801 29.5562C37.8907 29.6347 38.0193 29.6798 38.1521 29.6867C38.2849 29.6935 38.4169 29.6619 38.5342 29.5952C38.6514 29.5285 38.7494 29.4291 38.8177 29.3078C38.886 29.1865 38.9221 29.0477 38.9221 28.9062V25.7812C38.9228 25.6354 38.8852 25.4922 38.8134 25.368C38.7417 25.2437 38.6386 25.1433 38.516 25.0781L38.361 25L38.516 24.9179C38.6381 24.853 38.7407 24.7532 38.8125 24.6297C38.8842 24.5062 38.9222 24.3639 38.9221 24.2187V21.0937C38.9221 20.9523 38.8861 20.8135 38.8178 20.6921C38.7495 20.5708 38.6516 20.4714 38.5343 20.4047ZM23.4268 28.7211C21.8699 28.1164 19.7938 26.1789 18.6629 25.0015C19.0852 24.5625 19.7402 23.9078 20.4863 23.2617C21.361 22.4384 22.3536 21.769 23.4268 21.2789C24.339 22.2857 24.8855 23.6044 24.969 25C24.8857 26.3956 24.3392 27.7144 23.4268 28.7211ZM37.4533 23.7359L36.3907 24.3008C36.2685 24.3656 36.1657 24.4653 36.0938 24.5888C36.022 24.7123 35.9839 24.8547 35.9839 25C35.9839 25.1452 36.022 25.2876 36.0938 25.4111C36.1657 25.5346 36.2685 25.6344 36.3907 25.6992L37.4533 26.264V27.4461L34.5158 25.3633V24.6367L37.4533 22.5539V23.7359Z" fill="#E4EDF9"/>
<path d="M21.2969 23.4375H22.7656V25H21.2969V23.4375Z" fill="#E4EDF9"/>
</svg>
