<svg width="26" height="26" viewBox="0 0 26 26" fill="none" xmlns="http://www.w3.org/2000/svg">
<g clip-path="url(#clip0_66_373)">
<path d="M9.05698 0.855137C6.45918 1.75634 4.21884 3.46685 2.66503 5.73542C1.11122 8.00399 0.325839 10.7111 0.424255 13.459C0.522671 16.2069 1.49969 18.8508 3.21181 21.0024C4.92393 23.154 7.28089 24.6999 9.93651 25.413C12.0895 25.9685 14.3452 25.9929 16.5096 25.484C18.4704 25.0436 20.2833 24.1015 21.7706 22.75C23.3186 21.3004 24.4422 19.4563 25.0206 17.4159C25.6493 15.1971 25.7612 12.8638 25.3476 10.595H13.2576V15.6101H20.2593C20.1194 16.41 19.8195 17.1734 19.3777 17.8547C18.9358 18.536 18.361 19.1212 17.6878 19.5751C16.8328 20.1407 15.869 20.5212 14.8582 20.6923C13.8445 20.8808 12.8048 20.8808 11.791 20.6923C10.7636 20.4799 9.79168 20.0558 8.93714 19.4472C7.56431 18.4754 6.53351 17.0948 5.99183 15.5025C5.44098 13.8803 5.44098 12.1217 5.99183 10.4995C6.37741 9.36245 7.01483 8.32716 7.85651 7.47092C8.81971 6.47306 10.0392 5.75979 11.381 5.40935C12.7229 5.05892 14.1354 5.08487 15.4635 5.48436C16.501 5.80284 17.4498 6.35929 18.2342 7.10936C19.0236 6.32394 19.8118 5.53649 20.5985 4.74701C21.0048 4.32248 21.4476 3.91826 21.8478 3.48357C20.6505 2.36939 19.2451 1.50241 17.7121 0.932325C14.9206 -0.0812897 11.8662 -0.10853 9.05698 0.855137Z" fill="white"/>
<path d="M9.05727 0.855148C11.8662 -0.109174 14.9206 -0.0826512 17.7124 0.930304C19.2456 1.50426 20.6504 2.37541 21.846 3.49374C21.4398 3.92843 21.0112 4.33468 20.5968 4.75718C19.8087 5.54395 19.0212 6.32801 18.2345 7.10937C17.4501 6.3593 16.5013 5.80285 15.4638 5.48437C14.1362 5.08348 12.7237 5.05603 11.3815 5.40503C10.0392 5.75403 8.81902 6.46599 7.85477 7.4628C7.01308 8.31905 6.37566 9.35434 5.99008 10.4914L1.7793 7.23124C3.2865 4.24238 5.89613 1.95613 9.05727 0.855148Z" fill="#E33629"/>
<path d="M0.662025 10.4609C0.88835 9.33922 1.2641 8.25297 1.77921 7.2312L5.98999 10.4995C5.43915 12.1217 5.43915 13.8803 5.98999 15.5025C4.58708 16.5858 3.18348 17.6745 1.77921 18.7687C0.489675 16.2018 0.0963887 13.2772 0.662025 10.4609Z" fill="#F8BD00"/>
<path d="M13.2577 10.593H25.3477C25.7613 12.8618 25.6494 15.1952 25.0207 17.414C24.4423 19.4543 23.3187 21.2984 21.7707 22.748C20.4118 21.6877 19.0468 20.6355 17.6879 19.5752C18.3616 19.1208 18.9366 18.535 19.3785 17.853C19.8204 17.171 20.12 16.4067 20.2595 15.6061H13.2577C13.2557 13.9365 13.2577 12.2647 13.2577 10.593Z" fill="#587DBD"/>
<path d="M1.77734 18.7687C3.18161 17.6854 4.58521 16.5966 5.98812 15.5024C6.53089 17.0953 7.56317 18.476 8.9375 19.4471C9.7947 20.053 10.7687 20.4736 11.7975 20.6821C12.8112 20.8706 13.851 20.8706 14.8647 20.6821C15.8754 20.511 16.8392 20.1305 17.6942 19.5649C19.0531 20.6253 20.4181 21.6774 21.777 22.7378C20.2899 24.09 18.4771 25.0328 16.5161 25.4738C14.3516 25.9827 12.0959 25.9583 9.94297 25.4028C8.24018 24.9481 6.64965 24.1466 5.27109 23.0485C3.81197 21.8901 2.62022 20.4302 1.77734 18.7687Z" fill="#319F43"/>
</g>
<defs>
<clipPath id="clip0_66_373">
<rect width="26" height="26" fill="white"/>
</clipPath>
</defs>
</svg>
