<svg width="47" height="50" viewBox="0 0 47 50" fill="none" xmlns="http://www.w3.org/2000/svg">
<path d="M35.1663 4.31406C34.1807 3.42188 32.8736 3.03594 31.584 3.26094C29.4881 3.62344 27.9077 5.68438 27.9077 8.05156V17.1875C27.9077 18.0484 27.2482 18.75 26.439 18.75H20.564C19.7547 18.75 19.0952 18.0484 19.0952 17.1875V8.05156C19.0952 5.68281 17.5148 3.62344 15.4189 3.26094C14.1264 3.03594 12.8207 3.42188 11.8366 4.31406C10.8496 5.20625 10.2842 6.50781 10.2842 7.88594V40.625C10.2842 44.0719 12.9191 46.875 16.1592 46.875H30.8467C34.0867 46.875 36.7217 44.0719 36.7217 40.625V7.88438C36.7217 6.50781 36.1562 5.20625 35.1692 4.3125L35.1663 4.31406Z" fill="#E4EDF9"/>
<path d="M22.0361 39.0625C22.0361 39.925 21.3781 40.625 20.5674 40.625H18.4862C17.6813 40.625 16.944 40.1828 16.5151 39.4422C16.0715 38.675 16.0348 37.7359 16.4167 36.9297L17.7856 34.0484C18.1528 33.2797 19.037 32.9703 19.7596 33.3594C20.4837 33.7484 20.773 34.6891 20.4073 35.4594L19.4365 37.5016H20.5674C21.3781 37.5016 22.0361 38.2 22.0361 39.0625ZM30.5828 36.9297L29.236 34.0906C28.8702 33.3188 27.9875 33.0078 27.2634 33.4C26.5393 33.7891 26.2485 34.7281 26.6142 35.4984L27.5631 37.5H26.4527C25.6419 37.5 24.9839 38.2 24.9839 39.0625C24.9839 39.925 25.6419 40.625 26.4527 40.625H28.5133C29.3182 40.625 30.0555 40.1828 30.4844 39.4422C30.928 38.675 30.9647 37.7344 30.5828 36.9297ZM26.3014 31.0594C27.0137 30.6453 27.2766 29.6969 26.8874 28.9391L25.5685 26.3703C25.1675 25.525 24.3744 25 23.499 25C22.6236 25 21.8305 25.525 21.4178 26.3969L20.2355 29.0094C19.883 29.7875 20.1899 30.7203 20.9214 31.0937C21.127 31.1984 21.3444 31.2484 21.5573 31.2484C22.1037 31.2484 22.628 30.9234 22.8807 30.3641L23.5328 28.925L24.3068 30.4359C24.696 31.1938 25.592 31.475 26.3014 31.0594Z" fill="#78A640"/>
</svg>
