<svg width="18" height="17" viewBox="0 0 18 17" fill="none" xmlns="http://www.w3.org/2000/svg">
<g clip-path="url(#clip0_65_703)">
<path d="M9.19961 9.44657C9.22574 9.47122 9.24647 9.5005 9.26061 9.53272C9.27475 9.56494 9.28203 9.59948 9.28203 9.63437C9.28203 9.66925 9.27475 9.70379 9.26061 9.73601C9.24647 9.76823 9.22574 9.79751 9.19961 9.82216L8.48226 10.4997C8.6751 10.5127 8.8687 10.4878 9.0509 10.4268C9.2331 10.3657 9.39997 10.2697 9.54102 10.1449C9.70836 9.96449 9.82659 9.74829 9.88547 9.515C9.94434 9.28172 9.94207 9.03839 9.87886 8.80612C9.63281 8.74718 9.37532 8.74532 9.12835 8.8007C8.88138 8.85608 8.65225 8.96705 8.46051 9.12415C8.32748 9.25727 8.2252 9.41505 8.16017 9.58748C8.09514 9.75991 8.06877 9.94323 8.08274 10.1258L8.80192 9.44659C8.85466 9.39679 8.92618 9.36882 9.00076 9.36881C9.07534 9.36881 9.14687 9.39677 9.19961 9.44657Z" fill="#69994D"/>
<path d="M6.47755 9.36873C6.30745 9.36891 6.14436 9.43281 6.02408 9.54641C5.90379 9.66002 5.83613 9.81404 5.83594 9.9747V12.0914H12.1641V9.9747C12.1639 9.81404 12.0962 9.66002 11.9759 9.54642C11.8557 9.43282 11.6926 9.36892 11.5225 9.36873C11.5015 9.36872 11.4814 9.36085 11.4665 9.34684C11.4517 9.33284 11.4434 9.31384 11.4434 9.29403V9.0673C11.4434 9.04748 11.4517 9.02849 11.4665 9.01449C11.4814 9.00048 11.5015 8.99261 11.5225 8.9926C11.6926 8.99241 11.8557 8.92851 11.9759 8.81491C12.0962 8.7013 12.1639 8.54728 12.1641 8.38663V7.17732H5.83594V8.38663C5.83613 8.54729 5.90379 8.70131 6.02408 8.81491C6.14436 8.92852 6.30745 8.99242 6.47755 8.9926C6.49853 8.99261 6.51864 9.00048 6.53347 9.01449C6.5483 9.02849 6.55663 9.04749 6.55664 9.0673V9.29403C6.55663 9.31384 6.5483 9.33284 6.53347 9.34684C6.51864 9.36085 6.49853 9.36872 6.47755 9.36873ZM8.06203 8.74849C8.91402 7.94386 10.1456 8.31895 10.1978 8.33502C10.2392 8.34811 10.2768 8.37012 10.3076 8.39929C10.3384 8.42846 10.3617 8.464 10.3755 8.50311C10.3931 8.55214 10.7905 9.71529 9.93797 10.5204C9.75337 10.6901 9.53459 10.8231 9.2946 10.9115C9.05461 10.9999 8.79827 11.0419 8.54078 11.0351C8.29062 11.0359 8.04172 11.0016 7.80221 10.9334C7.79971 10.9326 7.79813 10.9304 7.79566 10.9296C7.75779 10.9171 7.72324 10.897 7.69441 10.8707L7.69134 10.868C7.66319 10.8407 7.64173 10.8078 7.62846 10.7717C7.62756 10.7694 7.62525 10.7679 7.62441 10.7655C7.60694 10.7166 7.20951 9.55342 8.06203 8.74849ZM6.47755 5.28474C6.30745 5.28492 6.14436 5.34883 6.02408 5.46243C5.90379 5.57603 5.83613 5.73006 5.83594 5.89071V6.64607H12.1641V5.89071C12.1639 5.73006 12.0962 5.57604 11.9759 5.46244C11.8557 5.34884 11.6926 5.28493 11.5225 5.28474H10.4823V4.90078C10.6156 4.88245 10.7374 4.81953 10.8256 4.72349C10.9139 4.62744 10.9627 4.50466 10.9631 4.3775V3.32031C10.9629 3.17947 10.9036 3.04446 10.7982 2.94487C10.6927 2.84528 10.5497 2.78925 10.4006 2.78906H7.59966C7.45053 2.78925 7.30758 2.84528 7.20213 2.94487C7.09669 3.04446 7.03736 3.17947 7.03716 3.32031V4.3775C7.0376 4.50464 7.08637 4.62741 7.17458 4.72345C7.2628 4.81949 7.3846 4.88242 7.51781 4.90078V5.28472L6.47755 5.28474ZM5.83594 13.2646C5.8362 13.5155 5.94184 13.7561 6.12969 13.9335C6.31754 14.1109 6.57224 14.2107 6.83789 14.2109H11.1621C11.4278 14.2107 11.6825 14.1109 11.8703 13.9335C12.0582 13.7561 12.1638 13.5155 12.1641 13.2646V12.6226H5.83594V13.2646Z" fill="#69994D"/>
<path d="M17.5939 7.21649C17.5632 7.1971 17.5288 7.18362 17.4925 7.17683C17.4563 7.17003 17.419 7.17006 17.3827 7.1769C17.3465 7.18374 17.3121 7.19727 17.2814 7.2167C17.2507 7.23614 17.2244 7.26109 17.2039 7.29015L17.111 7.42182C16.9104 5.63767 16.0567 3.97558 14.6973 2.72232C13.3378 1.46906 11.5579 0.703214 9.66449 0.556915C7.77109 0.410616 5.883 0.893037 4.32595 1.92095C2.76891 2.94886 1.64056 4.4578 1.13558 6.18744C1.12456 6.22141 1.12087 6.25714 1.12473 6.29249C1.12859 6.32784 1.13992 6.36209 1.15805 6.39323C1.17618 6.42437 1.20075 6.45176 1.23029 6.47377C1.25983 6.49578 1.29374 6.51197 1.33003 6.52138C1.36631 6.53079 1.40423 6.53322 1.44153 6.52855C1.47883 6.52387 1.51475 6.51217 1.54718 6.49414C1.57961 6.47611 1.60787 6.45212 1.6303 6.42359C1.65273 6.39505 1.66888 6.36256 1.67777 6.32803C2.15744 4.68577 3.24034 3.25835 4.73262 2.3013C6.2249 1.34426 8.02913 0.920076 9.82232 1.10468C11.6155 1.28929 13.2806 2.07064 14.5195 3.30886C15.7584 4.54708 16.4903 6.16133 16.584 7.86263L16.1207 7.71688C16.0506 7.69687 15.975 7.70345 15.91 7.73523C15.845 7.767 15.7956 7.82147 15.7725 7.88706C15.7493 7.95264 15.7541 8.02418 15.7859 8.08646C15.8177 8.14874 15.8739 8.19687 15.9427 8.22061L16.7864 8.48623C16.8472 8.50613 16.9135 8.50442 16.973 8.4814C16.9796 8.47909 16.986 8.47718 16.9923 8.47441C17.0208 8.46226 17.0468 8.44569 17.0694 8.42538C17.074 8.42126 17.0773 8.41651 17.0816 8.4121C17.0917 8.40266 17.101 8.39249 17.1094 8.38168L17.6719 7.58481C17.6924 7.5558 17.7067 7.52325 17.7139 7.48903C17.721 7.45481 17.721 7.41959 17.7138 7.38538C17.7065 7.35118 17.6922 7.31865 17.6716 7.28967C17.6511 7.2607 17.6247 7.23583 17.5939 7.21649ZM16.6686 10.4862C16.5967 10.4677 16.52 10.4768 16.4552 10.5116C16.3904 10.5465 16.3429 10.6041 16.3231 10.672C15.8434 12.3142 14.7605 13.7416 13.2682 14.6987C11.7759 15.6557 9.97172 16.0799 8.17853 15.8953C6.38533 15.7107 4.72024 14.9293 3.48134 13.6911C2.24243 12.4529 1.51059 10.8387 1.41683 9.13736L1.88019 9.28311C1.95026 9.30312 2.02584 9.29654 2.09085 9.26476C2.15587 9.23299 2.20521 9.17852 2.22838 9.11293C2.25155 9.04735 2.24674 8.97581 2.21495 8.91353C2.18317 8.85124 2.12692 8.80312 2.05816 8.77938L1.21441 8.51375C1.18825 8.50594 1.16101 8.50184 1.13358 8.50156C1.13071 8.50148 1.12824 8.49999 1.12542 8.49999L1.12447 8.50018C1.09007 8.50062 1.05606 8.5071 1.02417 8.51928C1.01451 8.52349 1.00511 8.52824 0.996049 8.53352C0.96389 8.54816 0.935673 8.56951 0.913531 8.59596C0.905699 8.60297 0.898326 8.61042 0.891453 8.61828L0.328953 9.41515C0.308062 9.44417 0.293464 9.4768 0.286003 9.51117C0.278542 9.54555 0.278366 9.58097 0.285484 9.61541C0.292602 9.64985 0.306873 9.68261 0.327474 9.71181C0.348075 9.74101 0.374597 9.76606 0.405508 9.78553C0.436419 9.80499 0.471106 9.81848 0.507567 9.82521C0.544028 9.83194 0.58154 9.83178 0.617936 9.82475C0.654332 9.81771 0.688891 9.80393 0.719617 9.78421C0.750344 9.76448 0.776628 9.73921 0.796953 9.70984L0.889906 9.57817C1.0905 11.3623 1.94416 13.0244 3.30359 14.2777C4.66303 15.5309 6.44299 16.2968 8.33639 16.4431C10.2298 16.5894 12.1179 16.107 13.6749 15.079C15.232 14.0511 16.3603 12.5422 16.8653 10.8126C16.8751 10.7789 16.8778 10.7438 16.8732 10.7092C16.8686 10.6746 16.8569 10.6412 16.8386 10.6109C16.8203 10.5805 16.7959 10.5539 16.7667 10.5325C16.7376 10.5112 16.7042 10.4954 16.6686 10.4862Z" fill="#69994D"/>
</g>
<defs>
<clipPath id="clip0_65_703">
<rect width="18" height="17" fill="white"/>
</clipPath>
</defs>
</svg>
