<svg width="375" height="387" viewBox="0 0 375 387" fill="none" xmlns="http://www.w3.org/2000/svg">
<g clip-path="url(#clip0_115_1257)">
<path d="M304.125 192.676C301.377 192.021 298.661 193.686 296.324 195.31C288.766 200.563 283.365 213.613 274.366 212.094C270.209 211.392 275.337 201.876 271.53 202.733C260.53 205.205 256.02 217.085 228.838 227.904C202.5 238.385 179.708 236.163 181.081 243.945C183.202 255.97 216.256 253.389 221.995 256.356C227.732 259.324 233.275 263.243 239.663 263.922C247.482 264.753 254.889 260.579 261.703 256.544C272.052 250.416 282.498 244.216 291.27 235.879C300.041 227.542 307.121 216.763 308.96 204.62C309.672 199.917 308.631 193.75 304.125 192.676ZM63.0057 327.756C63.0057 327.756 74.0488 325.592 98.2835 325.683C122.518 325.774 317.013 323.898 322.023 329.173C327.034 334.448 320.272 345.833 307.795 347.589C295.319 349.346 53.6606 349.443 52.406 342.876C51.1515 336.31 63.0057 327.756 63.0057 327.756Z" fill="#4DA061"/>
<path d="M253.537 198.686C289.164 162.016 289.163 102.562 253.534 65.8927C217.906 29.2234 160.142 29.2245 124.515 65.895C88.8882 102.566 88.8892 162.019 124.517 198.689C160.146 235.358 217.91 235.357 253.537 198.686Z" fill="#D6EDDE"/>
<path d="M245.892 190.819C277.298 158.494 277.297 106.085 245.89 73.7609C214.484 41.4368 163.565 41.4377 132.16 73.7628C100.754 106.088 100.755 158.497 132.162 190.821C163.568 223.145 214.487 223.144 245.892 190.819Z" fill="#A9DBCA"/>
<path opacity="0.25" d="M214.809 62.0324C247.064 74.9916 265.113 104.903 245.856 106.846C226.599 108.789 200.81 56.4081 214.809 62.0324ZM262.68 165.542C250.254 194.699 221.959 215.061 189.031 215.061C150.62 215.061 118.499 187.34 110.521 150.274C128.058 174.764 158.272 191.659 192.05 192.77C220.727 193.712 246.014 183.088 262.68 165.542Z" fill="#3F4732"/>
<path d="M190.031 80.7196C192.372 80.7212 194.27 82.672 194.266 85.086L194.229 135.239C194.227 137.649 192.328 139.599 189.986 139.599C188.353 139.598 186.936 138.646 186.23 137.252C185.923 136.649 185.75 135.961 185.751 135.232L185.789 85.0788C185.79 82.6701 187.69 80.7188 190.031 80.7196Z" fill="#6C6C6C"/>
<path d="M204.364 129.835C202.193 125.903 198.723 123.215 194.828 121.991L196.785 67.0507C196.871 64.6427 195.043 62.619 192.705 62.5309C190.361 62.4429 188.398 64.324 188.314 66.7314L186.358 121.658C184.818 122.017 183.301 122.607 181.857 123.45C173.928 128.085 171.151 138.455 175.654 146.616C180.156 154.775 190.232 157.634 198.161 152.999C206.088 148.365 208.866 137.994 204.364 129.835Z" fill="#263238"/>
<path d="M195.377 137.852C195.453 135.008 193.276 132.641 190.513 132.562C187.75 132.484 185.45 134.725 185.374 137.568C185.298 140.411 187.475 142.78 190.238 142.858C193.001 142.936 195.301 140.694 195.377 137.852Z" fill="#6C6C6C"/>
<path d="M192.354 43.9962H185.702V54.7756H192.354V43.9962Z" fill="#3F4732"/>
<path d="M192.354 209.671H185.702V220.451H192.354V209.671Z" fill="#3F4732"/>
<path d="M103.309 128.8V135.647H113.782V128.8H103.309Z" fill="#B9C1E1"/>
<path d="M264.275 128.8V135.647H274.748V128.8H264.275Z" fill="#B9C1E1"/>
<path opacity="0.5" d="M162.249 122.528C162.249 122.528 162.491 123.621 162.559 124.812C162.627 126.003 156.373 133.997 156.373 133.997L157.578 135.342C157.578 135.342 138.69 168.643 132.469 172.314C126.249 175.984 115.322 172.314 115.322 172.314L115.426 187.391C115.426 187.391 105.389 170.228 103.975 162.57C102.561 154.912 105.099 140.237 105.099 140.237L124.564 155.711L162.249 122.528ZM204.494 118.705C204.494 118.705 204.306 119.811 204.494 120.391C204.682 120.972 212.778 127.045 212.778 127.045C212.778 127.045 238.222 159.694 244.388 161.096C250.554 162.497 259.597 163.905 259.597 163.905C259.597 163.905 258.001 179.157 255.659 182.795C253.318 186.433 260.777 189.393 260.777 189.393C260.777 189.393 273.273 159.52 270.402 146.245L253.656 149.097L204.494 118.705Z" fill="#929ED3"/>
<path d="M313.794 114.722C313.747 105.298 306.256 106.576 300.178 105.298C299.559 105.086 295.275 94.5866 289.096 98.9565C282.654 95.9801 279.536 103.653 280.092 105.56C278.804 109.024 279.911 118.095 280.923 119.67C289.881 145.974 316.116 151.112 320.405 132.909C322.459 123.292 305.861 124.016 313.794 114.722Z" fill="#28264A"/>
<path d="M303.68 128.632L302.508 130.099C302.833 129.585 303.195 129.097 303.629 128.627C303.629 128.627 303.65 128.629 303.68 128.632Z" fill="#6EA45C"/>
<path d="M257.833 190.6C257.833 190.6 260.661 199.366 285.431 195.637C295.945 201.709 323.036 196.491 320.405 190.547C320.405 190.547 307.592 175.509 305.684 161.883C303.775 148.257 313.417 135.305 301.011 140.422C288.606 145.539 270.096 142.774 271.666 152.179C277.254 173.593 257.833 190.6 257.833 190.6Z" fill="#689B57"/>
<path d="M286.872 330.005L286.983 331.64C287.817 332.417 268.531 341.81 267.547 336.014L286.872 330.005Z" fill="#28264A"/>
<path d="M269.197 333.562C277.078 328.59 281.384 321.891 285.834 324.956C286.688 325.996 286.303 327.896 286.962 330.369C287.349 331.821 277.031 336.765 271.245 337.163C269.861 337.258 264.92 336.76 269.197 333.562Z" fill="#677A4D"/>
<path d="M286.16 315.485C286.04 315.667 285.232 326.209 285.232 326.209C285.232 326.209 285.136 327.445 283.06 328.161C280.522 329.037 280.118 327.843 280.118 327.843L277.963 316.984L286.16 315.485Z" fill="#FAB19E"/>
<path d="M277.961 316.988L280.121 327.84C280.121 327.84 280.52 329.032 283.058 328.161C285.14 327.44 285.228 326.209 285.228 326.209C285.228 326.209 286.035 315.666 286.161 315.486L277.961 316.988ZM284.615 326.169C284.615 326.85 283.34 327.07 282.066 327C280.782 326.92 281.668 324.747 281.298 323.286C281.298 323.286 283.671 323.055 284.401 322.515C285.13 321.964 284.615 325.498 284.615 326.169Z" fill="#EAA98C"/>
<path d="M280.405 328.838C281.978 321.942 277.791 320.182 276.418 328.215C276.418 328.215 270.124 332.273 269.682 333.2C269.24 334.128 273.159 335.207 280.405 328.838Z" fill="#3A3A60"/>
<path d="M301.391 183.286L266.724 185.055C266.724 185.055 260.907 253.031 276.877 321.002C276.877 321.002 280.975 324.714 287.756 320.499C287.756 320.499 286.914 250.055 290.142 234.841C293.37 219.627 299.334 201.891 301.391 183.286Z" fill="#3F4732"/>
<path d="M301.39 183.29C299.337 201.887 293.366 219.626 290.147 234.844C288.855 240.936 288.208 255.897 287.906 271.641C286.468 263.652 284.176 251.114 283.696 249.57C282.998 247.275 275.256 242.084 273.85 239.306C272.443 236.539 279.591 240.271 281.217 239.306C282.853 238.341 279.945 238.222 277.372 236.271C274.788 234.308 281.467 236.41 281.821 234.48C282.175 232.549 278.778 204.321 276.903 202.873C275.59 201.866 269.557 199.109 266.035 197.533C266.337 189.607 266.722 185.06 266.722 185.06L301.39 183.29Z" fill="#506037"/>
<path d="M312.16 330.593L312.356 332.219C313.228 332.95 294.45 343.377 293.17 337.642L312.16 330.593Z" fill="#28264A"/>
<path d="M294.693 335.104C302.309 329.712 306.265 322.788 310.866 325.607C311.772 326.599 311.485 328.519 312.27 330.953C312.731 332.381 302.681 337.878 296.922 338.59C295.545 338.76 290.586 338.53 294.693 335.104Z" fill="#677A4D"/>
<path d="M310.706 316.132C310.595 316.32 310.329 326.891 310.329 326.891C310.329 326.891 310.296 328.131 308.26 328.959C305.771 329.971 305.306 328.801 305.306 328.801L302.598 318.074L310.706 316.132Z" fill="#FAB19E"/>
<path d="M310.47 321.964C309.419 322.615 307.804 323.415 306.063 323.466C306.209 324.026 305.81 326.289 306.657 327.52C307.289 328.451 309.195 327.49 310.333 326.669C310.333 326.809 310.333 326.89 310.333 326.89C310.333 326.89 310.295 328.131 308.262 328.962C305.771 329.973 305.304 328.802 305.304 328.802L302.6 318.07L310.703 316.127C310.645 316.227 310.547 319.171 310.47 321.964Z" fill="#EAA98C"/>
<path d="M305.644 329.779C306.861 322.807 302.59 321.277 301.631 329.373C301.631 329.373 295.552 333.766 295.159 334.716C294.765 335.667 298.734 336.532 305.644 329.779Z" fill="#3A3A60"/>
<path d="M313.565 182.795L285.2 185.493C285.2 185.493 282.615 253.658 301.385 320.866C301.385 320.866 305.633 324.395 312.233 319.887C310.995 308.532 308.281 235.333 311.729 209.893C312.654 200.802 316.05 197.059 313.565 182.795Z" fill="#3F4732"/>
<path d="M312.237 319.881C311.122 320.643 310.08 321.18 309.1 321.533C310.299 309.071 308.142 265.185 307.454 259.822C306.673 253.709 299.795 247.274 298.076 245.665C296.357 244.057 302.14 245.022 304.015 242.749C305.891 240.475 301.671 240.518 299.764 240.035C297.868 239.552 304.484 238.909 305.266 236.27C306.047 233.621 307.141 202.391 306.652 202.165C306.162 201.93 295.263 201.265 293.095 202.165C291.491 202.82 287.708 215.078 285.853 221.384C284.665 199.624 285.197 185.488 285.197 185.488L313.56 182.797C316.05 197.061 312.654 200.804 311.726 209.888C308.277 235.338 310.997 308.535 312.237 319.881Z" fill="#506037"/>
<path d="M281.587 186.505C281.587 186.505 285.6 193.396 285.602 193.729C285.605 194.062 286.802 239.814 286.746 240.035C286.691 240.256 283.303 194.419 283.303 194.419C283.303 194.419 278.743 188.792 281.587 186.505Z" fill="#3F4732"/>
<path d="M268.618 185.702C268.618 185.702 287.813 199.258 310.159 183.785C310.159 183.785 308.551 167.887 309.246 163.67C309.94 159.452 316.04 153.713 312.904 147.856C309.766 141.999 305.173 133.107 304.187 129.411C303.2 125.714 282.199 125.185 281.149 128.167C280.099 131.149 268.626 140.562 270.603 145.807C272.58 151.051 275.48 152.105 274.756 158.707C274.032 165.309 262.928 178.355 268.618 185.702Z" fill="#DFE4EF"/>
<path d="M309.242 163.666C309.941 159.449 316.035 153.715 312.904 147.853C309.761 142.001 305.169 133.104 304.182 129.413C303.196 125.711 282.197 125.182 281.148 128.169C280.099 131.146 268.621 140.564 270.604 145.804C272.574 151.053 275.481 152.102 274.757 158.704C274.033 165.307 262.929 178.355 268.62 185.703C268.62 185.703 287.818 199.258 310.159 183.789C310.159 183.789 308.552 167.885 309.242 163.666ZM279.732 146.535C278.169 143.011 280.99 134.03 283.447 135.504C291.572 139.782 296.146 135.152 294.616 143.381C294.133 145.98 294.511 144.91 290.256 145.254C286.011 145.599 281.294 150.06 279.732 146.535ZM293.408 181.673C290.526 181.339 294.538 183.12 296.871 185.069C299.216 187.007 294.176 186.422 288.3 187.055C282.436 187.69 280.647 186.049 281.375 180.159C282.113 174.279 283.732 164.034 282.203 155.303C286.006 163.158 297.785 172.279 299.113 175.055C299.31 179.377 294.406 176.897 291.391 175.241C288.367 173.573 294.394 179.167 297.918 181.731C301.443 184.283 296.279 182.007 293.408 181.673Z" fill="#B9C1E1"/>
<path d="M288.507 126.126C288.29 125.775 288.75 119.754 288.691 119.583L296.925 112.938L296.906 126.01C297.482 126.21 298.849 126.522 300.613 127.354C296.764 135.696 286.907 138.443 284.218 126.911C283.8 126.295 287.57 126.464 288.507 126.126Z" fill="#FAB19E"/>
<path d="M284.734 126.631C284.734 126.631 286.394 133.349 290.633 133.998C294.872 134.646 300.077 127.18 300.077 127.18C300.077 127.18 301.426 127.343 301.405 127.543C301.383 127.742 298.646 135.927 290.633 135.445C284.433 135.072 283.903 126.854 283.903 126.854L284.734 126.631Z" fill="#3F4732"/>
<path d="M288.461 125.803C288.408 124.874 288.578 122.198 288.651 120.678C290.404 120.213 293.444 119.197 294.557 117.416C294.557 117.415 295.647 125.057 288.461 125.803Z" fill="#EBA090"/>
<path d="M298.687 108.704C295.926 129.198 276.991 126.665 284.329 103.452C284.66 106.324 295.384 105.79 295.384 105.79C295.832 107.967 297.031 109.086 298.687 108.704Z" fill="#FAB19E"/>
<path d="M296.042 116.763L297.543 111.09C302.762 109.832 299.719 117.78 296.042 116.763Z" fill="#FAB19E"/>
<path d="M298.917 112.934C294.21 114.071 300.753 115.502 298.027 113.789C298.027 113.789 299.627 113.002 298.917 112.934ZM288.321 107.554C288.413 108.064 286.794 108.628 284.954 108.158C283.115 107.689 288.109 106.383 288.321 107.554ZM292.053 108.562C292.315 108.118 293.887 108.809 294.954 110.421C296.021 112.032 291.453 109.579 292.053 108.562ZM287.614 111.851C288.114 111.469 287.943 110.564 287.021 109.685C286.571 108.862 283.084 109.891 285.1 110.485C287.392 109.479 286.466 112.056 287.614 111.851ZM293.282 113.365C293.782 112.983 293.612 112.078 292.689 111.199C292.239 110.375 288.753 111.407 290.769 111.999C293.06 110.993 292.134 113.57 293.282 113.365ZM289.338 112.289C285.118 118.178 291.924 115.967 288.352 115.175C288.352 115.175 289.596 112.314 289.338 112.289Z" fill="#28264A"/>
<path d="M290.897 118.19C290.153 116.987 287.937 118.683 286.391 116.959C284.551 116.866 285.445 119.07 287.791 119.622C289.714 120.006 291.192 119.281 290.897 118.19Z" fill="white"/>
<path d="M279.9 127.18C278.914 125.622 253.798 138.035 250.417 138.731C248.071 139.123 243.055 141.899 244.138 146.935C245.221 151.97 247.255 154.417 253.451 154.539C261.943 152.149 270.431 149.744 275.872 147.883C279.966 146.484 279.9 127.18 279.9 127.18Z" fill="#61BA7A"/>
<path d="M260.718 140.227C258.165 137.633 256.402 144.983 256.208 143.563C256.067 142.548 254.461 137.98 252.004 137.359C250.212 138.601 250.392 140.172 249.771 140.296C245.947 139.17 243.142 143.152 244.118 147.692C245.092 152.222 246.927 154.429 252.508 154.54C254.697 154.576 261.375 150.22 260.718 140.227Z" fill="#649A63"/>
<path d="M285.303 126.29C266.477 151.757 291.939 150.658 273.631 195.901C273.631 195.901 260.15 187.583 257.833 190.6C257.833 190.6 268.628 175.377 268.184 156.858C268.184 156.858 270.949 140.295 278.419 127.638C279.328 126.911 282.619 126.707 285.303 126.29Z" fill="#61BA7A"/>
<path d="M279.659 155.664C283.963 173.783 274.466 193.323 273.626 195.9C273.626 195.9 260.251 187.638 257.857 190.566C258.421 189.75 268.612 174.866 268.184 156.858C268.184 156.858 267.819 148.06 271.731 139.005C270.829 143.655 269.73 150.67 270.28 155.425C271.14 163.007 265.935 181.507 266.057 183.59C266.177 185.685 270.366 179.559 270.506 183.077C270.646 186.596 268.562 191.491 272.242 189.626C275.527 187.97 281.222 175.435 279.659 155.664Z" fill="#649A63"/>
<path d="M301.687 127.18C287.761 152.449 308.96 169.383 296.769 196.397C296.769 196.397 305.442 185.943 320.405 190.547C320.405 190.547 310.612 170.543 312.715 161.236C314.818 151.928 315.582 152.017 315.213 149.745C314.843 147.474 306.484 129.261 306.484 129.261C306.484 129.261 303.704 127.961 301.687 127.18Z" fill="#61BA7A"/>
<path d="M320.407 190.546C305.441 185.944 296.771 196.393 296.771 196.393C297.713 194.304 298.457 192.273 299.031 190.293C300.005 189.543 301.388 188.439 302.551 187.866C304.541 186.871 306.555 186.105 306.964 185.439C307.381 184.773 306.137 185.388 303.837 185.152C302.453 185.009 301.257 183.61 300.529 182.413C301.609 170.919 297.884 160.968 296.951 150.518C298.629 152.077 300.34 153.08 302.273 152.313C305.179 151.158 310.124 143.305 310.894 142.049C310.861 141.165 310.82 140.094 310.771 138.805C312.891 143.6 315.02 148.622 315.209 149.743C315.585 152.018 314.815 151.926 312.712 161.237C310.607 170.54 320.407 190.546 320.407 190.546Z" fill="#61BA7A"/>
<path d="M306.484 129.261C306.484 129.261 311.021 131.217 311.4 132.079C311.778 132.94 319.851 167.05 319.63 170.868C319.41 174.686 316.606 178.546 312.008 178.417C307.41 178.287 301.984 175.492 301.463 173.424C300.941 171.356 304.087 153.147 304.087 153.147L306.484 129.261Z" fill="#61BA7A"/>
<path d="M319.63 170.867C319.49 181.417 304.21 179.061 301.465 173.423C301.846 163.353 305.008 149.346 305.338 140.634C307.028 147.693 310.79 158.068 317.944 160.585C318.98 165.653 319.694 169.698 319.63 170.867Z" fill="#649A63"/>
<path d="M305.161 140.666C305.161 140.666 304.596 158.363 304.374 158.199C304.153 158.035 303.851 157.799 303.583 157.698C302.982 157.473 304.579 141.439 305.161 140.666Z" fill="#61BA7A"/>
<path d="M317.003 176.584C313.271 180.835 302.27 176.528 301.466 173.423C300.979 171.483 299.714 156.636 301.389 155.533C304.76 153.314 315.207 159.358 313.622 163.347C314.449 164.208 319.424 167.008 316.151 167.387C316.152 167.387 318.358 173.043 317.003 176.584Z" fill="#649A63"/>
<path d="M309.733 161.503L284.789 143.653L279.619 148.862C280.978 149.368 307.55 190.783 315.952 172.633C315.706 167.338 309.733 161.503 309.733 161.503Z" fill="#FAB19E"/>
<path d="M272.357 142.242C272.794 140.993 273.389 141.223 273.389 141.223C273.389 141.223 272.928 140.109 273.598 139.512C274.267 138.916 275.098 139.491 275.098 139.491C275.098 139.491 274.533 138.417 275.292 137.737C276.051 137.057 277.098 137.626 277.098 137.626C277.098 137.626 276.81 136.385 278.357 136.2C279.433 136.071 281.362 138.301 281.827 138.908C281.853 138.212 281.976 137.032 282.407 136.388C282.918 135.625 283.636 135.213 283.819 135.583C284.135 136.225 284.319 141.018 285.118 143.45C286.136 144.517 287.479 146.041 287.479 146.041L281.544 151.575C281.544 151.575 280.783 150.641 279.135 148.838C278.024 147.963 274.301 145.236 274.301 145.236C274.301 145.236 272.002 143.258 272.357 142.242Z" fill="#FAB19E"/>
<path d="M282.972 140.21C283.026 140.16 282.515 139.488 281.83 138.709C281.145 137.931 280.545 137.341 280.491 137.391C280.437 137.441 280.949 138.113 281.634 138.892C282.319 139.67 282.918 140.26 282.972 140.21ZM277.638 138.241C277.692 138.19 277.588 137.981 277.405 137.773C277.222 137.565 277.03 137.437 276.976 137.488C276.922 137.538 277.026 137.748 277.209 137.955C277.392 138.163 277.584 138.291 277.638 138.241ZM275.746 140.228C275.8 140.178 275.672 139.941 275.459 139.699C275.246 139.457 275.03 139.302 274.976 139.352C274.922 139.403 275.05 139.64 275.263 139.882C275.476 140.123 275.692 140.278 275.746 140.228ZM274.127 141.877C274.176 141.821 274.034 141.612 273.812 141.41C273.589 141.208 273.37 141.09 273.321 141.146C273.273 141.203 273.415 141.412 273.637 141.614C273.86 141.816 274.079 141.934 274.127 141.877Z" fill="#DB8F82"/>
<path d="M256.667 149.952C257.84 145.711 252.127 140.573 252.127 140.573L219.173 119.259L215.172 125.679C215.172 125.679 239.951 149.926 248.794 153.623C252.799 155.297 256.08 152.078 256.667 149.952Z" fill="#FAB19E"/>
<path d="M251.357 146.168C252.843 143.854 252.033 140.888 251.618 140.879C251.202 140.87 249.678 142.703 250.2 142.654C250.722 142.606 251.362 141.569 251.362 141.569C251.362 141.569 250.86 146.943 251.357 146.168Z" fill="#DB8F82"/>
<path d="M213.967 109.693C213.383 109.782 213.15 110.276 213.298 110.983C213.614 112.487 214.076 113.95 214.477 115.485C211.929 113.969 209.154 112.392 206.605 110.876C206.351 111.171 206.389 111.592 206.526 111.883C206.663 112.175 206.891 112.41 207.118 112.634C208.007 113.513 208.951 114.335 209.941 115.092C208.038 114.274 206.69 113.641 204.871 112.949C204.722 113.214 204.705 113.669 204.87 113.925C205.034 114.181 205.485 114.512 205.728 114.69C206.834 115.498 207.737 116.159 208.843 116.966C207.485 116.491 206.018 116.143 204.66 115.667C204.502 115.841 204.507 116.263 204.612 116.475C204.717 116.687 204.893 116.855 205.083 116.989C206.052 117.671 207.406 118.427 208.201 118.94C207.26 118.714 206.262 118.581 205.321 118.355C204.999 119.231 206.159 119.401 206.768 119.825C209.295 121.584 211.939 123.441 214.466 125.201C214.466 125.201 216.377 126.523 217.899 127.396C217.947 127.308 221.064 122.615 221.411 122.135C220.702 121.67 219.494 119.792 219.494 119.792C218.904 115.73 217.212 114.605 213.967 109.693Z" fill="#FAB19E"/>
<path d="M210.691 115.482C210.656 115.549 210.329 115.437 209.96 115.232C209.59 115.027 209.319 114.808 209.354 114.741C209.389 114.676 209.716 114.787 210.085 114.991C210.454 115.196 210.726 115.415 210.691 115.482ZM209.779 117.502C209.743 117.569 209.416 117.457 209.047 117.253C208.678 117.048 208.406 116.829 208.441 116.763C208.476 116.696 208.804 116.808 209.172 117.012C209.542 117.217 209.813 117.436 209.779 117.502ZM209.079 119.464C209.044 119.531 208.717 119.419 208.348 119.214C207.978 119.01 207.707 118.791 207.742 118.724C207.777 118.658 208.104 118.77 208.474 118.974C208.843 119.178 209.114 119.398 209.079 119.464ZM210.201 120.065C210.137 120.028 210.524 119.189 211.066 118.191C211.607 117.193 212.098 116.413 212.162 116.45C212.226 116.487 211.838 117.326 211.297 118.324C210.756 119.322 210.265 120.102 210.201 120.065ZM215.671 119.675C215.663 119.692 215.596 119.669 215.48 119.612C215.368 119.55 215.192 119.476 215.018 119.318C214.646 119.045 214.204 118.5 214.037 117.776C213.858 117.055 213.976 116.382 214.097 115.933C214.23 115.481 214.382 115.23 214.414 115.246C214.448 115.262 214.361 115.532 214.28 115.978C214.209 116.421 214.13 117.055 214.294 117.71C214.448 118.368 214.817 118.874 215.14 119.172C215.288 119.339 215.443 119.434 215.535 119.521C215.631 119.605 215.68 119.659 215.671 119.675ZM219.494 119.793C219.513 119.796 219.509 119.883 219.489 120.037C219.469 120.192 219.437 120.416 219.356 120.683C219.214 121.221 218.923 121.945 218.464 122.657C217.551 124.1 216.389 124.876 216.354 124.807C216.308 124.75 217.36 123.903 218.242 122.507C219.152 121.125 219.407 119.769 219.494 119.793Z" fill="#DB8F82"/>
<path d="M130.438 311.266C130.646 311.861 134.915 320.151 135.816 322.663C137.166 323.507 141.173 321.619 141.232 320.141C141.291 318.664 138.706 308.478 138.706 308.478L130.438 311.266Z" fill="#FAB19E"/>
<path d="M137.547 329.932C138.456 330 155.194 323.404 156.853 322.789C158.512 322.174 155.726 316.266 150.558 318.04L142.743 315.257C142.043 314.122 143.366 312.582 142.847 312.148C141.911 311.375 139.37 312.183 138.154 313.883C137.591 314.676 137.32 315.605 137.597 316.717C135.975 317.359 132.98 318.59 133.199 319.559C133.502 320.9 136.633 329.866 137.547 329.932Z" fill="#164C3E"/>
<path d="M156.854 322.79C155.19 323.402 138.455 329.998 137.547 329.936C137.126 329.898 136.218 327.959 135.344 325.743C138.223 325.794 143.678 325.575 147.433 323.503C147.433 323.503 151.896 319.354 155.84 319.068C157.327 320.457 157.781 322.442 156.854 322.79Z" fill="#C6501C"/>
<path d="M146.524 322.663C146.446 322.014 148.031 318.483 150.807 317.997C150.807 317.997 149.02 316.661 147.023 319.017C145.548 320.756 146.524 322.663 146.524 322.663Z" fill="#28264A"/>
<path d="M143.14 319.776C143.72 319.084 147.306 317.486 146.312 317.278C145.319 317.07 142.791 318.683 142.817 319.418C142.844 320.153 143.14 319.776 143.14 319.776ZM141.555 318.909C142.135 318.218 145.721 316.62 144.727 316.412C143.734 316.204 141.206 317.817 141.232 318.552C141.259 319.286 141.555 318.909 141.555 318.909ZM139.969 318.043C140.55 317.351 144.135 315.754 143.142 315.546C142.149 315.338 139.62 316.95 139.647 317.686C139.674 318.42 139.969 318.043 139.969 318.043Z" fill="#28264A"/>
<path d="M136.557 328.538C136.553 328.525 144.121 326.138 148.274 324.575C148.738 324.4 148.686 323.035 152.829 321.433C155.683 320.282 156.988 320.86 157.125 320.927C157.382 321.051 158.392 322.764 157.628 323.214C156.864 323.664 138.197 330.776 137.766 330.564C136.912 330.144 136.557 328.538 136.557 328.538Z" fill="#28264A"/>
<path d="M110.178 183.369C110.178 183.369 141.563 310.525 140.63 311.234C139.697 311.942 130.819 314.137 130.819 314.137C130.819 314.137 85.0462 217.024 84.8823 211.287C84.7183 205.551 87.0517 180.68 87.0517 180.68L110.178 183.369Z" fill="#3A3A60"/>
<path d="M134.283 313.239C132.386 313.747 130.814 314.135 130.814 314.135C130.814 314.135 85.05 217.028 84.881 211.291C84.7251 205.554 87.0509 180.678 87.0509 180.678L110.18 183.366C110.18 183.366 111.726 189.652 114.143 199.428L107.542 201.1C107.542 201.1 99.5121 227.379 99.7458 230.389C99.9927 233.398 103.501 246.237 105.697 247.935C107.88 249.647 111.687 246.932 111.388 248.59C111.102 250.249 106.646 252.348 108.802 253.405C110.959 254.461 118.041 251.452 117.859 253.405C117.677 255.371 111.687 257.163 112.415 260.774C113.051 263.957 127.539 302.982 134.283 313.239Z" fill="#313055"/>
<path d="M62.1842 316.409C62.1194 317.038 62.1074 326.454 61.855 329.118C62.7134 330.484 67.2501 331.097 67.9289 329.794C68.6079 328.491 70.8065 317.607 70.8065 317.607L62.1842 316.409Z" fill="#FAB19E"/>
<path d="M60.2198 336.398C61.0093 336.867 78.8674 338.435 80.6214 338.626C82.3752 338.816 82.3682 332.249 76.9652 331.529L71.1088 325.519C70.9596 324.184 72.8024 323.39 72.5187 322.767C72.0034 321.651 69.3745 321.239 67.5603 322.225C66.7177 322.686 66.0802 323.401 65.8597 324.525C64.1276 324.376 60.9106 324.141 60.6978 325.111C60.4028 326.454 59.4258 335.928 60.2198 336.398Z" fill="#164C3E"/>
<path d="M80.6209 338.627C78.864 338.431 61.0093 336.864 60.218 336.401C59.8552 336.178 59.8592 334.026 60.01 331.639C62.5794 332.976 67.5826 335.225 71.8399 335.044C71.8399 335.044 77.6136 333.311 81.2838 334.823C82.0344 336.739 81.603 338.73 80.6209 338.627Z" fill="#C6501C"/>
<path d="M71.3768 333.88C71.5819 333.262 74.5027 330.794 77.2075 331.602C77.2075 331.602 76.1647 329.598 73.3693 330.822C71.3059 331.726 71.3768 333.88 71.3768 333.88Z" fill="#28264A"/>
<path d="M69.5533 329.764C70.3688 329.401 74.2727 329.572 73.4664 328.939C72.6602 328.306 69.7022 328.624 69.4147 329.297C69.1275 329.97 69.5533 329.764 69.5533 329.764ZM68.4933 328.273C69.3085 327.911 73.2123 328.081 72.4061 327.448C71.6001 326.816 68.6418 327.133 68.3545 327.807C68.0674 328.48 68.4933 328.273 68.4933 328.273ZM67.4331 326.783C68.2486 326.42 72.1521 326.59 71.346 325.958C70.5399 325.325 67.5817 325.643 67.2941 326.316C67.0073 326.99 67.4331 326.783 67.4331 326.783Z" fill="#28264A"/>
<path d="M59.919 334.699C59.9207 334.685 67.7437 335.931 72.1429 336.386C72.6341 336.436 73.1653 335.184 77.5729 335.601C80.6289 335.844 81.5585 336.95 81.654 337.072C81.8329 337.299 82.0164 339.293 81.1385 339.356C80.2604 339.418 60.4476 337.449 60.1491 337.064C59.5584 336.303 59.919 334.699 59.919 334.699Z" fill="#28264A"/>
<path d="M103.996 183.205L97.6534 201.05C97.6534 201.05 75.237 318.941 70.7885 320.387C66.3398 321.833 61.2417 319.257 61.2417 319.257C61.2417 319.257 65.6034 213.48 65.6704 212.059C65.7373 210.639 65.5403 183.945 66.744 182.299C67.9475 180.653 103.996 183.205 103.996 183.205Z" fill="#3A3A60"/>
<path d="M103.995 183.206L97.654 201.046C97.654 201.046 75.2399 318.941 70.783 320.385C69.5876 320.773 68.3271 320.866 67.1447 320.813C71.0818 308.041 81.074 262.232 81.6587 259.878C82.3342 257.163 75.4346 253.86 73.8365 252.656C72.2252 251.452 80.1124 252.348 82.6202 250.85C85.1279 249.339 80.3983 247.841 77.9166 247.4C75.4217 246.972 83.6208 244.525 84.0495 242.719C84.4783 240.914 90.6373 203.909 90.4944 199.99C90.3514 196.085 73.9665 199.388 72.1864 199.99C71.2507 200.311 68.2882 205.246 65.6895 209.873C65.7155 203.186 65.7284 183.701 66.7419 182.296C67.9503 180.651 103.995 183.206 103.995 183.206Z" fill="#313055"/>
<path d="M153.352 115.06C153.943 115.045 154.255 115.49 154.227 116.213C154.166 117.751 153.955 119.274 153.816 120.856C156.074 118.913 158.544 116.869 160.803 114.926C161.102 115.171 161.134 115.593 161.048 115.904C160.962 116.216 160.777 116.487 160.591 116.748C159.861 117.772 159.068 118.747 158.219 119.668C159.958 118.527 161.179 117.664 162.856 116.661C163.048 116.897 163.14 117.342 163.02 117.623C162.901 117.905 162.512 118.31 162.302 118.528C161.348 119.519 160.568 120.33 159.613 121.321C160.871 120.613 162.259 120.011 163.517 119.303C163.702 119.445 163.767 119.863 163.7 120.09C163.631 120.317 163.486 120.514 163.321 120.68C162.48 121.522 161.272 122.507 160.575 123.152C161.464 122.764 162.425 122.456 163.314 122.068C163.778 122.873 162.663 123.246 162.134 123.771C159.938 125.95 154.69 132.741 153.336 133.869C153.274 133.791 148.515 129.044 148.093 128.634C148.714 128.05 149.591 125.987 149.591 125.987C149.495 121.88 150.974 120.472 153.352 115.06Z" fill="#FAB19E"/>
<path d="M157.545 120.185C157.59 120.244 157.894 120.076 158.224 119.809C158.554 119.543 158.784 119.278 158.739 119.219C158.693 119.16 158.39 119.328 158.06 119.595C157.731 119.861 157.5 120.125 157.545 120.185ZM158.781 122.014C158.827 122.073 159.13 121.905 159.46 121.639C159.79 121.372 160.02 121.108 159.975 121.049C159.929 120.99 159.626 121.158 159.296 121.424C158.966 121.691 158.736 121.955 158.781 122.014ZM159.797 123.824C159.842 123.883 160.146 123.715 160.476 123.448C160.806 123.182 161.036 122.917 160.991 122.858C160.945 122.799 160.642 122.967 160.312 123.233C159.982 123.5 159.752 123.764 159.797 123.824ZM158.792 124.614C158.849 124.566 158.328 123.808 157.628 122.92C156.928 122.032 156.315 121.351 156.258 121.399C156.201 121.446 156.722 122.204 157.422 123.092C158.121 123.98 158.735 124.661 158.792 124.614ZM153.338 125.196C153.349 125.21 153.411 125.176 153.516 125.099C153.616 125.019 153.777 124.915 153.922 124.728C154.243 124.393 154.587 123.779 154.632 123.035C154.688 122.294 154.459 121.651 154.265 121.231C154.059 120.808 153.867 120.588 153.838 120.61C153.807 120.631 153.938 120.882 154.093 121.307C154.236 121.731 154.419 122.342 154.367 123.016C154.326 123.692 154.045 124.255 153.777 124.606C153.659 124.797 153.523 124.917 153.446 125.02C153.366 125.119 153.327 125.181 153.338 125.196ZM149.591 125.987C149.574 125.994 149.591 126.078 149.637 126.227C149.683 126.375 149.752 126.591 149.876 126.839C150.106 127.344 150.513 128.006 151.084 128.626C152.224 129.887 153.498 130.446 153.521 130.372C153.557 130.308 152.379 129.659 151.277 128.439C150.151 127.239 149.673 125.948 149.591 125.987Z" fill="#DB8F82"/>
<path d="M101.578 123.741C101.578 123.741 105.248 124.3 106.698 125.584C107.211 126.038 126.344 147.436 127.023 147.264C127.703 147.092 147.848 127.305 147.848 127.305L154.843 133.433C154.843 133.433 134.676 164.417 126.689 167.528C118.702 170.639 103.426 147.933 103.426 147.933C103.426 147.933 90.3459 128.71 101.578 123.741Z" fill="#61BA7A"/>
<path d="M126.589 148.126C126.331 148.234 124.368 151.712 124.76 151.936C125.152 152.16 126.589 149.291 126.589 149.291C126.589 149.291 126.328 153.236 127.243 152.519C128.157 151.801 127.548 147.722 126.589 148.126Z" fill="#C6501C"/>
<path d="M103.425 147.935C103.425 147.935 118.702 170.641 126.685 167.524C134.676 164.416 154.846 133.431 154.846 133.431L152.175 131.096C147.924 137.567 135.109 156.479 128.869 159.348C121.319 162.815 97.1916 131.327 97.1916 131.327L98.6861 125.884C93.0955 132.753 103.425 147.935 103.425 147.935Z" fill="#649A63"/>
<path d="M102.581 187.391C102.581 187.391 100.699 205.292 97.2979 206.967L99.3928 194.571C99.3928 194.571 96.7855 195.224 96.9264 193.918C97.0673 192.612 97.4902 188.188 97.4902 188.188L102.581 187.391Z" fill="#28264A"/>
<path d="M115.762 189.698C115.762 189.698 87.7111 194.736 76.019 194.736C69.5872 194.736 63.4263 188.662 63.4263 188.662C63.4263 188.662 80.0793 124.12 83.0329 123.354C85.9865 122.588 96.7854 121.589 101.954 124.337C107.123 127.084 115.762 189.698 115.762 189.698Z" fill="#61BA7A"/>
<path d="M115.767 189.692C115.767 189.692 87.7134 194.734 76.0191 194.734C69.5872 194.734 63.4282 188.662 63.4282 188.662C63.4282 188.662 71.2374 158.384 77.1105 139.059C78.7997 144.93 80.7227 150.186 82.6198 152.607C86.284 157.261 97.5105 141.694 104.865 130.406C105.865 133.71 106.931 138.149 107.958 143.084L102.37 150.935C102.37 150.935 82.8926 171.865 81.5804 174.566C80.255 177.281 88.5839 176.372 87.7133 178.03C86.8298 179.689 78.9556 182.256 81.5804 183.754C84.2051 185.252 92.625 181.36 91.7024 183.754C90.78 186.148 87.4665 186.375 90.0782 187.392C92.677 188.408 111.102 187.66 110.959 186.148C110.816 184.65 105.697 183.3 108.62 183.3C111.544 183.3 113.272 185.399 112.479 182.537C112.024 180.906 111.167 167.532 110.504 156.338C113.454 172.908 115.767 189.692 115.767 189.692Z" fill="#649A63"/>
<path d="M77.8943 158.02C78.3328 158.02 71.3412 193.828 70.4643 191.571C69.5872 189.314 76.5536 158.02 77.8943 158.02Z" fill="#61BA7A"/>
<path d="M102.144 138.119C96.526 140.945 85.7813 133.559 85.1119 138.119C84.4426 142.679 82.2273 161.933 87.2733 156.106C92.319 150.279 94.4091 145.832 96.1702 149.632C97.9311 153.433 106.204 150.913 104.799 145.846C103.395 140.779 104.419 136.975 102.144 138.119Z" fill="#649A63"/>
<path d="M83.0329 123.354C83.0329 123.354 75.5319 126.393 73.8454 128.54C72.7243 129.967 71.0672 156.233 73.2549 162.361C76.4925 166.416 85.5651 164.973 87.7111 160.518C89.8573 156.064 85.1741 125.048 83.0329 123.354Z" fill="#61BA7A"/>
<path d="M85.6833 132.803C85.6833 132.803 87.027 154.663 87.7113 155.313C88.3957 155.963 88.3308 137.426 85.6833 132.803ZM72.4503 137.294C72.4503 137.294 72.5109 161.179 73.2551 162.361C73.2551 162.361 69.7822 155.112 72.4503 137.294ZM107.668 141.737C107.515 141.632 110.595 164.403 111.456 163.897C112.318 163.39 108.96 142.624 107.668 141.737Z" fill="#649A63"/>
<path d="M81.421 82.4346C85.8643 78.5459 98.463 89.7704 98.463 89.7704C98.463 89.7704 88.3142 99.9779 82.973 100.928C82.973 100.928 76.9774 86.3235 81.421 82.4346Z" fill="#61BA7A"/>
<path d="M82.9758 100.93C88.3155 99.9763 98.4598 89.7697 98.4598 89.7697C98.4598 89.7697 98.1604 89.5055 97.64 89.0652C92.1081 90.797 85.7632 96.5422 83.9452 94.8693C82.2915 93.3431 81.7495 85.6681 81.5927 82.3002C81.5357 82.3368 81.4787 82.3881 81.4216 82.4321C76.9802 86.3211 82.9758 100.93 82.9758 100.93Z" fill="#263238"/>
<path d="M82.9731 100.928C83.5051 101.71 87.4038 99.8468 91.6813 96.7658C95.9587 93.6847 98.9951 90.5529 98.4631 89.7705C97.9312 88.9881 94.0324 90.8515 89.755 93.9325C85.4773 97.0136 82.4412 100.145 82.9731 100.928Z" fill="#263238"/>
<path d="M83.3682 104.256L82.9727 100.928L98.4626 89.7704L101.354 91.3003L83.3682 104.256Z" fill="black"/>
<path d="M81.6629 106.092C82.4172 107.201 87.9451 104.56 94.0099 100.191C100.075 95.8225 104.38 91.3819 103.625 90.2726C102.871 89.1634 97.3432 91.8054 91.2785 96.1737C85.2137 100.542 80.9086 104.983 81.6629 106.092Z" fill="#2C4214"/>
<path d="M83.3769 105.188C83.9112 105.974 88.561 103.574 93.7625 99.8271C98.9641 96.0803 102.748 92.4061 102.214 91.6205C101.679 90.8349 97.0295 93.2351 91.828 96.9819C86.6264 100.728 82.8428 104.403 83.3769 105.188Z" fill="#28264A"/>
<path d="M89.5783 109.664L89.3232 120.035C89.3232 120.035 89.9111 123.784 94.8685 124.548C96.4423 124.79 97.2071 123.622 97.5177 121.914C97.1004 118.567 96.5041 115.209 96.5041 115.209L89.5783 109.664Z" fill="#FAB19E"/>
<path d="M90.9966 114.555C91.9508 118.878 95.7206 119.523 97.1986 119.61C96.8527 117.183 96.5064 115.21 96.5064 115.21L91.0433 110.838C90.7346 111.763 90.6409 112.966 90.9966 114.555Z" fill="#DB8F82"/>
<path d="M100.804 96.0964C100.804 96.0964 104.433 105.108 103.581 109.905C103.236 111.846 101.523 117.143 97.5339 116.783C93.5452 116.422 86.3587 106.273 88.346 102.118C90.332 97.962 100.804 96.0964 100.804 96.0964Z" fill="#FAB19E"/>
<path d="M87.775 112.312C87.5474 114.871 89.7148 114.577 89.7421 114.34C91.3609 115.406 97.1385 117.428 100.231 116.674C103.989 115.757 103.726 109.684 103.726 109.684C103.726 109.684 101.118 108.651 99.138 109.621C97.1578 110.591 96.1177 114.258 94.2046 112.032C92.2915 109.806 90.3233 103.923 91.5262 101.538C95.1881 101.389 99.1152 100.665 101.21 98.5048C105.82 93.7527 106.06 90.5404 101.131 92.015C96.2022 93.4896 85.3526 102.779 85.3526 102.779C84.726 106.695 85.2132 112.812 87.775 112.312Z" fill="#28264A"/>
<path d="M97.3096 120.342C97.3096 120.342 99.441 122.13 99.7567 122.889C100.072 123.647 98.1298 126.13 96.4338 126.8C91.9085 128.587 86.699 123.55 86.9622 122.304C87.2252 121.059 89.354 119.214 89.354 119.214C89.354 119.214 90.5632 123.91 94.9077 123.279C97.5175 122.9 97.3096 120.342 97.3096 120.342Z" fill="#263238"/>
<path d="M90.0294 108.086C90.0294 108.086 90.3414 104.176 89.3099 102.975C88.5501 102.091 87.2504 102.082 86.6898 102.392C84.6936 103.496 85.8954 107.595 88.2904 108.548C88.8102 108.755 89.652 108.635 90.0294 108.086Z" fill="#FAB19E"/>
<path d="M86.827 104.208C92.1639 105.645 84.6607 107.083 87.8178 105.209C87.8178 105.209 86.0147 104.265 86.827 104.208Z" fill="#28264A"/>
<path d="M97.645 101.14C97.4566 100.628 95.698 101.031 94.2901 102.489C92.8824 103.947 98.076 102.313 97.645 101.14ZM101.055 100.04C101.225 99.6094 102.545 99.8484 103.545 100.973C104.546 102.098 100.668 101.028 101.055 100.04ZM96.2966 103.687C96.7597 103.116 99.3136 104.432 97.6707 104.592C96.038 103.473 96.3937 105.605 95.5335 105.276C95.2003 104.906 95.4588 104.23 96.2966 103.687ZM101.879 102.529C102.342 101.959 104.896 103.275 103.253 103.434C101.621 102.315 101.976 104.447 101.116 104.118C100.783 103.748 101.042 103.073 101.879 102.529ZM99.8277 104.844C100.552 106.383 100.892 107.124 100.734 107.583C100.336 108.743 98.0472 107.397 100.203 107.335C100.203 107.335 99.6148 104.824 99.8277 104.844Z" fill="#28264A"/>
<path d="M101.669 111.149C100.24 112.395 99.3205 111.274 99.1752 111.872C99.0299 112.47 99.8288 113.467 101.088 113.168C102.51 112.83 102.854 110.115 101.669 111.149Z" fill="#DFE4EF"/>
<path d="M105.12 115.96C105.12 115.96 108.649 110.567 109.641 110.571L110.379 111.634C110.379 111.634 109.068 115.012 109.001 115.324C108.935 115.634 109.229 117.234 107.67 118.632C106.111 120.03 104.413 117.211 105.12 115.96Z" fill="#DB8F82"/>
<path d="M116.547 116.855C116.423 116.397 114.876 116.679 114.876 116.679C114.876 116.679 115.21 115.802 114.398 115.449C113.922 115.241 113.217 115.565 113.217 115.565C113.217 115.565 113.522 114.474 112.652 113.964C111.782 113.454 111.037 114.323 111.037 114.323C111.037 114.323 111.165 112.668 109.621 112.8C108.546 112.892 108.197 113.147 107.859 113.833C106.918 114.341 105.226 115.572 104.859 116.299C104.223 117.559 104.411 119.481 105.053 120.827C104.263 122.074 103.17 124.022 103.17 124.022L109.232 127.74L111.152 125.027L115.475 120.18C115.475 120.18 116.619 117.909 116.547 116.855Z" fill="#FAB19E"/>
<path d="M113.742 120C113.086 119.042 113.771 118.324 113.771 118.324C113.771 118.324 112.777 119.852 111.892 119.021C110.969 118.155 112.281 116.57 112.281 116.57C112.281 116.57 110.673 118.257 109.784 117.704C109.081 117.267 110.21 114.951 110.21 114.951C110.21 114.951 108.906 116.511 108.013 115.947C107.049 115.336 107.858 113.833 107.858 113.833C107.858 113.833 110.647 110.021 111.815 109.487C112.169 109.325 113.336 109.866 113.298 110.287C113.264 110.652 111.598 113.227 111.598 113.227C111.598 113.227 114.145 109.544 114.547 109.478C114.801 109.435 115.742 110.225 115.787 110.492C115.852 110.87 113.611 114.552 113.611 114.552C113.611 114.552 114.581 113.617 114.955 113.662C115.165 113.687 115.93 114.403 115.993 114.584C116.118 114.946 115.379 115.973 115.379 115.973C115.379 115.973 116.047 115.613 116.339 115.771C116.513 115.866 116.709 116.013 116.889 116.243C117.423 116.924 115.015 121.86 113.742 120Z" fill="#FAB19E"/>
<path d="M110.374 114.995C110.518 115.097 110.973 114.674 111.391 114.049C111.808 113.425 112.029 112.836 111.885 112.734C111.74 112.632 111.285 113.055 110.868 113.68C110.451 114.304 110.229 114.893 110.374 114.995Z" fill="#DB8F82"/>
<path d="M112.541 116.13C112.686 116.231 113.048 115.943 113.349 115.487C113.651 115.031 113.778 114.578 113.633 114.477C113.488 114.376 113.127 114.664 112.825 115.12C112.524 115.576 112.397 116.028 112.541 116.13Z" fill="#DB8F82"/>
<path d="M114.2 117.704C114.344 117.807 114.748 117.466 115.102 116.943C115.457 116.419 115.628 115.912 115.485 115.809C115.341 115.705 114.937 116.046 114.583 116.57C114.228 117.093 114.057 117.601 114.2 117.704Z" fill="#DB8F82"/>
<path d="M104.347 121.15C104.347 121.15 74.3895 153.896 73.9265 157.289C73.195 162.652 76.6441 167.67 85.1046 164.985C93.3717 162.361 111.212 126.085 111.212 126.085L104.347 121.15Z" fill="#61BA7A"/>
<path d="M111.212 126.085C111.212 126.085 94.3242 156.87 90.4941 160.525C90.4941 160.525 102.581 149.828 111.212 126.085ZM104.347 121.15C104.347 121.15 79.8544 152.691 77.9855 151.318C76.1167 149.945 103.64 121.472 104.347 121.15Z" fill="#263238"/>
<path d="M104.732 121.465C104.662 121.517 104.817 121.901 105.199 122.438C105.573 122.98 106.215 123.65 107.063 124.197C107.916 124.736 108.795 125.029 109.444 125.106C110.094 125.195 110.506 125.101 110.503 125.006C110.502 124.908 110.127 124.827 109.55 124.625C108.972 124.434 108.203 124.098 107.421 123.604C105.854 122.607 104.908 121.329 104.732 121.465Z" fill="#DB8F82"/>
<path opacity="0.5" d="M145.793 336.22C145.8 338.453 131.008 340.318 112.751 340.387C94.4955 340.456 79.69 338.702 79.6821 336.47C79.6735 334.237 94.4671 332.371 112.723 332.302C130.979 332.234 145.785 333.988 145.793 336.22Z" fill="#164C3E"/>
</g>
<defs>
<clipPath id="clip0_115_1257">
<rect width="376" height="387" fill="white"/>
</clipPath>
</defs>
</svg>
